<svg width="1210" height="575" viewBox="0 0 1210 575" fill="none" xmlns="http://www.w3.org/2000/svg">
<path d="M605 0C270.913 0 0 270.913 0 605C0 939.087 270.913 1210 605 1210C939.087 1210 1210 939.087 1210 605C1210 270.715 939.087 0 605 0ZM605 1078.5C343.592 1078.5 131.496 866.606 131.496 605C131.496 343.394 343.592 131.496 605 131.496C866.408 131.496 1078.5 343.394 1078.5 605C1078.5 866.606 866.606 1078.5 605 1078.5ZM605 345.177C461.424 345.177 345.177 461.622 345.177 605C345.177 748.378 461.622 864.823 605 864.823C748.378 864.823 864.823 748.378 864.823 605C864.823 461.622 748.576 345.177 605 345.177ZM605 799.669C497.466 799.669 410.331 712.534 410.331 605C410.331 497.466 497.466 410.331 605 410.331C712.534 410.331 799.669 497.466 799.669 605C799.669 712.534 712.534 799.669 605 799.669ZM605 164.964C362.01 164.964 164.964 362.01 164.964 605.198C164.964 848.386 362.01 1045.23 605 1045.23C847.99 1045.23 1045.04 848.188 1045.04 605.198C1045.04 362.01 847.99 164.964 605 164.964ZM748.576 259.625C762.043 236.455 791.748 228.534 814.918 241.802C838.088 255.268 846.01 284.776 832.741 308.144C819.275 331.314 789.57 339.236 766.399 325.967C743.229 312.501 735.308 282.795 748.576 259.625ZM907.005 605.198C907.005 771.944 771.746 907.005 605.198 907.005C438.65 907.005 303.391 771.944 303.391 605.198C303.391 438.452 438.452 303.193 605.198 303.193C771.944 303.193 907.005 438.254 907.005 605.198ZM605 185.56C631.735 185.56 653.519 207.344 653.519 234.079C653.519 260.813 631.735 282.597 605 282.597C578.265 282.597 556.481 260.813 556.481 234.079C556.481 207.344 578.265 185.56 605 185.56ZM395.28 241.802C418.45 228.336 448.155 236.257 461.622 259.625C475.088 282.795 467.167 312.501 443.799 325.967C420.628 339.434 390.923 331.512 377.457 308.144C363.99 284.974 371.912 255.268 395.28 241.802ZM241.604 395.478C255.07 372.308 284.776 364.386 307.946 377.655C331.116 391.121 339.038 420.827 325.769 443.997C312.303 467.167 282.597 475.088 259.427 461.82C236.257 448.354 228.336 418.648 241.604 395.478ZM185.362 605.198C185.362 578.463 207.146 556.679 233.881 556.679C260.615 556.679 282.399 578.463 282.399 605.198C282.399 631.933 260.615 653.717 233.881 653.717C207.146 653.717 185.362 631.933 185.362 605.198ZM307.946 832.741C284.776 846.208 255.07 838.286 241.604 814.918C228.137 791.748 236.059 762.043 259.427 748.576C282.597 735.11 312.303 743.229 325.769 766.399C339.236 789.57 331.314 819.275 307.946 832.741ZM461.424 950.771C447.957 973.941 418.252 981.863 395.082 968.594C371.912 955.128 363.99 925.62 377.259 902.252C390.725 879.082 420.43 871.16 443.601 884.429C466.771 897.895 474.692 927.403 461.424 950.771ZM605 1024.64C578.265 1024.64 556.481 1002.85 556.481 976.12C556.481 949.385 578.265 927.601 605 927.601C631.735 927.601 653.519 949.385 653.519 976.12C653.519 1002.85 631.735 1024.64 605 1024.64ZM814.72 968.396C791.55 981.863 761.845 973.941 748.378 950.573C734.912 927.403 742.833 897.697 766.201 884.231C789.372 870.764 819.077 878.686 832.543 902.054C846.01 925.224 838.088 954.93 814.72 968.396ZM968.396 814.72C954.93 837.89 925.224 846.01 902.054 832.543C878.884 819.077 870.962 789.372 884.231 766.201C897.697 743.031 927.403 735.11 950.573 748.378C973.743 761.845 981.665 791.55 968.396 814.72ZM1024.64 605C1024.64 631.735 1002.85 653.519 976.12 653.519C949.385 653.519 927.601 631.735 927.601 605C927.601 578.265 949.385 556.481 976.12 556.481C1002.85 556.481 1024.64 578.265 1024.64 605ZM968.396 395.082C981.863 418.252 973.941 447.957 950.573 461.424C927.403 474.89 897.697 466.771 884.231 443.601C870.764 420.43 878.686 390.725 902.054 377.259C925.224 363.792 954.93 371.912 968.396 395.082Z" fill="white" fill-opacity="0.15"/>
</svg>
