<svg width="381" height="314" viewBox="0 0 381 314" fill="none" xmlns="http://www.w3.org/2000/svg">
<g clip-path="url(#clip0_1110_197)">
<path d="M274.491 87.1468C274.491 39.0092 235.458 0 187.292 0C139.126 0 100.093 39.0092 100.093 87.1468C100.093 135.284 139.126 174.294 187.292 174.294C235.458 174.294 274.491 135.284 274.491 87.1468ZM119.057 87.1468C119.057 49.4642 149.619 18.9518 187.292 18.9518C224.965 18.9518 255.528 49.4642 255.528 87.1468C255.528 124.798 224.965 155.342 187.292 155.342C149.619 155.342 119.057 124.798 119.057 87.1468ZM224.744 87.1468C224.744 66.4893 207.993 49.7169 187.292 49.7169C166.622 49.7169 149.84 66.4893 149.84 87.1468C149.84 107.804 166.622 124.577 187.292 124.577C207.962 124.577 224.744 107.804 224.744 87.1468ZM159.258 87.1468C159.258 71.6695 171.806 59.1297 187.292 59.1297C202.779 59.1297 215.326 71.6695 215.326 87.1468C215.326 102.624 202.779 115.164 187.292 115.164C171.806 115.164 159.258 102.624 159.258 87.1468ZM250.724 87.1468C250.724 52.1175 222.342 23.7529 187.292 23.7529C152.274 23.7529 123.861 52.1175 123.861 87.1468C123.861 122.144 152.274 150.541 187.292 150.541C222.311 150.541 250.724 122.176 250.724 87.1468ZM237.102 107.804C240.452 109.731 241.59 114.027 239.662 117.343C237.734 120.691 233.436 121.829 230.117 119.902C226.767 117.975 225.629 113.711 227.557 110.363C229.485 107.015 233.783 105.877 237.102 107.804ZM187.292 130.61C163.272 130.61 143.803 111.152 143.803 87.1468C143.803 63.1411 163.272 43.6524 187.292 43.6524C211.312 43.6524 230.812 63.1096 230.812 87.1468C230.812 111.184 211.344 130.61 187.292 130.61ZM247.753 87.1468C247.753 91.0003 244.624 94.1273 240.768 94.1273C236.912 94.1273 233.783 91.0003 233.783 87.1468C233.783 83.2932 236.912 80.1662 240.768 80.1662C244.624 80.1662 247.753 83.2932 247.753 87.1468ZM239.662 56.9186C241.59 60.2668 240.452 64.5309 237.102 66.4577C233.752 68.3845 229.485 67.2474 227.557 63.8992C225.629 60.5511 226.767 56.2869 230.117 54.3601C233.467 52.4334 237.734 53.5705 239.662 56.9186ZM217.538 34.8082C220.888 36.7349 222.026 40.9991 220.098 44.3473C218.17 47.6954 213.904 48.8325 210.553 46.9057C207.203 44.979 206.066 40.6832 207.993 37.3667C209.921 34.0185 214.188 32.8814 217.538 34.8082ZM187.292 26.7221C191.148 26.7221 194.277 29.8491 194.277 33.7026C194.277 37.5562 191.148 40.6832 187.292 40.6832C183.436 40.6832 180.307 37.5562 180.307 33.7026C180.307 29.8491 183.436 26.7221 187.292 26.7221ZM154.486 44.3473C152.558 40.9991 153.696 36.7349 157.046 34.8082C160.396 32.8814 164.663 34.0185 166.591 37.3667C168.519 40.7148 167.381 44.979 164.031 46.9057C160.681 48.8325 156.414 47.6954 154.486 44.3473ZM137.482 66.4577C134.132 64.5309 132.994 60.2668 134.922 56.9186C136.85 53.5705 141.117 52.4334 144.467 54.3601C147.817 56.2869 148.955 60.5826 147.027 63.8992C145.099 67.2474 140.833 68.3845 137.482 66.4577ZM126.831 87.1152C126.831 83.2617 129.96 80.1346 133.816 80.1346C137.672 80.1346 140.801 83.2617 140.801 87.1152C140.801 90.9687 137.672 94.0958 133.816 94.0958C129.96 94.0958 126.831 90.9687 126.831 87.1152ZM134.922 117.343C132.994 113.995 134.132 109.731 137.482 107.804C140.833 105.877 145.099 107.015 147.027 110.363C148.955 113.711 147.817 117.975 144.467 119.902C141.117 121.829 136.85 120.691 134.922 117.343ZM157.046 139.454C153.696 137.527 152.558 133.263 154.486 129.915C156.414 126.567 160.712 125.429 164.031 127.356C167.381 129.283 168.519 133.547 166.591 136.895C164.663 140.243 160.396 141.381 157.046 139.454ZM187.292 147.54C183.436 147.54 180.307 144.413 180.307 140.559C180.307 136.706 183.436 133.579 187.292 133.579C191.148 133.579 194.277 136.706 194.277 140.559C194.277 144.413 191.148 147.54 187.292 147.54ZM217.507 139.454C214.156 141.381 209.89 140.243 207.962 136.895C206.034 133.547 207.172 129.283 210.522 127.356C213.872 125.429 218.139 126.567 220.067 129.915C221.995 133.263 220.857 137.527 217.507 139.454ZM187.229 214.535H165.769V193.751H151.483V271.706H165.769V228.843H187.229C192.001 228.843 194.372 231.212 194.372 235.982V271.706H208.657V235.982C208.657 221.705 201.514 214.535 187.197 214.535H187.229ZM317.189 228.812L323.542 214.535H308.182V193.751H293.896V214.535H280.148V228.812H293.896V271.674H308.182V228.812H317.189ZM346.266 257.397L380.968 228.812V214.535H334.983L328.63 228.812H358.497L323.795 257.397V271.674H381V257.397H346.298H346.266ZM78.6652 248.3C78.6652 232.697 70.8587 224.926 55.2774 224.926H24.0831C18.8683 224.926 16.2766 222.336 16.2766 217.125C16.2766 211.913 18.8683 209.323 24.0831 209.323H65.1698L72.1229 193.719H24.0831C8.47018 193.719 0.695313 201.521 0.695313 217.093C0.695313 232.665 8.50178 240.467 24.0831 240.467H55.2774C60.4922 240.467 63.0839 243.057 63.0839 248.269C63.0839 253.481 60.4922 256.071 55.2774 256.071H0V271.674H55.2774C70.8903 271.674 78.6652 263.872 78.6652 248.3ZM107.932 257.397C103.159 257.397 100.789 255.028 100.789 250.259V235.982C100.789 231.212 103.159 228.843 107.932 228.843H137.609L143.677 215.198V214.566H107.932C93.646 214.566 86.4717 221.705 86.4717 236.013V250.29C86.4717 264.567 93.6144 271.737 107.932 271.737H143.677V257.46H107.932V257.397ZM252.241 214.535H225.977L219.624 228.812H252.241C257.013 228.812 259.383 231.149 259.383 235.824V235.95H234.415C222.469 235.95 216.464 241.794 216.464 253.481C216.464 265.61 222.437 271.674 234.415 271.674H273.669V235.95C273.669 221.673 266.526 214.503 252.209 214.503L252.241 214.535ZM259.383 250.259V257.397H234.415C231.982 257.397 230.781 256.197 230.781 253.765C230.781 251.333 231.982 250.259 234.415 250.259H259.383ZM225.534 310.999C225.914 311.884 226.419 312.547 227.115 312.958C227.81 313.368 228.632 313.653 229.58 313.747C230.528 313.842 231.76 313.905 233.309 313.905C235.458 313.905 237.07 313.779 238.208 313.526C239.346 313.274 240.199 312.673 240.8 311.757C241.4 310.841 241.716 309.357 241.716 307.367V292.427H239.377V307.304C239.377 308.63 239.219 309.61 238.935 310.241C238.65 310.841 238.082 311.252 237.291 311.473C236.47 311.663 235.174 311.789 233.372 311.789C231.571 311.789 230.275 311.694 229.485 311.473C228.663 311.252 228.126 310.873 227.841 310.241C227.557 309.641 227.399 308.662 227.399 307.304V292.427H225.06V307.367C225.06 308.883 225.25 310.083 225.597 310.968L225.534 310.999ZM287.923 313.684V311.536H277.209V292.458H274.838V313.684H287.954H287.923ZM251.261 313.684L252.968 309.325H263.682L265.262 313.684H267.79L259.889 292.458H256.476L248.732 313.684H251.292H251.261ZM253.536 307.241L258.214 294.195L262.923 307.241H253.536ZM333.023 313.684H335.394V304.808L343.421 292.458H340.735L334.319 302.597L327.872 292.458H325.249L333.055 304.808V313.684H333.023ZM294.781 292.49V313.653H297.183V292.49H294.781ZM310.647 294.606V313.684H313.017V294.606H319.907V292.458H303.694V294.606H310.647ZM212.45 313.526C213.082 313.368 213.651 313.147 214.156 312.863C214.662 312.579 215.136 312.168 215.579 311.631L217.159 312.705L218.139 311.094L216.337 309.862C216.59 309.041 216.748 306.767 216.748 303.071C216.748 300.734 216.622 298.839 216.337 297.449C216.053 296.059 215.61 294.985 214.947 294.227C214.283 293.469 213.398 292.964 212.26 292.648C211.122 292.363 209.605 292.205 207.677 292.205C205.749 292.205 204.327 292.363 203.221 292.648C202.115 292.932 201.23 293.469 200.566 294.227C199.934 294.985 199.46 296.059 199.176 297.48C198.891 298.87 198.765 300.734 198.765 303.04C198.765 305.345 198.891 307.209 199.176 308.599C199.428 309.989 199.903 311.062 200.566 311.821C201.23 312.579 202.115 313.116 203.221 313.431C204.327 313.747 205.844 313.874 207.709 313.874C208.752 313.874 209.637 313.874 210.395 313.81C211.154 313.779 211.818 313.653 212.45 313.526ZM204.169 311.473C203.347 311.252 202.715 310.841 202.273 310.241C201.83 309.641 201.546 308.788 201.388 307.714C201.23 306.609 201.167 305.061 201.167 303.071C201.167 301.081 201.23 299.502 201.388 298.396C201.546 297.291 201.83 296.438 202.241 295.838C202.684 295.238 203.284 294.827 204.138 294.606C204.991 294.385 206.129 294.29 207.677 294.29C209.226 294.29 210.395 294.385 211.249 294.606C212.102 294.827 212.734 295.238 213.208 295.806C213.651 296.406 213.967 297.228 214.125 298.333C214.283 299.439 214.378 300.986 214.378 303.008C214.378 306.23 214.346 308.03 214.251 308.409L208.088 304.366L207.014 306.04L213.619 310.336C213.303 310.747 212.892 311.062 212.418 311.252C211.944 311.442 211.344 311.599 210.617 311.663C209.89 311.726 208.942 311.757 207.677 311.757C206.16 311.757 204.991 311.663 204.169 311.41V311.473ZM106.067 292.427V313.684H108.406V294.353L116.497 313.684H118.551L126.579 294.164V313.684H128.917V292.427H125.03L117.476 310.652L109.986 292.427H106.035H106.067ZM162.261 292.427V313.653H164.6V294.48L176.578 313.653H180.307V292.427H177.969V311.821L166.022 292.427H162.292H162.261ZM74.2721 292.427H60.6187V313.653H74.2405V311.536H62.989V303.829H73.798V301.776H62.989V294.543H74.3037V292.458L74.2721 292.427ZM51.7376 312.105C52.3697 311.473 52.8438 310.557 53.1282 309.42C53.4127 308.283 53.5391 306.798 53.5391 304.935V302.471H44.342V304.524H51.1371V305.282C51.1371 307.019 50.9791 308.314 50.6314 309.262C50.2838 310.178 49.6517 310.841 48.7667 311.22C47.8502 311.599 46.5544 311.821 44.8161 311.821C43.5203 311.821 42.4457 311.694 41.6556 311.473C40.8654 311.252 40.2333 310.81 39.7593 310.21C39.2852 309.609 38.9691 308.725 38.7795 307.62C38.5899 306.514 38.4951 304.998 38.4951 303.134C38.4951 301.271 38.5899 299.755 38.7795 298.617C38.9691 297.48 39.3168 296.596 39.7593 295.996C40.2333 295.364 40.8338 294.922 41.6556 294.701C42.4457 294.448 43.5203 294.322 44.8477 294.322C46.6492 294.322 47.9766 294.448 48.8299 294.669C49.6833 294.922 50.2838 295.332 50.5998 295.933C50.9159 296.533 51.1371 297.449 51.2003 298.681H53.5075C53.3811 297.007 53.0966 295.743 52.6858 294.859C52.2749 293.974 51.4532 293.343 50.2838 292.9C49.0828 292.458 47.2813 292.237 44.8793 292.237C43.1094 292.237 41.6556 292.427 40.5494 292.774C39.4432 293.153 38.5583 293.722 37.9262 294.543C37.2941 295.364 36.82 296.47 36.5671 297.859C36.2827 299.249 36.1563 300.986 36.1563 303.103C36.1563 305.219 36.2827 306.988 36.5355 308.346C36.7884 309.704 37.2625 310.778 37.8946 311.599C38.5267 312.421 39.4116 312.989 40.5494 313.337C41.6872 313.684 43.141 313.874 44.9109 313.874C46.6808 313.874 48.0714 313.747 49.1776 313.463C50.2838 313.179 51.1687 312.737 51.8008 312.105H51.7376ZM93.5828 305.472C94.1833 305.693 94.6258 306.072 94.9102 306.64C95.1947 307.177 95.3527 307.904 95.3527 308.82V313.621H97.7231V308.251C97.7231 305.693 96.6169 304.366 94.373 304.208C95.4791 304.019 96.2693 303.64 96.8065 303.134C97.3438 302.629 97.6599 302.029 97.8179 301.334C97.9443 300.639 98.0391 299.723 98.0391 298.617C98.0391 296.406 97.5019 294.827 96.5221 293.88C95.5423 292.932 93.9621 292.427 91.8445 292.427H81.7625V313.653H84.1013V305.156H91.3073C92.2238 305.156 92.9823 305.282 93.5828 305.503V305.472ZM84.1013 303.103V294.511H91.8445C92.7295 294.511 93.4564 294.669 94.0253 294.985C94.5942 295.301 95.0051 295.806 95.2579 296.47C95.5107 297.133 95.6372 298.017 95.6372 299.091C95.6372 300.165 95.4791 300.986 95.1631 301.587C94.847 302.155 94.3729 302.566 93.7092 302.787C93.0455 303.008 92.1606 303.103 91.0228 303.103H84.0697H84.1013ZM143.898 292.395L136.155 313.621H138.715L140.422 309.262H151.136L152.716 313.621H155.244L147.343 292.395H143.93H143.898ZM150.377 307.177H140.991L145.668 294.132L150.377 307.177Z" fill="url(#paint0_linear_1110_197)"/>
</g>
<defs>
<linearGradient id="paint0_linear_1110_197" x1="190.484" y1="0" x2="190.484" y2="314" gradientUnits="userSpaceOnUse">
<stop stop-color="#888A8D"/>
<stop offset="0.14" stop-color="#ACADAF"/>
<stop offset="0.46" stop-color="white"/>
<stop offset="0.57" stop-color="#BCBCBC"/>
<stop offset="0.65" stop-color="#929292"/>
<stop offset="0.69" stop-color="#828282"/>
<stop offset="0.72" stop-color="#7E7E7E"/>
<stop offset="0.75" stop-color="#737373"/>
<stop offset="0.78" stop-color="#606060"/>
<stop offset="0.8" stop-color="#464646"/>
<stop offset="0.82" stop-color="#363636"/>
<stop offset="0.83" stop-color="#393939"/>
<stop offset="0.85" stop-color="#444444"/>
<stop offset="0.87" stop-color="#575757"/>
<stop offset="0.88" stop-color="#717171"/>
<stop offset="0.89" stop-color="#828282"/>
</linearGradient>
<clipPath id="clip0_1110_197">
<rect width="381" height="314" fill="white"/>
</clipPath>
</defs>
</svg>
