<svg width="249" height="62" viewBox="0 0 249 62" fill="none" xmlns="http://www.w3.org/2000/svg">
<path d="M30.55 0C13.68 0 0 13.68 0 30.55C0 47.42 13.68 61.1 30.55 61.1C47.42 61.1 61.1 47.42 61.1 30.55C61.1 13.67 47.42 0 30.55 0ZM30.55 54.46C17.35 54.46 6.64 43.76 6.64 30.55C6.64 17.34 17.35 6.64 30.55 6.64C43.75 6.64 54.46 17.34 54.46 30.55C54.46 43.76 43.76 54.46 30.55 54.46ZM30.55 17.43C23.3 17.43 17.43 23.31 17.43 30.55C17.43 37.79 23.31 43.67 30.55 43.67C37.79 43.67 43.67 37.79 43.67 30.55C43.67 23.31 37.8 17.43 30.55 17.43ZM30.55 40.38C25.12 40.38 20.72 35.98 20.72 30.55C20.72 25.12 25.12 20.72 30.55 20.72C35.98 20.72 40.38 25.12 40.38 30.55C40.38 35.98 35.98 40.38 30.55 40.38ZM30.55 8.33C18.28 8.33 8.33 18.28 8.33 30.56C8.33 42.84 18.28 52.78 30.55 52.78C42.82 52.78 52.77 42.83 52.77 30.56C52.77 18.28 42.82 8.33 30.55 8.33ZM37.8 13.11C38.48 11.94 39.98 11.54 41.15 12.21C42.32 12.89 42.72 14.38 42.05 15.56C41.37 16.73 39.87 17.13 38.7 16.46C37.53 15.78 37.13 14.28 37.8 13.11ZM45.8 30.56C45.8 38.98 38.97 45.8 30.56 45.8C22.15 45.8 15.32 38.98 15.32 30.56C15.32 22.14 22.14 15.31 30.56 15.31C38.98 15.31 45.8 22.13 45.8 30.56ZM30.55 9.37C31.9 9.37 33 10.47 33 11.82C33 13.17 31.9 14.27 30.55 14.27C29.2 14.27 28.1 13.17 28.1 11.82C28.1 10.47 29.2 9.37 30.55 9.37ZM19.96 12.21C21.13 11.53 22.63 11.93 23.31 13.11C23.99 14.28 23.59 15.78 22.41 16.46C21.24 17.14 19.74 16.74 19.06 15.56C18.38 14.39 18.78 12.89 19.96 12.21ZM12.2 19.97C12.88 18.8 14.38 18.4 15.55 19.07C16.72 19.75 17.12 21.25 16.45 22.42C15.77 23.59 14.27 23.99 13.1 23.32C11.93 22.64 11.53 21.14 12.2 19.97ZM9.36 30.56C9.36 29.21 10.46 28.11 11.81 28.11C13.16 28.11 14.26 29.21 14.26 30.56C14.26 31.91 13.16 33.01 11.81 33.01C10.46 33.01 9.36 31.91 9.36 30.56ZM15.55 42.05C14.38 42.73 12.88 42.33 12.2 41.15C11.52 39.98 11.92 38.48 13.1 37.8C14.27 37.12 15.77 37.53 16.45 38.7C17.13 39.87 16.73 41.37 15.55 42.05ZM23.3 48.01C22.62 49.18 21.12 49.58 19.95 48.91C18.78 48.23 18.38 46.74 19.05 45.56C19.73 44.39 21.23 43.99 22.4 44.66C23.57 45.34 23.97 46.83 23.3 48.01ZM30.55 51.74C29.2 51.74 28.1 50.64 28.1 49.29C28.1 47.94 29.2 46.84 30.55 46.84C31.9 46.84 33 47.94 33 49.29C33 50.64 31.9 51.74 30.55 51.74ZM41.14 48.9C39.97 49.58 38.47 49.18 37.79 48C37.11 46.83 37.51 45.33 38.69 44.65C39.86 43.97 41.36 44.37 42.04 45.55C42.72 46.72 42.32 48.22 41.14 48.9ZM48.9 41.14C48.22 42.31 46.72 42.72 45.55 42.04C44.38 41.36 43.98 39.86 44.65 38.69C45.33 37.52 46.83 37.12 48 37.79C49.17 38.47 49.57 39.97 48.9 41.14ZM51.74 30.55C51.74 31.9 50.64 33 49.29 33C47.94 33 46.84 31.9 46.84 30.55C46.84 29.2 47.94 28.1 49.29 28.1C50.64 28.1 51.74 29.2 51.74 30.55ZM48.9 19.95C49.58 21.12 49.18 22.62 48 23.3C46.83 23.98 45.33 23.57 44.65 22.4C43.97 21.23 44.37 19.73 45.55 19.05C46.72 18.37 48.22 18.78 48.9 19.95ZM162.74 47.22V30.72C162.74 24.12 159.44 20.81 152.83 20.81H142.92V11.21H136.32V47.23H142.92V27.42H152.83C155.03 27.42 156.13 28.52 156.13 30.72V47.23H162.73L162.74 47.22ZM208.68 11.21H202.08V20.81H195.73V27.41H202.08V47.22H208.68V27.42H212.84L215.78 20.82H208.68V11.21ZM242.3 20.81H221.06L218.12 27.41H231.91L215.88 40.62V47.22H242.29V40.62H226.26L242.29 27.41V20.81H242.3ZM245.86 14.01C245.76 13.91 245.64 13.81 245.49 13.73C245.79 13.69 246.01 13.58 246.16 13.42C246.31 13.26 246.38 13.04 246.38 12.79C246.38 12.59 246.33 12.41 246.23 12.25C246.13 12.09 246 11.99 245.83 11.92C245.67 11.86 245.4 11.83 245.04 11.83H243.6V15.23H244.29V13.81H244.43C244.59 13.81 244.7 13.82 244.78 13.85C244.85 13.88 244.92 13.92 244.99 13.99C245.05 14.06 245.18 14.23 245.35 14.49L245.85 15.23H246.67L246.26 14.57C246.1 14.31 245.97 14.12 245.87 14.02L245.86 14.01ZM244.8 13.26H244.29V12.4H244.83C245.11 12.4 245.27 12.4 245.33 12.41C245.44 12.43 245.53 12.47 245.59 12.54C245.65 12.61 245.68 12.7 245.68 12.82C245.68 12.92 245.66 13.01 245.61 13.07C245.56 13.13 245.5 13.19 245.42 13.21C245.34 13.24 245.13 13.25 244.8 13.25V13.26ZM244.87 10.27C243.04 10.27 241.56 11.76 241.56 13.58C241.56 15.4 243.05 16.89 244.87 16.89C246.69 16.89 248.18 15.4 248.18 13.58C248.18 11.76 246.69 10.27 244.87 10.27ZM244.87 16.37C243.34 16.37 242.09 15.12 242.09 13.59C242.09 12.06 243.34 10.81 244.87 10.81C246.4 10.81 247.65 12.06 247.65 13.59C247.65 15.12 246.4 16.37 244.87 16.37ZM91.9 25.62H77.49C75.09 25.62 73.89 24.42 73.89 22.02C73.89 19.62 75.09 18.42 77.49 18.42H96.46L99.66 11.22H77.49C70.29 11.22 66.68 14.82 66.68 22.03C66.68 29.24 70.28 32.84 77.49 32.84H91.9C94.3 32.84 95.5 34.04 95.5 36.44C95.5 38.84 94.3 40.04 91.9 40.04H66.37V47.24H91.9C99.1 47.24 102.71 43.64 102.71 36.43C102.71 29.22 99.11 25.62 91.9 25.62ZM132.72 40.63H116.21C114.01 40.63 112.91 39.53 112.91 37.33V30.73C112.91 28.53 114.01 27.43 116.21 27.43H129.91L132.72 21.12V20.83H116.21C109.61 20.83 106.3 24.13 106.3 30.74V37.34C106.3 43.94 109.6 47.25 116.21 47.25H132.72V40.65V40.63ZM182.85 20.82H170.72L167.78 27.42H182.84C185.04 27.42 186.14 28.5 186.14 30.66V30.72H174.61C169.09 30.72 166.33 33.42 166.33 38.82C166.33 44.22 169.09 47.22 174.61 47.22H192.74V30.72C192.74 24.12 189.44 20.81 182.83 20.81L182.85 20.82ZM186.15 40.63H174.62C173.5 40.63 172.94 40.07 172.94 38.95C172.94 37.83 173.5 37.33 174.62 37.33H186.15V40.63Z" fill="black"/>
<path d="M69.6798 56.9698H71.9998V57.2298C71.9998 57.8198 71.9398 58.2698 71.8198 58.5798C71.6998 58.8898 71.4898 59.1198 71.1798 59.2498C70.8698 59.3798 70.4198 59.4498 69.8298 59.4498C69.3798 59.4498 69.0198 59.4098 68.7498 59.3298C68.4798 59.2498 68.2598 59.1098 68.0998 58.8998C67.9398 58.6898 67.8298 58.3998 67.7598 58.0098C67.6898 57.6298 67.6599 57.1198 67.6599 56.4798C67.6599 55.8398 67.6898 55.3298 67.7598 54.9398C67.8298 54.5498 67.9398 54.2498 68.0998 54.0398C68.2598 53.8298 68.4698 53.6798 68.7398 53.5898C69.0098 53.4998 69.3698 53.4598 69.8198 53.4598C70.4298 53.4598 70.8798 53.4998 71.1698 53.5798C71.4598 53.6598 71.6598 53.8098 71.7698 54.0098C71.8798 54.2098 71.9499 54.5298 71.9799 54.9498H72.7598C72.7098 54.3798 72.6199 53.9398 72.4799 53.6498C72.3399 53.3598 72.0599 53.1298 71.6599 52.9798C71.2499 52.8298 70.6398 52.7598 69.8198 52.7598C69.2198 52.7598 68.7298 52.8198 68.3498 52.9498C67.9698 53.0698 67.6698 53.2798 67.4498 53.5598C67.2298 53.8398 67.0699 54.2198 66.9799 54.6898C66.8899 55.1598 66.8398 55.7598 66.8398 56.4798C66.8398 57.1998 66.8798 57.7998 66.9698 58.2698C67.0598 58.7298 67.2098 59.0998 67.4298 59.3798C67.6498 59.6598 67.9498 59.8498 68.3298 59.9698C68.7098 60.0898 69.2098 60.1498 69.8198 60.1498C70.4298 60.1498 70.8898 60.0998 71.2698 60.0098C71.6498 59.9198 71.9398 59.7598 72.1698 59.5398C72.3898 59.3198 72.5498 59.0198 72.6498 58.6298C72.7498 58.2398 72.7999 57.7298 72.7999 57.0998V56.2598H69.6698V56.9598L69.6798 56.9698ZM75.2098 60.0798H79.8498V59.3598H76.0198V56.7298H79.6998V56.0198H76.0198V53.5598H79.8699V52.8398H75.2098V60.0798ZM85.8498 52.8398H82.4099V60.0798H83.2098V57.1798H85.6599C85.9799 57.1798 86.2299 57.2198 86.4398 57.2998C86.6399 57.3798 86.7898 57.5098 86.8898 57.6898C86.9898 57.8698 87.0398 58.1198 87.0398 58.4398V60.0798H87.8498V58.2498C87.8498 57.3798 87.4698 56.9198 86.7098 56.8698C87.0798 56.7998 87.3598 56.6798 87.5398 56.5098C87.7198 56.3398 87.8298 56.1298 87.8798 55.8898C87.9298 55.6498 87.9498 55.3398 87.9598 54.9598C87.9598 54.2098 87.7799 53.6698 87.4398 53.3398C87.0998 53.0098 86.5698 52.8398 85.8498 52.8398ZM86.9799 55.9798C86.8699 56.1798 86.7098 56.3098 86.4898 56.3798C86.2698 56.4498 85.9598 56.4898 85.5798 56.4898H83.2098V53.5598H85.8498C86.1598 53.5598 86.3998 53.6098 86.5898 53.7198C86.7798 53.8298 86.9198 53.9998 87.0098 54.2298C87.0998 54.4598 87.1398 54.7598 87.1398 55.1198C87.1398 55.4798 87.0899 55.7698 86.9799 55.9698V55.9798ZM94.5798 59.0498L92.0298 52.8398H90.6898V60.0898H91.4898V53.4998L94.2398 60.0898H94.9398L97.6698 53.4298V60.0898H98.4698V52.8398H97.1498L94.5798 59.0498ZM103.59 52.8498L100.95 60.0898H101.82L102.4 58.5998H106.05L106.59 60.0898H107.45L104.75 52.8498H103.58H103.59ZM102.59 57.8898L104.18 53.4498L105.78 57.8898H102.58H102.59ZM115.19 59.4598L111.11 52.8498H109.83V60.0898H110.63V53.5498L114.71 60.0898H115.98V52.8498H115.18V59.4598H115.19ZM128.4 56.4698C128.4 55.6698 128.35 55.0298 128.26 54.5598C128.17 54.0898 128.01 53.7198 127.78 53.4598C127.56 53.1998 127.25 53.0198 126.87 52.9298C126.49 52.8398 125.97 52.7798 125.31 52.7798C124.65 52.7798 124.17 52.8298 123.79 52.9298C123.41 53.0298 123.11 53.2098 122.89 53.4698C122.67 53.7298 122.51 54.0998 122.42 54.5698C122.33 55.0498 122.28 55.6798 122.28 56.4598C122.28 57.2398 122.33 57.8898 122.42 58.3598C122.51 58.8298 122.67 59.1998 122.89 59.4598C123.11 59.7198 123.41 59.8998 123.8 59.9998C124.18 60.0998 124.69 60.1498 125.33 60.1498C125.68 60.1498 125.99 60.1498 126.24 60.1298C126.5 60.1098 126.73 60.0798 126.94 60.0298C127.15 59.9798 127.35 59.8998 127.52 59.7998C127.69 59.6998 127.85 59.5598 128 59.3798L128.54 59.7498L128.87 59.1998L128.26 58.7798C128.35 58.4998 128.39 57.7198 128.39 56.4598L128.4 56.4698ZM127.55 58.3098L125.45 56.9298L125.08 57.4998L127.33 58.9598C127.22 59.0998 127.08 59.1998 126.92 59.2698C126.75 59.3398 126.55 59.3798 126.31 59.4098C126.07 59.4398 125.74 59.4398 125.31 59.4398C124.79 59.4398 124.39 59.3998 124.11 59.3298C123.83 59.2498 123.61 59.1098 123.46 58.9098C123.31 58.7098 123.21 58.4198 123.16 58.0498C123.11 57.6798 123.08 57.1498 123.08 56.4698C123.08 55.7898 123.1 55.2598 123.16 54.8798C123.21 54.4998 123.31 54.2098 123.45 54.0098C123.6 53.8098 123.81 53.6698 124.09 53.5898C124.37 53.5198 124.77 53.4798 125.29 53.4798C125.81 53.4798 126.22 53.5198 126.5 53.5898C126.79 53.6598 127.01 53.7998 127.17 53.9998C127.32 54.1998 127.43 54.4898 127.49 54.8698C127.55 55.2498 127.57 55.7798 127.57 56.4698C127.57 57.5698 127.56 58.1898 127.53 58.3098H127.55ZM136.1 57.9098C136.1 58.3698 136.05 58.6998 135.95 58.9098C135.85 59.1198 135.66 59.2598 135.39 59.3298C135.12 59.3998 134.67 59.4298 134.06 59.4298C133.45 59.4298 133.01 59.3998 132.73 59.3298C132.45 59.2598 132.27 59.1198 132.17 58.9098C132.07 58.6998 132.02 58.3698 132.02 57.9098V52.8398H131.22V57.9298C131.22 58.4498 131.28 58.8598 131.41 59.1598C131.53 59.4598 131.71 59.6898 131.95 59.8298C132.19 59.9698 132.46 60.0598 132.79 60.0998C133.11 60.1398 133.53 60.1598 134.06 60.1598C134.79 60.1598 135.34 60.1198 135.73 60.0298C136.12 59.9398 136.41 59.7398 136.61 59.4198C136.81 59.0998 136.92 58.5998 136.92 57.9198V52.8298H136.12V57.8998L136.1 57.9098ZM141.94 52.8398L139.3 60.0798H140.17L140.75 58.5898H144.4L144.94 60.0798H145.8L143.1 52.8398H141.93H141.94ZM140.94 57.8798L142.53 53.4398L144.13 57.8798H140.93H140.94ZM149 52.8398H148.19V60.0798H152.65V59.3498H149V52.8498V52.8398ZM154.98 60.0698H155.8V52.8498H154.98V60.0698ZM158.02 53.5798H160.39V60.0798H161.2V53.5798H163.55V52.8498H158.02V53.5798ZM168.45 56.2998L166.26 52.8398H165.36L168.02 57.0498V60.0698H168.83V57.0498L171.57 52.8398H170.65L168.46 56.2998H168.45Z" fill="black"/>
</svg>
