<svg width="295" height="73" viewBox="0 0 295 73" fill="none" xmlns="http://www.w3.org/2000/svg">
<path d="M36.3177 0C16.2592 0 0 16.2592 0 36.3177C0 56.3762 16.2592 72.6354 36.3177 72.6354C56.3762 72.6354 72.6354 56.3762 72.6354 36.3177C72.6354 16.2592 56.3762 0 36.3177 0ZM36.3177 64.7345C20.6245 64.7345 7.90089 52.0109 7.90089 36.3177C7.90089 20.6245 20.6245 7.90089 36.3177 7.90089C52.0109 7.90089 64.7345 20.6245 64.7345 36.3177C64.7345 52.0109 52.0109 64.7345 36.3177 64.7345ZM36.3177 20.7175C27.7035 20.7175 20.7175 27.7035 20.7175 36.3177C20.7175 44.9319 27.7035 51.9179 36.3177 51.9179C44.9319 51.9179 51.9101 44.9319 51.9101 36.3177C51.9101 27.7035 44.9242 20.7175 36.3177 20.7175ZM36.3177 47.9946C29.8667 47.9946 24.6408 42.7609 24.6408 36.3177C24.6408 29.8745 29.8667 24.6331 36.3177 24.6331C42.7687 24.6331 47.9946 29.859 47.9946 36.3177C47.9946 42.7764 42.7687 47.9946 36.3177 47.9946ZM36.3177 9.89355C21.7333 9.89355 9.90131 21.7177 9.90131 36.31C9.90131 50.9022 21.7255 62.7264 36.3177 62.7264C50.9099 62.7264 62.7341 50.9022 62.7341 36.31C62.7341 21.7177 50.9099 9.89355 36.3177 9.89355ZM44.9319 15.5692C45.7383 14.1735 47.5216 13.7006 48.9095 14.4992C50.3051 15.3055 50.7781 17.0811 49.9795 18.4768C49.1731 19.8724 47.3898 20.3454 46.0019 19.5467C44.6063 18.7404 44.1333 16.9571 44.9397 15.5692H44.9319ZM54.4378 36.31C54.4378 46.3198 46.3276 54.43 36.3177 54.43C26.3079 54.43 18.1976 46.3198 18.1976 36.31C18.1976 26.3001 26.3079 18.1899 36.3177 18.1899C46.3276 18.1899 54.4378 26.3001 54.4378 36.31ZM36.3177 11.1341C37.9305 11.1341 39.2331 12.4367 39.2331 14.0495C39.2331 15.6622 37.9305 16.9648 36.3177 16.9648C34.705 16.9648 33.4024 15.6622 33.4024 14.0495C33.4024 12.4367 34.705 11.1341 36.3177 11.1341ZM23.7259 14.5069C25.1216 13.7006 26.8971 14.1813 27.7035 15.5692C28.5099 16.9648 28.0291 18.7481 26.6413 19.5467C25.2456 20.3531 23.47 19.8724 22.6637 18.4768C21.8573 17.0889 22.338 15.3055 23.7337 14.4992L23.7259 14.5069ZM14.5069 23.7259C15.3133 22.3303 17.0889 21.8573 18.4845 22.6559C19.8801 23.4623 20.3531 25.2456 19.5467 26.6335C18.7404 28.0291 16.9571 28.5021 15.5692 27.7035C14.1735 26.8971 13.7006 25.1216 14.4992 23.7259H14.5069ZM11.1341 36.3177C11.1341 34.7127 12.4367 33.4024 14.0495 33.4024C15.6545 33.4024 16.9648 34.705 16.9648 36.3177C16.9648 37.9305 15.6622 39.2331 14.0495 39.2331C12.4367 39.2331 11.1341 37.9305 11.1341 36.3177ZM18.4923 49.9795C17.0966 50.7859 15.3133 50.3052 14.5147 48.9095C13.7083 47.5139 14.189 45.7305 15.5769 44.9319C16.9726 44.1256 18.7481 44.6063 19.5545 46.0019C20.3609 47.3976 19.8801 49.1731 18.4923 49.9795ZM27.7113 57.0663C26.9049 58.4542 25.1293 58.9349 23.7337 58.1285C22.338 57.3221 21.8651 55.5466 22.6637 54.1509C23.47 52.7553 25.2534 52.2823 26.6413 53.0887C28.0369 53.8951 28.5099 55.6706 27.7035 57.0663H27.7113ZM36.3255 61.5013C34.7127 61.5013 33.4101 60.1987 33.4101 58.586C33.4101 56.9732 34.7127 55.6706 36.3255 55.6706C37.9382 55.6706 39.2408 56.9732 39.2408 58.586C39.2408 60.1987 37.9382 61.5013 36.3255 61.5013ZM48.9173 58.1285C47.5216 58.9349 45.746 58.4542 44.9397 57.0663C44.1333 55.6706 44.614 53.8873 46.0019 53.0887C47.3976 52.2823 49.1731 52.763 49.9795 54.1509C50.7859 55.5466 50.3051 57.3299 48.9095 58.1285H48.9173ZM58.1363 48.9095C57.3299 50.3052 55.5466 50.7781 54.1509 49.9795C52.7553 49.1731 52.2823 47.3898 53.0887 46.0019C53.8951 44.6063 55.6784 44.1333 57.0663 44.9319C58.4619 45.7383 58.9349 47.5216 58.1363 48.9095ZM61.5091 36.3177C61.5091 37.9227 60.2065 39.2331 58.5937 39.2331C56.9887 39.2331 55.6784 37.9305 55.6784 36.3177C55.6784 34.705 56.981 33.4024 58.5937 33.4024C60.2065 33.4024 61.5091 34.705 61.5091 36.3177ZM58.1363 23.7259C58.9426 25.1216 58.4619 26.8971 57.0663 27.7035C55.6706 28.5021 53.8951 28.0291 53.0887 26.6335C52.2823 25.2379 52.763 23.4623 54.1509 22.6559C55.5466 21.8496 57.3299 22.3303 58.1285 23.7259H58.1363ZM193.444 56.1358V36.5116C193.444 28.6649 189.52 24.7416 181.674 24.7416H169.904V13.3284H162.057V56.1436H169.904V32.596H181.674C184.287 32.596 185.597 33.9064 185.597 36.5193V56.1436H193.444V56.1358ZM248.044 13.3206H240.198V24.7339H232.646V32.5805H240.198V56.1281H248.044V32.5805H252.983L256.473 24.7339H248.037V13.3206H248.044ZM287.999 24.7339H262.753L259.264 32.5805H275.655L256.604 48.2815V56.1281H287.999V48.2815H268.948L287.999 32.5805V24.7339ZM292.232 16.6547C292.116 16.5306 291.968 16.4221 291.798 16.3135C292.154 16.2592 292.418 16.1352 292.596 15.9413C292.775 15.7475 292.86 15.4916 292.86 15.1892C292.86 14.9489 292.798 14.7395 292.682 14.5534C292.565 14.3674 292.41 14.2356 292.209 14.1658C292.015 14.096 291.697 14.0572 291.271 14.0572H289.557V18.0968H290.371V16.4143H290.534C290.72 16.4143 290.86 16.4298 290.945 16.4608C291.03 16.4918 291.115 16.5461 291.193 16.6314C291.271 16.7167 291.41 16.9105 291.619 17.2284L292.209 18.1046H293.186L292.689 17.3137C292.496 17.0036 292.341 16.7787 292.224 16.6547H292.232ZM290.976 15.7708H290.371V14.7473H291.007C291.34 14.7473 291.534 14.7473 291.604 14.7628C291.736 14.7861 291.837 14.8403 291.914 14.9179C291.984 15.0032 292.023 15.1117 292.023 15.2435C292.023 15.3676 291.992 15.4684 291.937 15.5459C291.883 15.6234 291.806 15.6855 291.712 15.7165C291.612 15.7475 291.371 15.763 290.984 15.763L290.976 15.7708ZM291.061 12.2196C288.89 12.2196 287.122 13.9874 287.122 16.1584C287.122 18.3294 288.89 20.0972 291.061 20.0972C293.232 20.0972 295 18.3294 295 16.1584C295 13.9874 293.232 12.2196 291.061 12.2196ZM291.061 19.4615C289.239 19.4615 287.758 17.9805 287.758 16.1584C287.758 14.3363 289.239 12.8554 291.061 12.8554C292.883 12.8554 294.364 14.3363 294.364 16.1584C294.364 17.9805 292.883 19.4615 291.061 19.4615ZM109.232 30.4483H92.1046C89.2513 30.4483 87.8247 29.0216 87.8247 26.1683C87.8247 23.315 89.2513 21.8883 92.1046 21.8883H114.644L118.451 13.3284H92.0969C83.5369 13.3284 79.257 17.6084 79.257 26.1683C79.257 34.7282 83.5369 39.0082 92.0969 39.0082H109.225C112.078 39.0082 113.504 40.4349 113.504 43.2882C113.504 46.1415 112.078 47.5681 109.225 47.5681H78.877V56.1281H109.225C117.784 56.1281 122.064 51.8481 122.064 43.2882C122.064 34.7282 117.784 30.4483 109.225 30.4483H109.232ZM157.754 48.2892H138.13C135.517 48.2892 134.206 46.9789 134.206 44.3659V36.5193C134.206 33.9064 135.517 32.596 138.13 32.596H154.412L157.746 25.0983V24.7494H138.122C130.275 24.7494 126.352 28.6727 126.352 36.5193V44.3659C126.352 52.2125 130.275 56.1358 138.122 56.1358H157.746V48.2892H157.754ZM217.332 24.7416H202.919L199.43 32.5882H217.332C219.945 32.5882 221.256 33.8753 221.256 36.4418V36.5116H207.555C200.988 36.5116 197.708 39.7215 197.708 46.1415C197.708 52.5614 200.988 56.1281 207.555 56.1281H229.102V36.5038C229.102 28.6572 225.179 24.7339 217.332 24.7339V24.7416ZM221.256 48.2892H207.555C206.222 48.2892 205.555 47.6224 205.555 46.2888C205.555 44.9552 206.222 44.3659 207.555 44.3659H221.256V48.2892Z" fill="url(#paint0_linear_1110_122)"/>
<path d="M82.8158 67.7121H85.5683V68.0223C85.5683 68.7201 85.4985 69.2551 85.359 69.6272C85.2194 69.9994 84.9635 70.263 84.5991 70.4259C84.2347 70.5887 83.6997 70.6662 82.9941 70.6662C82.4669 70.6662 82.0327 70.6197 81.7148 70.5267C81.3891 70.4336 81.1333 70.263 80.9472 70.0149C80.7611 69.7668 80.6215 69.4179 80.544 68.9604C80.4665 68.5107 80.4277 67.8982 80.4277 67.1383C80.4277 66.3785 80.4665 65.7737 80.5517 65.3163C80.6293 64.8588 80.7688 64.5021 80.9549 64.2463C81.141 63.9904 81.3969 63.8121 81.7148 63.719C82.0327 63.626 82.4669 63.5717 83.0019 63.5717C83.7307 63.5717 84.2657 63.6182 84.6146 63.719C84.9635 63.8198 85.1961 63.9904 85.3279 64.2308C85.4598 64.4711 85.5373 64.8433 85.5761 65.3395H86.5065C86.4522 64.6572 86.3359 64.1455 86.1731 63.7888C86.0103 63.4321 85.6769 63.1685 85.1961 62.9979C84.7154 62.8196 83.9866 62.7343 83.0019 62.7343C82.2885 62.7343 81.6993 62.8118 81.2496 62.9592C80.7999 63.1065 80.4432 63.3468 80.1796 63.6802C79.916 64.0137 79.7299 64.4634 79.6213 65.0139C79.5128 65.5721 79.4585 66.2777 79.4585 67.1383C79.4585 67.999 79.5128 68.7123 79.6213 69.2628C79.7299 69.8133 79.9082 70.2553 80.1641 70.5809C80.4199 70.9066 80.7766 71.1469 81.2341 71.2865C81.6915 71.4338 82.2808 71.5036 83.0019 71.5036C83.723 71.5036 84.2812 71.4493 84.7309 71.3408C85.1806 71.2322 85.5295 71.0461 85.7932 70.7903C86.0568 70.5267 86.2429 70.17 86.3592 69.7048C86.4755 69.2396 86.5297 68.6348 86.5297 67.8904V66.8902H82.808V67.7199L82.8158 67.7121ZM89.3831 71.4106H94.8958V70.5499H90.3368V67.4252H94.7098V66.5878H90.3368V63.657H94.9191V62.8041H89.3831V71.4028V71.4106ZM102.037 62.8119H97.9508V71.4106H98.9044V67.968H101.82C102.192 67.968 102.502 68.0145 102.742 68.1075C102.983 68.2006 103.161 68.3557 103.285 68.5728C103.409 68.7899 103.464 69.0845 103.464 69.4567V71.4106H104.425V69.2318C104.425 68.2006 103.975 67.6501 103.068 67.588C103.51 67.5028 103.836 67.3632 104.053 67.1616C104.27 66.96 104.402 66.7119 104.456 66.4328C104.51 66.1459 104.541 65.7815 104.549 65.3318C104.549 64.4401 104.34 63.7966 103.929 63.4089C103.518 63.0134 102.89 62.8196 102.037 62.8196V62.8119ZM103.386 66.5413C103.262 66.7739 103.06 66.9368 102.797 67.022C102.533 67.1073 102.169 67.1538 101.711 67.1538H98.8967V63.6725H102.029C102.394 63.6725 102.688 63.7345 102.913 63.8663C103.138 63.9981 103.308 64.1997 103.409 64.4711C103.51 64.7425 103.564 65.0992 103.564 65.5334C103.564 65.9676 103.502 66.3087 103.371 66.5413H103.386ZM112.419 70.1855L109.387 62.8041H107.79V71.4183H108.744V63.5872L112.016 71.4183H112.845L116.094 63.5097V71.4183H117.048V62.8041H115.474L112.419 70.1855ZM123.127 62.8119L119.986 71.4106H121.018L121.708 69.6427H126.05L126.693 71.4106H127.717L124.514 62.8119H123.127ZM121.94 68.8054L123.832 63.5252L125.74 68.8054H121.94ZM136.912 70.6662L132.066 62.8119H130.547V71.4106H131.5V63.6337L136.346 71.4106H137.858V62.8119H136.905V70.6662H136.912ZM152.613 67.1151C152.613 66.1614 152.559 65.4093 152.443 64.8433C152.334 64.2773 152.14 63.8431 151.877 63.5407C151.613 63.2305 151.249 63.0212 150.791 62.9049C150.334 62.7886 149.721 62.7266 148.938 62.7266C148.155 62.7266 147.581 62.7886 147.132 62.9049C146.682 63.0212 146.318 63.2383 146.062 63.5484C145.798 63.8586 145.612 64.2928 145.503 64.8588C145.395 65.4248 145.341 66.1769 145.341 67.1073C145.341 68.0378 145.395 68.8054 145.503 69.3636C145.612 69.9219 145.798 70.3561 146.062 70.6662C146.325 70.9764 146.682 71.1935 147.139 71.3175C147.597 71.4416 148.202 71.4958 148.954 71.4958C149.372 71.4958 149.737 71.4881 150.039 71.4648C150.342 71.4493 150.621 71.4028 150.877 71.3408C151.132 71.2787 151.357 71.1857 151.567 71.0616C151.776 70.9376 151.962 70.7748 152.14 70.5654L152.784 70.9996L153.179 70.3406L152.458 69.8443C152.567 69.5109 152.621 68.5883 152.621 67.0918L152.613 67.1151ZM151.605 69.3093L149.117 67.6656L148.682 68.3401L151.357 70.0769C151.226 70.2398 151.063 70.3716 150.869 70.4491C150.675 70.5344 150.435 70.5887 150.148 70.6119C149.861 70.6352 149.465 70.6507 148.961 70.6507C148.349 70.6507 147.868 70.6042 147.535 70.5189C147.201 70.4259 146.946 70.263 146.767 70.0227C146.589 69.7823 146.473 69.4412 146.411 68.9914C146.349 68.5495 146.318 67.9215 146.318 67.1151C146.318 66.3087 146.349 65.6729 146.411 65.231C146.473 64.7813 146.589 64.4401 146.759 64.1997C146.93 63.9594 147.186 63.7888 147.519 63.7035C147.853 63.6182 148.333 63.5717 148.946 63.5717C149.559 63.5717 150.047 63.6182 150.388 63.7035C150.729 63.7888 150.993 63.9516 151.179 64.192C151.365 64.4323 151.489 64.7735 151.551 65.2232C151.621 65.6729 151.652 66.301 151.652 67.1228C151.652 68.4332 151.636 69.162 151.605 69.3171V69.3093ZM161.763 68.8364C161.763 69.3791 161.701 69.7746 161.584 70.0227C161.468 70.2708 161.243 70.4336 160.91 70.5189C160.576 70.6042 160.049 70.643 159.32 70.643C158.591 70.643 158.072 70.6042 157.746 70.5189C157.421 70.4336 157.196 70.2708 157.079 70.0227C156.963 69.7746 156.901 69.3791 156.901 68.8364V62.8119H155.947V68.8674C155.947 69.4799 156.017 69.9684 156.172 70.3328C156.32 70.6972 156.537 70.9608 156.816 71.1314C157.095 71.302 157.428 71.4106 157.808 71.4571C158.188 71.5036 158.692 71.5269 159.312 71.5269C160.181 71.5269 160.84 71.4803 161.29 71.3795C161.739 71.2787 162.096 71.0384 162.344 70.6585C162.592 70.2785 162.716 69.6815 162.716 68.8751V62.8196H161.763V68.8441V68.8364ZM168.702 62.8119L165.562 71.4106H166.593L167.283 69.6427H171.625L172.269 71.4106H173.292L170.09 62.8119H168.702ZM167.516 68.8054L169.408 63.5252L171.315 68.8054H167.516ZM177.099 62.8119H176.138V71.4106H181.441V70.5422H177.099V62.8119ZM184.209 71.4028H185.186V62.8274H184.209V71.4028ZM187.822 63.688H190.637V71.4183H191.598V63.688H194.39V62.8196H187.822V63.688ZM200.213 66.929L197.607 62.8196H196.537L199.693 67.8284V71.4261H200.655V67.8284L203.903 62.8196H202.81L200.205 66.929H200.213Z" fill="#9A999B"/>
<defs>
<linearGradient id="paint0_linear_1110_122" x1="147.504" y1="0" x2="147.504" y2="72.6277" gradientUnits="userSpaceOnUse">
<stop stop-color="#888887"/>
<stop offset="0.06" stop-color="#ADADAC"/>
<stop offset="0.21" stop-color="white"/>
<stop offset="0.35" stop-color="#BCBCBC"/>
<stop offset="0.45" stop-color="#929292"/>
<stop offset="0.5" stop-color="#828282"/>
<stop offset="0.54" stop-color="#7B7B7B"/>
<stop offset="0.73" stop-color="#595959"/>
<stop offset="0.89" stop-color="#444443"/>
<stop offset="1" stop-color="#3D3D3C"/>
</linearGradient>
</defs>
</svg>
