<?xml version="1.0" encoding="utf-8"?><svg viewBox="0 0 1210 584" xmlns="http://www.w3.org/2000/svg" xmlns:xlink="http://www.w3.org/1999/xlink"><style>:root>svg{display:none}:root>svg:target{display:block}</style><svg fill="none" viewBox="0 0 22 13" id="arrow" xmlns="http://www.w3.org/2000/svg"><g clip-path="url(#aclip0_1110_2999)"><path d="M.66.66l10.23 10.23L21.27 1" stroke="#231F20" stroke-width="1.86" stroke-miterlimit="10"/></g><defs><clipPath id="aclip0_1110_2999"><path fill="#fff" d="M0 0h21.92v12.19H0z"/></clipPath></defs></svg><svg fill="none" viewBox="0 0 1210 584" id="footer-bg" xmlns="http://www.w3.org/2000/svg"><path d="M605 0C270.913 0 0 270.913 0 605s270.913 605 605 605 605-270.913 605-605C1210 270.715 939.087 0 605 0zm0 1078.5c-261.408 0-473.504-211.894-473.504-473.5S343.592 131.496 605 131.496 1078.5 343.394 1078.5 605 866.606 1078.5 605 1078.5zm0-733.323c-143.576 0-259.823 116.445-259.823 259.823S461.622 864.823 605 864.823 864.823 748.378 864.823 605 748.576 345.177 605 345.177zm0 454.492c-107.534 0-194.669-87.135-194.669-194.669S497.466 410.331 605 410.331 799.669 497.466 799.669 605 712.534 799.669 605 799.669zm0-634.705c-242.99 0-440.036 197.046-440.036 440.234S362.01 1045.23 605 1045.23s440.04-197.042 440.04-440.032c0-243.188-197.05-440.234-440.04-440.234zm143.576 94.661c13.467-23.17 43.172-31.091 66.342-17.823 23.17 13.466 31.092 42.974 17.823 66.342-13.466 23.17-43.171 31.092-66.342 17.823-23.17-13.466-31.091-43.172-17.823-66.342zm158.429 345.573c0 166.746-135.259 301.807-301.807 301.807-166.548 0-301.807-135.061-301.807-301.807s135.061-302.005 301.807-302.005 301.807 135.061 301.807 302.005zM605 185.56c26.735 0 48.519 21.784 48.519 48.519 0 26.734-21.784 48.518-48.519 48.518s-48.519-21.784-48.519-48.518c0-26.735 21.784-48.519 48.519-48.519zm-209.72 56.242c23.17-13.466 52.875-5.545 66.342 17.823 13.466 23.17 5.545 52.876-17.823 66.342-23.171 13.467-52.876 5.545-66.342-17.823-13.467-23.17-5.545-52.876 17.823-66.342zM241.604 395.478c13.466-23.17 43.172-31.092 66.342-17.823 23.17 13.466 31.092 43.172 17.823 66.342-13.466 23.17-43.172 31.091-66.342 17.823-23.17-13.466-31.091-43.172-17.823-66.342zm-56.242 209.72c0-26.735 21.784-48.519 48.519-48.519 26.734 0 48.518 21.784 48.518 48.519s-21.784 48.519-48.518 48.519c-26.735 0-48.519-21.784-48.519-48.519zm122.584 227.543c-23.17 13.467-52.876 5.545-66.342-17.823-13.467-23.17-5.545-52.875 17.823-66.342 23.17-13.466 52.876-5.347 66.342 17.823 13.467 23.171 5.545 52.876-17.823 66.342zm153.478 118.03c-13.467 23.17-43.172 31.092-66.342 17.823-23.17-13.466-31.092-42.974-17.823-66.342 13.466-23.17 43.171-31.092 66.342-17.823 23.17 13.466 31.091 42.974 17.823 66.342zM605 1024.64c-26.735 0-48.519-21.79-48.519-48.52 0-26.735 21.784-48.519 48.519-48.519s48.519 21.784 48.519 48.519c0 26.73-21.784 48.52-48.519 48.52zm209.72-56.244c-23.17 13.467-52.875 5.545-66.342-17.823-13.466-23.17-5.545-52.876 17.823-66.342 23.171-13.467 52.876-5.545 66.342 17.823 13.467 23.17 5.545 52.876-17.823 66.342zM968.396 814.72c-13.466 23.17-43.172 31.29-66.342 17.823-23.17-13.466-31.092-43.171-17.823-66.342 13.466-23.17 43.172-31.091 66.342-17.823 23.17 13.467 31.092 43.172 17.823 66.342zM1024.64 605c0 26.735-21.79 48.519-48.52 48.519-26.735 0-48.519-21.784-48.519-48.519s21.784-48.519 48.519-48.519c26.73 0 48.52 21.784 48.52 48.519zm-56.244-209.918c13.467 23.17 5.545 52.875-17.823 66.342-23.17 13.466-52.876 5.347-66.342-17.823-13.467-23.171-5.545-52.876 17.823-66.342 23.17-13.467 52.876-5.347 66.342 17.823z" fill="#fff" fill-opacity=".15"/></svg><svg fill="none" viewBox="0 0 99 96" id="icon-adv-01" xmlns="http://www.w3.org/2000/svg"><path d="M28.31 43.905s.04.05.07.07l9.84 9.84 3.43-3.43-3.7-3.7-1.67-1.68 8.58-8.58 1.13.13c.29.03.58.05.88.05.59 0 1.17-.07 1.74-.2l-6.32-6.32c-.13-.13-.27-.24-.4-.36 1.95-7 .17-14.82-5.33-20.32-5.48-5.47-13.23-7.25-20.19-5.38l11.79 11.79-3.1 11.55-11.55 3.1-11.79-11.79c-1.88 6.96-.09 14.71 5.37 20.17 5.74 5.74 13.99 7.42 21.21 5.06h.01zm34.85 7.06a7.92 7.92 0 00-.14 2.62l.13 1.13-.81.81-6.1 6.1-1.68 1.67-5.38-5.38-3.43 3.43 31.13 31.13a9.79 9.79 0 006.95 2.88c2.52 0 5.03-.96 6.95-2.88a9.826 9.826 0 000-13.9l-27.62-27.62v.01zm24.04 38.3l-4.94 1.32-4.01-4.01 1.32-4.94 4.94-1.32 4.01 4.01-1.32 4.94zm-37.99-34.65l5.38 5.38 6.1-6.1c-.33-2.98.64-6.07 2.92-8.35 2.28-2.28 5.37-3.25 8.35-2.92l26.68-26.68L83.7.995l-26.68 26.68c.33 2.98-.64 6.07-2.92 8.35a10.182 10.182 0 01-8.35 2.92l-6.1 6.1 5.38 5.38-26.36 26.36-.96-.96-5.06 4.08-8.51 13.44 2.17 2.17 13.44-8.51 4.07-5.06-.97-.97 26.36-26.36z" fill="#EC8020"/></svg><svg fill="none" viewBox="0 0 85 114" id="icon-adv-02" xmlns="http://www.w3.org/2000/svg"><g fill="#EC8020"><path d="M61.86 84.285c-.83 0-1.66-.14-2.35-.41l-6.64-2.07-5.25 4.84c-.14.14-.41.28-.55.41l8.3 25.72c.28.83 1.52 1.11 2.07.41l6.08-7.74c.28-.41.83-.55 1.24-.41l9.4 2.77c.97.28 1.8-.55 1.38-1.52l-7.88-24.34c-1.52 1.38-3.59 2.35-5.81 2.35l.01-.01zM10.15 107.655l9.4-2.77c.41-.14.97 0 1.24.42l6.08 7.74c.55.69 1.8.55 2.07-.42l8.3-25.72c-.14-.14-.41-.28-.55-.41l-5.12-4.7-6.64 2.07c-.83.28-1.52.42-2.35.42-2.21 0-4.29-.97-5.81-2.49l-7.88 24.34c-.55.97.28 1.8 1.24 1.52h.02zM59.72 28.795c-3.98-.31-7.24-2.68-8.69-6.2l-.15-.36a9.539 9.539 0 00-8.76-5.8c-3.81 0-7.27 2.33-8.81 5.93l-.09.23a9.973 9.973 0 01-8.51 6.19c-3.87.28-7.09 2.76-8.32 6.32a9.57 9.57 0 002.62 10.22l.31.26c2.92 2.49 4.16 6.34 3.23 10.06l-.09.38c-.6 2.8.1 5.73 1.92 7.98 1.82 2.25 4.51 3.55 7.38 3.55 1.75 0 3.47-.49 4.97-1.41l.24-.15a9.97 9.97 0 0110.47 0l.22.14c1.52.93 3.25 1.43 5.01 1.43 2.98 0 5.83-1.42 7.63-3.81a9.307 9.307 0 001.57-8.06c-.93-3.75.3-7.61 3.23-10.1 3.01-2.46 4.17-6.45 2.98-10.18-1.2-3.76-4.48-6.35-8.35-6.61l-.01-.01zm.82 11.19l-8.27 7.03 2.62 10.48c.55 1.93-1.66 3.59-3.45 2.48l-9.24-5.65-9.24 5.65c-1.79 1.1-3.86-.55-3.45-2.48l2.62-10.48-8.27-7.03c-1.52-1.38-.69-3.86 1.24-4l10.76-.83L40 25.085a2.306 2.306 0 014.28 0l4.14 10.07 10.76.83c2.07.14 2.9 2.76 1.38 4h-.02z"/><path d="M83.29 43.985c1.1-.97 1.1-2.76 0-3.86l-6.62-5.79c-.83-.69-1.1-1.79-.69-2.76l2.9-8.41c.55-1.52-.41-3.03-1.93-3.31l-8.83-1.65c-.97-.14-1.79-.97-1.93-1.93l-1.66-8.83c-.28-1.52-1.79-2.34-3.31-1.93l-8.55 2.76c-.97.28-2.07 0-2.76-.69L43.99.825c-.97-1.1-2.76-1.1-3.86 0l-5.93 6.76c-.69.83-1.79 1.1-2.76.69l-8.41-2.9c-1.52-.55-3.03.41-3.31 1.93l-1.65 8.83c-.14.97-.97 1.79-1.93 1.93l-8.83 1.66c-1.52.28-2.34 1.79-1.93 3.31l2.9 8.41c.28.97 0 2.07-.69 2.76l-6.76 5.92c-1.1.97-1.1 2.76 0 3.86l6.76 5.93c.83.69 1.1 1.79.69 2.76l-2.9 8.41c-.55 1.52.41 3.03 1.93 3.31l8.83 1.65c.97.14 1.79.97 1.93 1.93l1.65 8.83c.28 1.52 1.79 2.34 3.31 1.93l8.41-2.9c.97-.28 2.07 0 2.76.69l5.93 6.76c.97 1.1 2.76 1.1 3.86 0l5.93-6.76c.69-.83 1.79-1.1 2.76-.69l8.41 2.9c1.52.55 3.03-.41 3.31-1.93l1.65-8.83c.14-.97.97-1.79 1.93-1.93l8.83-1.65c1.52-.28 2.34-1.79 1.93-3.31l-2.9-8.41c-.28-.97 0-2.07.69-2.76l6.76-5.93zm-16.97 3.07a8.06 8.06 0 00-2.6 8.13c.9 3.37.21 6.91-1.9 9.71a11.557 11.557 0 01-9.17 4.57c-2.11 0-4.19-.59-6.01-1.71l-.22-.13a8.073 8.073 0 00-8.47 0l-.23.14c-1.81 1.11-3.87 1.7-5.98 1.7-3.45 0-6.69-1.55-8.87-4.26a11.432 11.432 0 01-2.3-9.62l.1-.41c.75-3.01-.25-6.13-2.61-8.14l-.33-.28a11.503 11.503 0 01-3.17-12.29c1.49-4.3 5.37-7.28 9.88-7.6 3.19-.25 5.82-2.16 6.99-5.01l.1-.24c1.86-4.33 6.01-7.11 10.59-7.11s8.71 2.74 10.53 6.98l.15.37a8.057 8.057 0 006.88 5c4.82.32 8.77 3.44 10.21 7.95 1.43 4.48.03 9.29-3.58 12.24l.01.01z"/></g></svg><svg fill="none" viewBox="0 0 123 113" id="icon-adv-03" xmlns="http://www.w3.org/2000/svg"><g fill="#EC8020"><path d="M121.983 57.4c-1.214-7.846-3.962-15.206-7.89-21.778 3.439-3.186 5.597-7.746 5.597-12.776 0-9.64-7.89-17.486-17.584-17.486-5.547 0-10.504 2.582-13.74 6.589a61.42 61.42 0 00-22.811-6.187c-.355 0-.692-.352-.692-.687V3.532c0-1.727-1.214-3.269-2.765-3.437-2.242-.52-4.147 1.207-4.147 3.27V5.09c0 .52-.354.856-.691.856C28.53 7.824 5.164 29.519 1 57.4c-.169 1.543 1.55 2.23 2.428 1.207.876-1.023 2.073-1.894 3.287-2.75 5.361-3.62 12.628-3.436 18.006.168 2.242 1.543 3.81 3.437 5.024 5.5.523 1.039 1.905 1.039 2.428 0 1.045-2.063 2.596-3.79 4.67-5.164 4.501-3.27 12.628-3.622 17.483-.855 1.383.855 2.596 1.726 3.456 2.75.354.351 0 .737 0 1.089.708.436 1.332.889 1.787 1.425.186.184.186.352.186.536v43.859c0 2.046-1.433 3.99-3.574 4.259-2.597.436-4.906-1.509-5.008-4.091 0-.889-.623-1.693-1.517-1.861-1.079-.185-1.972.704-1.972 1.777 0 4.443 3.76 7.997 8.311 7.729 4.114-.268 7.233-3.906 7.233-7.997V61.206c0-.185.084-.352.185-.537.54-.536 1.164-.972 1.872-1.425h-.034c0-.335-.202-.821-.034-1.173 1.046-1.04 2.243-1.895 3.642-2.75 5.361-3.102 12.29-2.75 17.483 1.04 2.074 1.374 3.642 3.269 4.67 5.163.523 1.04 1.905 1.04 2.428 0 1.214-2.23 3.119-4.308 5.715-5.85 4.839-2.935 10.908-3.102 15.916-.52 1.736 1.039 3.287 2.23 4.501 3.436.86 1.04 2.596.168 2.428-1.207l-.017.017zM102.123 8.63c7.873 0 14.296 6.37 14.296 14.217 0 7.846-6.406 14.217-14.296 14.217s-14.297-6.37-14.297-14.217c0-7.846 6.406-14.217 14.297-14.217z"/><path d="M93.238 25.965l6.137 4.878a2.51 2.51 0 001.534.537c.674 0 1.349-.285 1.838-.822l9.812-10.964a2.428 2.428 0 00-.203-3.437c-1.011-.889-2.562-.805-3.456.201l-8.261 9.238-4.316-3.437a2.451 2.451 0 00-3.44.386 2.42 2.42 0 00.389 3.42h-.034z"/></g></svg><svg fill="none" viewBox="0 0 81 105" id="icon-adv-04" xmlns="http://www.w3.org/2000/svg"><g fill="#EC8020"><path d="M49.4 17.055h10.68c2.36 0 4.28 1.92 4.28 4.28v36.75c2.33.45 4.54 1.23 6.6 2.27v-39.03c0-6-4.88-10.87-10.87-10.87H49.41c-1.82 0-3.3 1.48-3.3 3.3 0 1.82 1.48 3.3 3.3 3.3h-.01zM36.16 91.805H10.87c-2.36 0-4.28-1.92-4.28-4.28v-66.2c0-2.36 1.92-4.28 4.28-4.28h11.56c1.82 0 3.3-1.48 3.3-3.3 0-1.82-1.48-3.3-3.3-3.3H10.87C4.88 10.455 0 15.335 0 21.325v66.2c0 6 4.88 10.87 10.87 10.87h29.08a24.812 24.812 0 01-3.79-6.6v.01z"/><path d="M41.36 26.815H29.59c-5.05 0-9.15-4.11-9.15-9.15v-7.51c0-5.05 4.1-9.16 9.15-9.16h11.77c5.05 0 9.15 4.11 9.15 9.15v7.51c0 5.05-4.11 9.15-9.15 9.15v.01zM29.59 7.595c-1.41 0-2.56 1.15-2.56 2.56v7.51c0 1.41 1.15 2.56 2.56 2.56h11.77c1.41 0 2.56-1.15 2.56-2.56v-7.51c0-1.41-1.15-2.56-2.56-2.56H29.59zM59.56 61.455c-11.84 0-21.28 9.62-21.28 21.28 0 11.66 9.62 21.28 21.28 21.28 11.66 0 21.28-9.62 21.28-21.28 0-11.66-9.53-21.28-21.28-21.28zm0 39.89c-10.26 0-18.61-8.35-18.61-18.61s8.35-18.61 18.61-18.61 18.61 8.35 18.61 18.61-8.35 18.61-18.61 18.61z"/><path d="M59.56 66.075c-9.19 0-16.66 7.47-16.66 16.66 0 9.19 7.47 16.66 16.66 16.66 9.19 0 16.66-7.47 16.66-16.66 0-9.19-7.47-16.66-16.66-16.66zm-1.64 25.72c-.68.67-1.77.66-2.44-.02l-7.01-7.15a.827.827 0 010-1.15l2.29-2.29a.82.82 0 011.16 0l4.22 4.28c.32.32.83.32 1.15.01l10.8-10.52c.32-.31.83-.31 1.15 0l2.29 2.29c.32.32.32.84 0 1.16l-13.6 13.38-.01.01zM51.1 42.495H19.85c-2.29 0-4.15-1.86-4.15-4.15s1.86-4.15 4.15-4.15h31.26c2.29 0 4.15 1.86 4.15 4.15s-1.86 4.15-4.15 4.15h-.01zM51.1 56.975H19.85c-2.29 0-4.15-1.86-4.15-4.15s1.86-4.15 4.15-4.15h31.26c2.29 0 4.15 1.86 4.15 4.15s-1.86 4.15-4.15 4.15h-.01z"/></g></svg><svg fill="none" viewBox="0 0 249 62" id="logo" xmlns="http://www.w3.org/2000/svg"><path d="M30.55 0C13.68 0 0 13.68 0 30.55S13.68 61.1 30.55 61.1 61.1 47.42 61.1 30.55C61.1 13.67 47.42 0 30.55 0zm0 54.46c-13.2 0-23.91-10.7-23.91-23.91S17.35 6.64 30.55 6.64s23.91 10.7 23.91 23.91-10.7 23.91-23.91 23.91zm0-37.03c-7.25 0-13.12 5.88-13.12 13.12 0 7.24 5.88 13.12 13.12 13.12 7.24 0 13.12-5.88 13.12-13.12 0-7.24-5.87-13.12-13.12-13.12zm0 22.95c-5.43 0-9.83-4.4-9.83-9.83s4.4-9.83 9.83-9.83 9.83 4.4 9.83 9.83-4.4 9.83-9.83 9.83zm0-32.05c-12.27 0-22.22 9.95-22.22 22.23 0 12.28 9.95 22.22 22.22 22.22s22.22-9.95 22.22-22.22c0-12.28-9.95-22.23-22.22-22.23zm7.25 4.78a2.463 2.463 0 013.35-.9c1.17.68 1.57 2.17.9 3.35a2.463 2.463 0 01-3.35.9 2.463 2.463 0 01-.9-3.35zm8 17.45c0 8.42-6.83 15.24-15.24 15.24s-15.24-6.82-15.24-15.24 6.82-15.25 15.24-15.25S45.8 22.13 45.8 30.56zM30.55 9.37c1.35 0 2.45 1.1 2.45 2.45s-1.1 2.45-2.45 2.45-2.45-1.1-2.45-2.45 1.1-2.45 2.45-2.45zm-10.59 2.84c1.17-.68 2.67-.28 3.35.9.68 1.17.28 2.67-.9 3.35-1.17.68-2.67.28-3.35-.9-.68-1.17-.28-2.67.9-3.35zm-7.76 7.76a2.463 2.463 0 013.35-.9c1.17.68 1.57 2.18.9 3.35a2.463 2.463 0 01-3.35.9 2.463 2.463 0 01-.9-3.35zM9.36 30.56c0-1.35 1.1-2.45 2.45-2.45s2.45 1.1 2.45 2.45-1.1 2.45-2.45 2.45-2.45-1.1-2.45-2.45zm6.19 11.49c-1.17.68-2.67.28-3.35-.9-.68-1.17-.28-2.67.9-3.35 1.17-.68 2.67-.27 3.35.9.68 1.17.28 2.67-.9 3.35zm7.75 5.96a2.463 2.463 0 01-3.35.9 2.461 2.461 0 01-.9-3.35 2.463 2.463 0 013.35-.9c1.17.68 1.57 2.17.9 3.35zm7.25 3.73c-1.35 0-2.45-1.1-2.45-2.45s1.1-2.45 2.45-2.45S33 47.94 33 49.29s-1.1 2.45-2.45 2.45zm10.59-2.84c-1.17.68-2.67.28-3.35-.9-.68-1.17-.28-2.67.9-3.35 1.17-.68 2.67-.28 3.35.9.68 1.17.28 2.67-.9 3.35zm7.76-7.76a2.455 2.455 0 01-3.35.9 2.463 2.463 0 01-.9-3.35 2.463 2.463 0 013.35-.9c1.17.68 1.57 2.18.9 3.35zm2.84-10.59c0 1.35-1.1 2.45-2.45 2.45s-2.45-1.1-2.45-2.45 1.1-2.45 2.45-2.45 2.45 1.1 2.45 2.45zm-2.84-10.6c.68 1.17.28 2.67-.9 3.35-1.17.68-2.67.27-3.35-.9-.68-1.17-.28-2.67.9-3.35 1.17-.68 2.67-.27 3.35.9zm113.84 27.27v-16.5c0-6.6-3.3-9.91-9.91-9.91h-9.91v-9.6h-6.6v36.02h6.6V27.42h9.91c2.2 0 3.3 1.1 3.3 3.3v16.51h6.6l.01-.01zm45.94-36.01h-6.6v9.6h-6.35v6.6h6.35v19.81h6.6v-19.8h4.16l2.94-6.6h-7.1v-9.61zm33.62 9.6h-21.24l-2.94 6.6h13.79l-16.03 13.21v6.6h26.41v-6.6h-16.03l16.03-13.21v-6.6h.01zm3.56-6.8c-.1-.1-.22-.2-.37-.28.3-.04.52-.15.67-.31.15-.16.22-.38.22-.63 0-.2-.05-.38-.15-.54a.808.808 0 00-.4-.33c-.16-.06-.43-.09-.79-.09h-1.44v3.4h.69v-1.42h.14c.16 0 .27.01.35.04.07.03.14.07.21.14.06.07.19.24.36.5l.5.74h.82l-.41-.66c-.16-.26-.29-.45-.39-.55l-.01-.01zm-1.06-.75h-.51v-.86h.54c.28 0 .44 0 .5.01.11.02.2.06.26.13s.09.16.09.28c0 .1-.02.19-.07.25a.38.38 0 01-.19.14c-.08.03-.29.04-.62.04v.01zm.07-2.99c-1.83 0-3.31 1.49-3.31 3.31a3.32 3.32 0 003.31 3.31 3.32 3.32 0 003.31-3.31 3.32 3.32 0 00-3.31-3.31zm0 6.1c-1.53 0-2.78-1.25-2.78-2.78 0-1.53 1.25-2.78 2.78-2.78 1.53 0 2.78 1.25 2.78 2.78 0 1.53-1.25 2.78-2.78 2.78zM91.9 25.62H77.49c-2.4 0-3.6-1.2-3.6-3.6 0-2.4 1.2-3.6 3.6-3.6h18.97l3.2-7.2H77.49c-7.2 0-10.81 3.6-10.81 10.81 0 7.21 3.6 10.81 10.81 10.81H91.9c2.4 0 3.6 1.2 3.6 3.6 0 2.4-1.2 3.6-3.6 3.6H66.37v7.2H91.9c7.2 0 10.81-3.6 10.81-10.81 0-7.21-3.6-10.81-10.81-10.81zm40.82 15.01h-16.51c-2.2 0-3.3-1.1-3.3-3.3v-6.6c0-2.2 1.1-3.3 3.3-3.3h13.7l2.81-6.31v-.29h-16.51c-6.6 0-9.91 3.3-9.91 9.91v6.6c0 6.6 3.3 9.91 9.91 9.91h16.51V40.63zm50.13-19.81h-12.13l-2.94 6.6h15.06c2.2 0 3.3 1.08 3.3 3.24v.06h-11.53c-5.52 0-8.28 2.7-8.28 8.1 0 5.4 2.76 8.4 8.28 8.4h18.13v-16.5c0-6.6-3.3-9.91-9.91-9.91l.02.01zm3.3 19.81h-11.53c-1.12 0-1.68-.56-1.68-1.68 0-1.12.56-1.62 1.68-1.62h11.53v3.3zM69.68 56.97H72v.26c0 .59-.06 1.04-.18 1.35-.12.31-.33.54-.64.67s-.76.2-1.35.2c-.45 0-.81-.04-1.08-.12-.27-.08-.49-.22-.65-.43-.16-.21-.27-.5-.34-.89-.07-.38-.1-.89-.1-1.53s.03-1.15.1-1.54c.07-.39.18-.69.34-.9.16-.21.37-.36.64-.45.27-.09.63-.13 1.08-.13.61 0 1.06.04 1.35.12.29.08.49.23.6.43.11.2.18.52.21.94h.78c-.05-.57-.14-1.01-.28-1.3-.14-.29-.42-.52-.82-.67-.41-.15-1.02-.22-1.84-.22-.6 0-1.09.06-1.47.19-.38.12-.68.33-.9.61-.22.28-.38.66-.47 1.13-.09.47-.14 1.07-.14 1.79s.04 1.32.13 1.79c.09.46.24.83.46 1.11.22.28.52.47.9.59s.88.18 1.49.18 1.07-.05 1.45-.14c.38-.09.67-.25.9-.47.22-.22.38-.52.48-.91.1-.39.15-.9.15-1.53v-.84h-3.13v.7l.01.01zm5.53 3.11h4.64v-.72h-3.83v-2.63h3.68v-.71h-3.68v-2.46h3.85v-.72h-4.66v7.24zm10.64-7.24h-3.44v7.24h.8v-2.9h2.45c.32 0 .57.04.78.12.2.08.35.21.45.39.1.18.15.43.15.75v1.64h.81v-1.83c0-.87-.38-1.33-1.14-1.38.37-.07.65-.19.83-.36.18-.17.29-.38.34-.62.05-.24.07-.55.08-.93 0-.75-.18-1.29-.52-1.62-.34-.33-.87-.5-1.59-.5zm1.13 3.14c-.11.2-.27.33-.49.4-.22.07-.53.11-.91.11h-2.37v-2.93h2.64c.31 0 .55.05.74.16.19.11.33.28.42.51.09.23.13.53.13.89s-.05.65-.16.85v.01zm7.6 3.07l-2.55-6.21h-1.34v7.25h.8V53.5l2.75 6.59h.7l2.73-6.66v6.66h.8v-7.25h-1.32l-2.57 6.21zm9.01-6.2l-2.64 7.24h.87l.58-1.49h3.65l.54 1.49h.86l-2.7-7.24h-1.17.01zm-1 5.04l1.59-4.44 1.6 4.44h-3.2.01zm12.6 1.57l-4.08-6.61h-1.28v7.24h.8v-6.54l4.08 6.54h1.27v-7.24h-.8v6.61h.01zm13.21-2.99c0-.8-.05-1.44-.14-1.91-.09-.47-.25-.84-.48-1.1-.22-.26-.53-.44-.91-.53-.38-.09-.9-.15-1.56-.15s-1.14.05-1.52.15c-.38.1-.68.28-.9.54-.22.26-.38.63-.47 1.1-.09.48-.14 1.11-.14 1.89 0 .78.05 1.43.14 1.9.09.47.25.84.47 1.1.22.26.52.44.91.54.38.1.89.15 1.53.15.35 0 .66 0 .91-.02.26-.02.49-.05.7-.1.21-.05.41-.13.58-.23.17-.1.33-.24.48-.42l.54.37.33-.55-.61-.42c.09-.28.13-1.06.13-2.32l.01.01zm-.85 1.84l-2.1-1.38-.37.57 2.25 1.46c-.11.14-.25.24-.41.31-.17.07-.37.11-.61.14-.24.03-.57.03-1 .03-.52 0-.92-.04-1.2-.11-.28-.08-.5-.22-.65-.42-.15-.2-.25-.49-.3-.86-.05-.37-.08-.9-.08-1.58s.02-1.21.08-1.59c.05-.38.15-.67.29-.87.15-.2.36-.34.64-.42.28-.07.68-.11 1.2-.11.52 0 .93.04 1.21.11.29.07.51.21.67.41.15.2.26.49.32.87s.08.91.08 1.6c0 1.1-.01 1.72-.04 1.84h.02zm8.55-.4c0 .46-.05.79-.15 1-.1.21-.29.35-.56.42-.27.07-.72.1-1.33.1-.61 0-1.05-.03-1.33-.1s-.46-.21-.56-.42c-.1-.21-.15-.54-.15-1v-5.07h-.8v5.09c0 .52.06.93.19 1.23.12.3.3.53.54.67.24.14.51.23.84.27.32.04.74.06 1.27.06.73 0 1.28-.04 1.67-.13.39-.09.68-.29.88-.61.2-.32.31-.82.31-1.5v-5.09h-.8v5.07l-.02.01zm5.84-5.07l-2.64 7.24h.87l.58-1.49h3.65l.54 1.49h.86l-2.7-7.24h-1.17.01zm-1 5.04l1.59-4.44 1.6 4.44h-3.2.01zm8.06-5.04h-.81v7.24h4.46v-.73H149v-6.51zm5.98 7.23h.82v-7.22h-.82v7.22zm3.04-6.49h2.37v6.5h.81v-6.5h2.35v-.73h-5.53v.73zm10.43 2.72l-2.19-3.46h-.9l2.66 4.21v3.02h.81v-3.02l2.74-4.21h-.92l-2.19 3.46h-.01z" fill="#000"/></svg><svg fill="none" viewBox="0 0 295 73" id="logo2" xmlns="http://www.w3.org/2000/svg"><path d="M36.318 0C16.259 0 0 16.26 0 36.318c0 20.058 16.26 36.317 36.318 36.317 20.058 0 36.317-16.259 36.317-36.317C72.635 16.259 56.376 0 36.318 0zm0 64.734C20.625 64.734 7.9 52.011 7.9 36.319S20.625 7.9 36.318 7.9c15.693 0 28.416 12.724 28.416 28.417 0 15.693-12.723 28.416-28.416 28.416zm0-44.016c-8.614 0-15.6 6.985-15.6 15.6 0 8.614 6.985 15.6 15.6 15.6 8.614 0 15.592-6.986 15.592-15.6s-6.986-15.6-15.592-15.6zm0 27.277c-6.451 0-11.677-5.234-11.677-11.677s5.226-11.685 11.677-11.685c6.45 0 11.677 5.226 11.677 11.685 0 6.458-5.226 11.677-11.677 11.677zm0-38.101C21.733 9.894 9.9 21.718 9.9 36.31s11.825 26.416 26.417 26.416c14.592 0 26.416-11.824 26.416-26.416S50.91 9.894 36.318 9.894zm8.614 5.675a2.917 2.917 0 013.977-1.07 2.915 2.915 0 011.07 3.978 2.917 2.917 0 01-3.977 1.07 2.908 2.908 0 01-1.062-3.978h-.008zm9.506 20.741c0 10.01-8.11 18.12-18.12 18.12-10.01 0-18.12-8.11-18.12-18.12 0-10.01 8.11-18.12 18.12-18.12 10.01 0 18.12 8.11 18.12 18.12zm-18.12-25.176a2.912 2.912 0 012.915 2.915 2.912 2.912 0 01-2.915 2.916 2.912 2.912 0 01-2.916-2.915 2.912 2.912 0 012.916-2.916zm-12.592 3.373a2.91 2.91 0 112.915 5.04 2.908 2.908 0 01-3.977-1.07 2.91 2.91 0 011.07-3.978l-.008.008zm-9.22 9.219a2.915 2.915 0 013.979-1.07 2.908 2.908 0 011.062 3.978 2.917 2.917 0 01-3.978 1.07 2.915 2.915 0 01-1.07-3.978h.008zm-3.372 12.592a2.917 2.917 0 012.915-2.916 2.917 2.917 0 012.916 2.916 2.912 2.912 0 01-2.915 2.915 2.912 2.912 0 01-2.916-2.915zm7.358 13.662a2.906 2.906 0 01-3.977-1.07 2.908 2.908 0 115.04-2.908 2.913 2.913 0 01-1.063 3.977zm9.22 7.086a2.915 2.915 0 01-5.048-2.915 2.908 2.908 0 013.977-1.062 2.906 2.906 0 011.063 3.977h.007zm8.613 4.435a2.912 2.912 0 01-2.915-2.915 2.912 2.912 0 012.916-2.915 2.912 2.912 0 012.915 2.915 2.912 2.912 0 01-2.916 2.915zm12.592-3.372a2.91 2.91 0 111.062-3.978 2.907 2.907 0 01-1.07 3.977h.008zm9.22-9.22a2.924 2.924 0 01-3.986 1.07 2.908 2.908 0 01-1.062-3.977 2.917 2.917 0 013.977-1.07 2.917 2.917 0 011.07 3.977zm3.372-12.591a2.917 2.917 0 01-2.915 2.915 2.917 2.917 0 01-2.916-2.915 2.912 2.912 0 012.916-2.916 2.912 2.912 0 012.915 2.916zm-3.373-12.592a2.908 2.908 0 01-1.07 3.977 2.915 2.915 0 01-2.915-5.047 2.907 2.907 0 013.977 1.07h.008zm135.308 32.41V36.512c0-7.847-3.924-11.77-11.77-11.77h-11.77V13.328h-7.847v42.816h7.847V32.596h11.77c2.613 0 3.923 1.31 3.923 3.923v19.625h7.847v-.008zm54.6-42.815h-7.846v11.413h-7.552v7.846h7.552v23.548h7.846V32.581h4.939l3.49-7.847h-8.436V13.32h.007zm39.955 11.413h-25.246l-3.489 7.846h16.391l-19.051 15.702v7.846h31.395v-7.846h-19.051l19.051-15.701v-7.847zm4.233-8.08a2.234 2.234 0 00-.434-.34c.356-.055.62-.179.798-.373.179-.194.264-.45.264-.752 0-.24-.062-.45-.178-.636a.898.898 0 00-.473-.387c-.194-.07-.512-.109-.938-.109h-1.714v4.04h.814v-1.683h.163c.186 0 .326.016.411.047.085.03.17.085.248.17.078.086.217.28.426.597l.59.877h.977l-.497-.791c-.193-.31-.348-.535-.465-.66h.008zm-1.256-.883h-.605v-1.024h.636c.333 0 .527 0 .597.016a.56.56 0 01.31.155c.07.085.109.194.109.325a.512.512 0 01-.086.303.446.446 0 01-.225.17c-.1.032-.341.047-.728.047l-.008.008zm.085-3.551a3.945 3.945 0 00-3.939 3.938 3.945 3.945 0 003.939 3.94 3.945 3.945 0 003.939-3.94 3.945 3.945 0 00-3.939-3.938zm0 7.242a3.306 3.306 0 01-3.303-3.304 3.306 3.306 0 013.303-3.303 3.306 3.306 0 013.303 3.303 3.306 3.306 0 01-3.303 3.303zM109.232 30.448H92.105c-2.854 0-4.28-1.426-4.28-4.28 0-2.853 1.426-4.28 4.28-4.28h22.539l3.807-8.56H92.097c-8.56 0-12.84 4.28-12.84 12.84 0 8.56 4.28 12.84 12.84 12.84h17.128c2.853 0 4.279 1.427 4.279 4.28 0 2.854-1.426 4.28-4.279 4.28H78.877v8.56h30.348c8.559 0 12.839-4.28 12.839-12.84 0-8.56-4.28-12.84-12.839-12.84h.007zm48.522 17.841H138.13c-2.613 0-3.924-1.31-3.924-3.923v-7.847c0-2.613 1.311-3.923 3.924-3.923h16.282l3.334-7.498v-.349h-19.624c-7.847 0-11.77 3.924-11.77 11.77v7.847c0 7.846 3.923 11.77 11.77 11.77h19.624v-7.847h.008zm59.578-23.547h-14.413l-3.489 7.846h17.902c2.613 0 3.924 1.287 3.924 3.854v.07h-13.701c-6.567 0-9.847 3.21-9.847 9.63 0 6.42 3.28 9.986 9.847 9.986h21.547V36.504c0-7.847-3.923-11.77-11.77-11.77v.008zm3.924 23.547h-13.701c-1.333 0-2-.667-2-2 0-1.334.667-1.923 2-1.923h13.701v3.923z" fill="url(#hpaint0_linear_1110_122)"/><path d="M82.816 67.712h2.752v.31c0 .698-.07 1.233-.209 1.605-.14.372-.395.636-.76.799-.364.163-.9.24-1.605.24-.527 0-.961-.046-1.28-.14a1.412 1.412 0 01-.767-.511c-.186-.248-.326-.597-.403-1.055-.078-.45-.116-1.062-.116-1.822s.038-1.364.124-1.822c.077-.457.217-.814.403-1.07.186-.256.442-.434.76-.527.318-.093.752-.147 1.287-.147.729 0 1.264.046 1.613.147.349.1.581.271.713.512.132.24.21.612.248 1.109h.93c-.054-.683-.17-1.195-.333-1.551-.163-.357-.496-.62-.977-.791-.48-.178-1.21-.264-2.194-.264-.713 0-1.303.078-1.752.225-.45.147-.807.388-1.07.721-.264.334-.45.783-.559 1.334-.108.558-.162 1.264-.162 2.124 0 .861.054 1.574.162 2.125.109.55.287.992.543 1.318.256.326.613.566 1.07.706.458.147 1.047.217 1.768.217.721 0 1.28-.055 1.729-.163.45-.109.799-.295 1.062-.55.264-.264.45-.621.566-1.086.117-.465.17-1.07.17-1.815v-1h-3.721v.83l.008-.008zm6.567 3.699h5.513v-.861h-4.56v-3.125h4.374v-.837h-4.373v-2.931h4.582v-.853h-5.536v8.607zm12.654-8.6h-4.086v8.6h.953v-3.443h2.916c.372 0 .682.046.922.14.241.093.419.248.543.465.124.217.179.512.179.884v1.954h.961v-2.18c0-1.03-.45-1.58-1.357-1.643.442-.085.768-.225.985-.426.217-.202.349-.45.403-.73.054-.286.085-.65.093-1.1 0-.892-.209-1.535-.62-1.923-.411-.396-1.039-.59-1.892-.59v-.007zm1.349 3.73a.991.991 0 01-.589.481c-.264.085-.628.132-1.086.132h-2.814v-3.481h3.132c.365 0 .659.061.884.193.225.132.395.334.496.605.101.272.155.628.155 1.062 0 .435-.062.776-.193 1.008h.015zm9.033 3.645l-3.032-7.382h-1.597v8.614h.954v-7.83l3.272 7.83h.829l3.249-7.908v7.908h.954v-8.614h-1.574l-3.055 7.382zm10.708-7.374l-3.141 8.599h1.032l.69-1.768h4.342l.643 1.768h1.024l-3.203-8.6h-1.387zm-1.187 5.993l1.892-5.28 1.908 5.28h-3.8zm14.972 1.861l-4.846-7.854h-1.519v8.599h.953v-7.777l4.846 7.777h1.512v-8.6h-.953v7.855h.007zm15.701-3.55c0-.955-.054-1.707-.17-2.273-.109-.566-.303-1-.566-1.302-.264-.31-.628-.52-1.086-.636-.457-.116-1.07-.178-1.853-.178-.783 0-1.357.062-1.806.178-.45.116-.814.333-1.07.643-.264.31-.45.745-.559 1.31-.108.567-.162 1.319-.162 2.25 0 .93.054 1.697.162 2.256.109.558.295.992.559 1.302.263.31.62.528 1.077.651.458.125 1.063.179 1.815.179.418 0 .783-.008 1.085-.031.303-.016.582-.062.838-.124.255-.062.48-.155.69-.28a2.27 2.27 0 00.573-.496l.644.435.395-.66-.721-.496c.109-.333.163-1.256.163-2.752l-.008.023zm-1.008 2.193l-2.488-1.643-.435.674 2.675 1.737a1.203 1.203 0 01-.488.372c-.194.085-.434.14-.721.163-.287.023-.683.039-1.187.039-.612 0-1.093-.047-1.426-.132-.334-.093-.589-.256-.768-.496-.178-.24-.294-.582-.356-1.032-.062-.442-.093-1.07-.093-1.876 0-.806.031-1.442.093-1.884.062-.45.178-.79.348-1.031.171-.24.427-.411.76-.497.334-.085.814-.131 1.427-.131.613 0 1.101.046 1.442.131.341.086.605.249.791.489.186.24.31.582.372 1.031.07.45.101 1.078.101 1.9 0 1.31-.016 2.039-.047 2.194v-.008zm10.158-.473c0 .543-.062.939-.179 1.187-.116.248-.341.41-.674.496-.334.085-.861.124-1.59.124-.729 0-1.248-.039-1.574-.124-.325-.085-.55-.248-.667-.496-.116-.248-.178-.644-.178-1.187v-6.024h-.954v6.055c0 .613.07 1.101.225 1.466.148.364.365.628.644.798.279.171.612.28.992.326.38.047.884.07 1.504.07.869 0 1.528-.047 1.978-.148.449-.1.806-.34 1.054-.72.248-.38.372-.978.372-1.784V62.82h-.953v6.024-.008zm6.939-6.024l-3.14 8.599h1.031l.69-1.768h4.342l.644 1.768h1.023l-3.202-8.6h-1.388zm-1.186 5.993l1.892-5.28 1.907 5.28h-3.799zm9.583-5.993h-.961v8.599h5.303v-.869h-4.342v-7.73zm7.11 8.59h.977v-8.575h-.977v8.576zm3.613-7.714h2.815v7.73h.961v-7.73h2.792v-.868h-6.568v.868zm12.391 3.241l-2.606-4.11h-1.07l3.156 5.01v3.597h.962v-3.598l3.248-5.008h-1.093l-2.605 4.109h.008z" fill="#9A999B"/><defs><linearGradient id="hpaint0_linear_1110_122" x1="147.504" y1="0" x2="147.504" y2="72.628" gradientUnits="userSpaceOnUse"><stop stop-color="#888887"/><stop offset=".06" stop-color="#ADADAC"/><stop offset=".21" stop-color="#fff"/><stop offset=".35" stop-color="#BCBCBC"/><stop offset=".45" stop-color="#929292"/><stop offset=".5" stop-color="#828282"/><stop offset=".54" stop-color="#7B7B7B"/><stop offset=".73" stop-color="#595959"/><stop offset=".89" stop-color="#444443"/><stop offset="1" stop-color="#3D3D3C"/></linearGradient></defs></svg><svg fill="none" viewBox="0 0 28 50" id="slider-arrow-left" xmlns="http://www.w3.org/2000/svg"><g clip-path="url(#iclip0_1110_66)"><path d="M26.484 1.506L2.986 24.84l22.717 23.677" stroke="#929292" stroke-width="1.86" stroke-miterlimit="10"/></g><defs><clipPath id="iclip0_1110_66"><path fill="#fff" transform="rotate(90 14 14)" d="M0 0h50v28H0z"/></clipPath></defs></svg><svg fill="none" viewBox="0 0 28 50" id="slider-arrow-right" xmlns="http://www.w3.org/2000/svg"><g clip-path="url(#jclip0_1110_68)"><path d="M1.516 48.494L25.014 25.16 2.297 1.482" stroke="#929292" stroke-width="1.86" stroke-miterlimit="10"/></g><defs><clipPath id="jclip0_1110_68"><path fill="#fff" transform="rotate(-90 25 25)" d="M0 0h50v28H0z"/></clipPath></defs></svg></svg>