<?xml version="1.0" encoding="utf-8"?><svg viewBox="0 0 1210 584" xmlns="http://www.w3.org/2000/svg" xmlns:xlink="http://www.w3.org/1999/xlink"><style>:root>svg{display:none}:root>svg:target{display:block}</style><svg fill="none" viewBox="0 0 22 13" id="arrow" xmlns="http://www.w3.org/2000/svg"><g clip-path="url(#aclip0_1110_2999)"><path d="M.66.66l10.23 10.23L21.27 1" stroke="#231F20" stroke-width="1.86" stroke-miterlimit="10"/></g><defs><clipPath id="aclip0_1110_2999"><path fill="#fff" d="M0 0h21.92v12.19H0z"/></clipPath></defs></svg><svg fill="none" viewBox="0 0 1210 584" id="footer-bg" xmlns="http://www.w3.org/2000/svg"><path d="M605 0C270.913 0 0 270.913 0 605s270.913 605 605 605 605-270.913 605-605C1210 270.715 939.087 0 605 0zm0 1078.5c-261.408 0-473.504-211.894-473.504-473.5S343.592 131.496 605 131.496 1078.5 343.394 1078.5 605 866.606 1078.5 605 1078.5zm0-733.323c-143.576 0-259.823 116.445-259.823 259.823S461.622 864.823 605 864.823 864.823 748.378 864.823 605 748.576 345.177 605 345.177zm0 454.492c-107.534 0-194.669-87.135-194.669-194.669S497.466 410.331 605 410.331 799.669 497.466 799.669 605 712.534 799.669 605 799.669zm0-634.705c-242.99 0-440.036 197.046-440.036 440.234S362.01 1045.23 605 1045.23s440.04-197.042 440.04-440.032c0-243.188-197.05-440.234-440.04-440.234zm143.576 94.661c13.467-23.17 43.172-31.091 66.342-17.823 23.17 13.466 31.092 42.974 17.823 66.342-13.466 23.17-43.171 31.092-66.342 17.823-23.17-13.466-31.091-43.172-17.823-66.342zm158.429 345.573c0 166.746-135.259 301.807-301.807 301.807-166.548 0-301.807-135.061-301.807-301.807s135.061-302.005 301.807-302.005 301.807 135.061 301.807 302.005zM605 185.56c26.735 0 48.519 21.784 48.519 48.519 0 26.734-21.784 48.518-48.519 48.518s-48.519-21.784-48.519-48.518c0-26.735 21.784-48.519 48.519-48.519zm-209.72 56.242c23.17-13.466 52.875-5.545 66.342 17.823 13.466 23.17 5.545 52.876-17.823 66.342-23.171 13.467-52.876 5.545-66.342-17.823-13.467-23.17-5.545-52.876 17.823-66.342zM241.604 395.478c13.466-23.17 43.172-31.092 66.342-17.823 23.17 13.466 31.092 43.172 17.823 66.342-13.466 23.17-43.172 31.091-66.342 17.823-23.17-13.466-31.091-43.172-17.823-66.342zm-56.242 209.72c0-26.735 21.784-48.519 48.519-48.519 26.734 0 48.518 21.784 48.518 48.519s-21.784 48.519-48.518 48.519c-26.735 0-48.519-21.784-48.519-48.519zm122.584 227.543c-23.17 13.467-52.876 5.545-66.342-17.823-13.467-23.17-5.545-52.875 17.823-66.342 23.17-13.466 52.876-5.347 66.342 17.823 13.467 23.171 5.545 52.876-17.823 66.342zm153.478 118.03c-13.467 23.17-43.172 31.092-66.342 17.823-23.17-13.466-31.092-42.974-17.823-66.342 13.466-23.17 43.171-31.092 66.342-17.823 23.17 13.466 31.091 42.974 17.823 66.342zM605 1024.64c-26.735 0-48.519-21.79-48.519-48.52 0-26.735 21.784-48.519 48.519-48.519s48.519 21.784 48.519 48.519c0 26.73-21.784 48.52-48.519 48.52zm209.72-56.244c-23.17 13.467-52.875 5.545-66.342-17.823-13.466-23.17-5.545-52.876 17.823-66.342 23.171-13.467 52.876-5.545 66.342 17.823 13.467 23.17 5.545 52.876-17.823 66.342zM968.396 814.72c-13.466 23.17-43.172 31.29-66.342 17.823-23.17-13.466-31.092-43.171-17.823-66.342 13.466-23.17 43.172-31.091 66.342-17.823 23.17 13.467 31.092 43.172 17.823 66.342zM1024.64 605c0 26.735-21.79 48.519-48.52 48.519-26.735 0-48.519-21.784-48.519-48.519s21.784-48.519 48.519-48.519c26.73 0 48.52 21.784 48.52 48.519zm-56.244-209.918c13.467 23.17 5.545 52.875-17.823 66.342-23.17 13.466-52.876 5.347-66.342-17.823-13.467-23.171-5.545-52.876 17.823-66.342 23.17-13.467 52.876-5.347 66.342 17.823z" fill="#fff" fill-opacity=".15"/></svg><svg fill="none" viewBox="0 0 99 96" id="icon-adv-01" xmlns="http://www.w3.org/2000/svg"><path d="M28.31 43.905s.04.05.07.07l9.84 9.84 3.43-3.43-3.7-3.7-1.67-1.68 8.58-8.58 1.13.13c.29.03.58.05.88.05.59 0 1.17-.07 1.74-.2l-6.32-6.32c-.13-.13-.27-.24-.4-.36 1.95-7 .17-14.82-5.33-20.32-5.48-5.47-13.23-7.25-20.19-5.38l11.79 11.79-3.1 11.55-11.55 3.1-11.79-11.79c-1.88 6.96-.09 14.71 5.37 20.17 5.74 5.74 13.99 7.42 21.21 5.06h.01zm34.85 7.06a7.92 7.92 0 00-.14 2.62l.13 1.13-.81.81-6.1 6.1-1.68 1.67-5.38-5.38-3.43 3.43 31.13 31.13a9.79 9.79 0 006.95 2.88c2.52 0 5.03-.96 6.95-2.88a9.826 9.826 0 000-13.9l-27.62-27.62v.01zm24.04 38.3l-4.94 1.32-4.01-4.01 1.32-4.94 4.94-1.32 4.01 4.01-1.32 4.94zm-37.99-34.65l5.38 5.38 6.1-6.1c-.33-2.98.64-6.07 2.92-8.35 2.28-2.28 5.37-3.25 8.35-2.92l26.68-26.68L83.7.995l-26.68 26.68c.33 2.98-.64 6.07-2.92 8.35a10.182 10.182 0 01-8.35 2.92l-6.1 6.1 5.38 5.38-26.36 26.36-.96-.96-5.06 4.08-8.51 13.44 2.17 2.17 13.44-8.51 4.07-5.06-.97-.97 26.36-26.36z" fill="#EC8020"/></svg><svg fill="none" viewBox="0 0 85 114" id="icon-adv-02" xmlns="http://www.w3.org/2000/svg"><g fill="#EC8020"><path d="M61.86 84.285c-.83 0-1.66-.14-2.35-.41l-6.64-2.07-5.25 4.84c-.14.14-.41.28-.55.41l8.3 25.72c.28.83 1.52 1.11 2.07.41l6.08-7.74c.28-.41.83-.55 1.24-.41l9.4 2.77c.97.28 1.8-.55 1.38-1.52l-7.88-24.34c-1.52 1.38-3.59 2.35-5.81 2.35l.01-.01zM10.15 107.655l9.4-2.77c.41-.14.97 0 1.24.42l6.08 7.74c.55.69 1.8.55 2.07-.42l8.3-25.72c-.14-.14-.41-.28-.55-.41l-5.12-4.7-6.64 2.07c-.83.28-1.52.42-2.35.42-2.21 0-4.29-.97-5.81-2.49l-7.88 24.34c-.55.97.28 1.8 1.24 1.52h.02zM59.72 28.795c-3.98-.31-7.24-2.68-8.69-6.2l-.15-.36a9.539 9.539 0 00-8.76-5.8c-3.81 0-7.27 2.33-8.81 5.93l-.09.23a9.973 9.973 0 01-8.51 6.19c-3.87.28-7.09 2.76-8.32 6.32a9.57 9.57 0 002.62 10.22l.31.26c2.92 2.49 4.16 6.34 3.23 10.06l-.09.38c-.6 2.8.1 5.73 1.92 7.98 1.82 2.25 4.51 3.55 7.38 3.55 1.75 0 3.47-.49 4.97-1.41l.24-.15a9.97 9.97 0 0110.47 0l.22.14c1.52.93 3.25 1.43 5.01 1.43 2.98 0 5.83-1.42 7.63-3.81a9.307 9.307 0 001.57-8.06c-.93-3.75.3-7.61 3.23-10.1 3.01-2.46 4.17-6.45 2.98-10.18-1.2-3.76-4.48-6.35-8.35-6.61l-.01-.01zm.82 11.19l-8.27 7.03 2.62 10.48c.55 1.93-1.66 3.59-3.45 2.48l-9.24-5.65-9.24 5.65c-1.79 1.1-3.86-.55-3.45-2.48l2.62-10.48-8.27-7.03c-1.52-1.38-.69-3.86 1.24-4l10.76-.83L40 25.085a2.306 2.306 0 014.28 0l4.14 10.07 10.76.83c2.07.14 2.9 2.76 1.38 4h-.02z"/><path d="M83.29 43.985c1.1-.97 1.1-2.76 0-3.86l-6.62-5.79c-.83-.69-1.1-1.79-.69-2.76l2.9-8.41c.55-1.52-.41-3.03-1.93-3.31l-8.83-1.65c-.97-.14-1.79-.97-1.93-1.93l-1.66-8.83c-.28-1.52-1.79-2.34-3.31-1.93l-8.55 2.76c-.97.28-2.07 0-2.76-.69L43.99.825c-.97-1.1-2.76-1.1-3.86 0l-5.93 6.76c-.69.83-1.79 1.1-2.76.69l-8.41-2.9c-1.52-.55-3.03.41-3.31 1.93l-1.65 8.83c-.14.97-.97 1.79-1.93 1.93l-8.83 1.66c-1.52.28-2.34 1.79-1.93 3.31l2.9 8.41c.28.97 0 2.07-.69 2.76l-6.76 5.92c-1.1.97-1.1 2.76 0 3.86l6.76 5.93c.83.69 1.1 1.79.69 2.76l-2.9 8.41c-.55 1.52.41 3.03 1.93 3.31l8.83 1.65c.97.14 1.79.97 1.93 1.93l1.65 8.83c.28 1.52 1.79 2.34 3.31 1.93l8.41-2.9c.97-.28 2.07 0 2.76.69l5.93 6.76c.97 1.1 2.76 1.1 3.86 0l5.93-6.76c.69-.83 1.79-1.1 2.76-.69l8.41 2.9c1.52.55 3.03-.41 3.31-1.93l1.65-8.83c.14-.97.97-1.79 1.93-1.93l8.83-1.65c1.52-.28 2.34-1.79 1.93-3.31l-2.9-8.41c-.28-.97 0-2.07.69-2.76l6.76-5.93zm-16.97 3.07a8.06 8.06 0 00-2.6 8.13c.9 3.37.21 6.91-1.9 9.71a11.557 11.557 0 01-9.17 4.57c-2.11 0-4.19-.59-6.01-1.71l-.22-.13a8.073 8.073 0 00-8.47 0l-.23.14c-1.81 1.11-3.87 1.7-5.98 1.7-3.45 0-6.69-1.55-8.87-4.26a11.432 11.432 0 01-2.3-9.62l.1-.41c.75-3.01-.25-6.13-2.61-8.14l-.33-.28a11.503 11.503 0 01-3.17-12.29c1.49-4.3 5.37-7.28 9.88-7.6 3.19-.25 5.82-2.16 6.99-5.01l.1-.24c1.86-4.33 6.01-7.11 10.59-7.11s8.71 2.74 10.53 6.98l.15.37a8.057 8.057 0 006.88 5c4.82.32 8.77 3.44 10.21 7.95 1.43 4.48.03 9.29-3.58 12.24l.01.01z"/></g></svg><svg fill="none" viewBox="0 0 123 113" id="icon-adv-03" xmlns="http://www.w3.org/2000/svg"><g fill="#EC8020"><path d="M121.983 57.4c-1.214-7.846-3.962-15.206-7.89-21.778 3.439-3.186 5.597-7.746 5.597-12.776 0-9.64-7.89-17.486-17.584-17.486-5.547 0-10.504 2.582-13.74 6.589a61.42 61.42 0 00-22.811-6.187c-.355 0-.692-.352-.692-.687V3.532c0-1.727-1.214-3.269-2.765-3.437-2.242-.52-4.147 1.207-4.147 3.27V5.09c0 .52-.354.856-.691.856C28.53 7.824 5.164 29.519 1 57.4c-.169 1.543 1.55 2.23 2.428 1.207.876-1.023 2.073-1.894 3.287-2.75 5.361-3.62 12.628-3.436 18.006.168 2.242 1.543 3.81 3.437 5.024 5.5.523 1.039 1.905 1.039 2.428 0 1.045-2.063 2.596-3.79 4.67-5.164 4.501-3.27 12.628-3.622 17.483-.855 1.383.855 2.596 1.726 3.456 2.75.354.351 0 .737 0 1.089.708.436 1.332.889 1.787 1.425.186.184.186.352.186.536v43.859c0 2.046-1.433 3.99-3.574 4.259-2.597.436-4.906-1.509-5.008-4.091 0-.889-.623-1.693-1.517-1.861-1.079-.185-1.972.704-1.972 1.777 0 4.443 3.76 7.997 8.311 7.729 4.114-.268 7.233-3.906 7.233-7.997V61.206c0-.185.084-.352.185-.537.54-.536 1.164-.972 1.872-1.425h-.034c0-.335-.202-.821-.034-1.173 1.046-1.04 2.243-1.895 3.642-2.75 5.361-3.102 12.29-2.75 17.483 1.04 2.074 1.374 3.642 3.269 4.67 5.163.523 1.04 1.905 1.04 2.428 0 1.214-2.23 3.119-4.308 5.715-5.85 4.839-2.935 10.908-3.102 15.916-.52 1.736 1.039 3.287 2.23 4.501 3.436.86 1.04 2.596.168 2.428-1.207l-.017.017zM102.123 8.63c7.873 0 14.296 6.37 14.296 14.217 0 7.846-6.406 14.217-14.296 14.217s-14.297-6.37-14.297-14.217c0-7.846 6.406-14.217 14.297-14.217z"/><path d="M93.238 25.965l6.137 4.878a2.51 2.51 0 001.534.537c.674 0 1.349-.285 1.838-.822l9.812-10.964a2.428 2.428 0 00-.203-3.437c-1.011-.889-2.562-.805-3.456.201l-8.261 9.238-4.316-3.437a2.451 2.451 0 00-3.44.386 2.42 2.42 0 00.389 3.42h-.034z"/></g></svg><svg fill="none" viewBox="0 0 81 105" id="icon-adv-04" xmlns="http://www.w3.org/2000/svg"><g fill="#EC8020"><path d="M49.4 17.055h10.68c2.36 0 4.28 1.92 4.28 4.28v36.75c2.33.45 4.54 1.23 6.6 2.27v-39.03c0-6-4.88-10.87-10.87-10.87H49.41c-1.82 0-3.3 1.48-3.3 3.3 0 1.82 1.48 3.3 3.3 3.3h-.01zM36.16 91.805H10.87c-2.36 0-4.28-1.92-4.28-4.28v-66.2c0-2.36 1.92-4.28 4.28-4.28h11.56c1.82 0 3.3-1.48 3.3-3.3 0-1.82-1.48-3.3-3.3-3.3H10.87C4.88 10.455 0 15.335 0 21.325v66.2c0 6 4.88 10.87 10.87 10.87h29.08a24.812 24.812 0 01-3.79-6.6v.01z"/><path d="M41.36 26.815H29.59c-5.05 0-9.15-4.11-9.15-9.15v-7.51c0-5.05 4.1-9.16 9.15-9.16h11.77c5.05 0 9.15 4.11 9.15 9.15v7.51c0 5.05-4.11 9.15-9.15 9.15v.01zM29.59 7.595c-1.41 0-2.56 1.15-2.56 2.56v7.51c0 1.41 1.15 2.56 2.56 2.56h11.77c1.41 0 2.56-1.15 2.56-2.56v-7.51c0-1.41-1.15-2.56-2.56-2.56H29.59zM59.56 61.455c-11.84 0-21.28 9.62-21.28 21.28 0 11.66 9.62 21.28 21.28 21.28 11.66 0 21.28-9.62 21.28-21.28 0-11.66-9.53-21.28-21.28-21.28zm0 39.89c-10.26 0-18.61-8.35-18.61-18.61s8.35-18.61 18.61-18.61 18.61 8.35 18.61 18.61-8.35 18.61-18.61 18.61z"/><path d="M59.56 66.075c-9.19 0-16.66 7.47-16.66 16.66 0 9.19 7.47 16.66 16.66 16.66 9.19 0 16.66-7.47 16.66-16.66 0-9.19-7.47-16.66-16.66-16.66zm-1.64 25.72c-.68.67-1.77.66-2.44-.02l-7.01-7.15a.827.827 0 010-1.15l2.29-2.29a.82.82 0 011.16 0l4.22 4.28c.32.32.83.32 1.15.01l10.8-10.52c.32-.31.83-.31 1.15 0l2.29 2.29c.32.32.32.84 0 1.16l-13.6 13.38-.01.01zM51.1 42.495H19.85c-2.29 0-4.15-1.86-4.15-4.15s1.86-4.15 4.15-4.15h31.26c2.29 0 4.15 1.86 4.15 4.15s-1.86 4.15-4.15 4.15h-.01zM51.1 56.975H19.85c-2.29 0-4.15-1.86-4.15-4.15s1.86-4.15 4.15-4.15h31.26c2.29 0 4.15 1.86 4.15 4.15s-1.86 4.15-4.15 4.15h-.01z"/></g></svg><svg fill="none" viewBox="0 0 107 107" id="icon-inner-01" xmlns="http://www.w3.org/2000/svg"><path d="M89.56 73.22c-1.256-.286-2.5-.614-3.75-.918-.945-.227-1.931-.346-2.84-.675-1.992-.704-3.57-2.941-3.48-5.036.071-1.623.227-3.246.346-4.863.006-.107.054-.209.066-.316.06-.83.215-1.665.15-2.482a42.732 42.732 0 00-.58-4.267c-.258-1.402-.599-2.792-.951-4.177-.569-2.25-1.436-4.385-2.548-6.426-1.304-2.387-2.96-4.505-4.79-6.504-2.296-2.512-4.987-4.499-7.858-6.307-1.967-1.241-4.246-1.587-6.285-2.572-.227-.107-.454-.262-.694-.31a140.291 140.291 0 00-3.51-.68c-1.19-.215-2.392-.585-3.582-.585-2.5 0-5.005.173-7.505.322-1.13.066-2.195-.024-3.211-.555-2.386-1.247-2.972-3.532-3.409-5.89-.173-.93-.221-1.879-.353-2.822a27.199 27.199 0 00-.358-2.088c-.174-.811-.431-1.611-.592-2.428-.168-.854-.264-1.719-.425-2.799-2.093.96-3.983 1.927-5.956 2.697-2.23.871-4.18 2.202-6.13 3.52-1.291.872-2.493 1.874-3.707 2.853-2.721 2.19-5.066 4.744-7.152 7.53a81.88 81.88 0 00-3.11 4.475c-.772 1.194-1.52 2.417-2.105 3.706-.855 1.88-1.579 3.819-2.326 5.746-.455 1.181-.945 2.363-1.244 3.592a53.595 53.595 0 00-1.023 5.412c-.287 2.077-.514 4.165-.61 6.26-.131 2.828.078 5.65.61 8.443.132.68.215 1.372.347 2.058.227 1.17.377 2.37.73 3.503a63.863 63.863 0 001.877 5.185 66.473 66.473 0 002.16 4.75 42.115 42.115 0 002.08 3.681c.574.901 1.268 1.73 1.926 2.578.58.752 1.16 1.504 1.776 2.226 1.25 1.462 2.404 3.031 3.821 4.314 1.98 1.79 4.144 3.39 6.273 5.018a26.618 26.618 0 003.122 2.089c1.166.656 2.404 1.199 3.636 1.736 1.967.859 3.91 1.796 5.944 2.464 2.021.663 4.126 1.11 6.22 1.51 1.895.364 3.826.704 5.752.77 2.673.095 5.358.024 8.025-.161a36.505 36.505 0 005.735-.872c2.081-.483 4.138-1.139 6.147-1.855 1.938-.692 3.882-1.438 5.694-2.399 2.129-1.122 4.174-2.428 6.159-3.789 1.573-1.074 3.02-2.327 4.497-3.538 2.9-2.387 5.322-5.221 7.427-8.3 1.436-2.107 2.655-4.362 3.893-6.594.64-1.152 1.124-2.393 1.633-3.61.197-.471.269-.996.4-1.522-1.542-.256-2.942-.489-4.347-.727-.676-.114-1.352-.215-2.015-.364v-.006zM15.43 45.368c0 .805-.956 1.659-1.847 1.635-.85-.018-1.68-.806-1.668-1.635.018-.8.556-1.778 1.758-1.641.986.006 1.764.728 1.758 1.635v.006zm-5.465-5.388c.072-1.26.885-1.773 1.782-1.707 1.095.078 1.728.728 1.62 1.844-.035 1.068-.759 1.742-1.823 1.694-.903-.035-1.639-.87-1.585-1.837l.006.006zm2.386 38.32c-.897.017-1.83-.818-1.818-1.677.012-.931.891-1.934 1.746-1.73.975 0 1.699.703 1.717 1.676.012.913-.742 1.713-1.645 1.73zM14.05 50.7c-.017-.984.772-1.766 1.789-1.76.915 0 1.853.877 1.871 1.73.018.83-.992 1.749-1.901 1.737-.987-.012-1.74-.74-1.758-1.707zm3.696 29.53c-.658 0-1.854-1.228-1.884-1.938-.03-.812.993-1.79 1.86-1.779.933.012 1.639.812 1.633 1.856 0 .782-.933 1.856-1.609 1.862zm.347-22.363c-.897 0-1.674-.854-1.674-1.832 0-.99.741-1.749 1.698-1.743.915.006 1.83.883 1.854 1.773.024.912-.91 1.802-1.884 1.802h.006zm16.206-32.765c.909.012 1.788.86 1.788 1.724 0 .961-.85 1.844-1.788 1.844-.963 0-1.794-.835-1.794-1.808 0-.925.867-1.778 1.794-1.76zm-2.853 5.12c1.089.012 1.717.644 1.717 1.73 0 1.02-.718 1.73-1.746 1.737-.951.005-1.854-.866-1.83-1.773.024-.877.933-1.706 1.86-1.694zm-8.174 51.333c-1.137-.065-1.657-.543-1.657-1.724 0-1.05.652-1.766 1.639-1.79.897-.024 1.776.853 1.752 1.79-.03 1.122-.831 1.772-1.734 1.718v.006zm5.669 1.6c-.88-.03-1.8-.907-1.794-1.785.006-.93.879-1.796 1.812-1.784.903.006 1.62.77 1.626 1.725.006 1.02-.741 1.873-1.65 1.844h.006zm12.6 17.166c-.843 0-1.824-.9-1.848-1.694-.024-.847.885-1.73 1.806-1.743 1.053-.011 1.776.65 1.806 1.66.03.99-.742 1.777-1.764 1.777zm4.628-3.186c-.849-.006-1.65-.847-1.656-1.742-.012-1.015.682-1.713 1.692-1.707 1.029 0 1.758.716 1.746 1.719-.012.942-.83 1.742-1.782 1.736v-.006zm4.689-3.437c-1.07-.006-1.669-.656-1.65-1.79.023-1.128.567-1.629 1.763-1.623 1.059.006 1.573.567 1.561 1.695-.012 1.14-.586 1.724-1.68 1.718h.006zm4.676-3.425c-.76.012-1.884-.889-1.734-1.88 0-.853.861-1.67 1.764-1.67.945 0 1.842.841 1.812 1.754-.03 1.02-.933 1.784-1.836 1.796h-.006zm-6.01-7.435C35.207 82.601 24.281 71.615 24.3 57.522c.018-13.551 10.89-25.038 25.29-25.062 13.886-.024 25.29 11.582 25.176 25.324-.114 13.861-11.368 24.96-25.242 25.055zm27.455 8.11c-.91.011-1.746-.848-1.746-1.79 0-1.003.729-1.785 1.662-1.785 1.034 0 1.632.639 1.638 1.749.007 1.026-.663 1.813-1.554 1.825zm.245-5.812c-1.13-.018-1.68-.597-1.65-1.743.023-.877.878-1.766 1.71-1.683.819.084 1.638.61 1.62 1.832-.012.913-.717 1.737-1.68 1.594zm.203-5.699c-.861-.024-1.674-.841-1.686-1.724-.012-.842.837-1.796 1.662-1.766.778.03 1.776.668 1.752 1.76.144.811-.98 1.754-1.728 1.736v-.006zm.084-5.83c-.939-.06-1.639-.793-1.627-1.826.012-.877.897-1.772 1.746-1.76.724.012 1.567 1.003 1.561 1.838.036.96-.73 1.808-1.674 1.748h-.006zm29.29-17.167c-.377-2.84-.436-5.752-1.082-8.532-.807-3.509-1.92-6.964-3.17-10.341-1.309-3.526-3.127-6.832-5.22-9.989-2.027-3.055-4.162-6.014-6.686-8.682-2.338-2.47-4.862-4.755-7.636-6.73-1.58-1.122-3.2-2.178-4.826-3.234-3.648-2.375-7.607-4.124-11.71-5.544-1.177-.406-2.397-.674-3.6-1.002-1.542-.424-3.079-.895-4.64-1.253a35.095 35.095 0 00-3.773-.645c-1.4-.167-2.81-.262-4.222-.334-1.029-.054-2.057-.012-3.086-.012 0-.048-.006-.095-.012-.143-1.62.155-3.241.4-4.868.436-1.8.041-3.564.208-5.304.668-.694.185-2.177 1.432-2.153 2.124.054 1.641.162 3.288.341 4.917.12 1.074.407 2.13.61 3.198.024.132.018.269.048.4.197.925.425 1.844.598 2.775.15.787.215 1.593.37 2.38.174.89.425 1.76.605 2.65.239 1.17.358 2.375.687 3.514.252.89 1.627 2.13 2.77 2.059 2.445-.15 4.897-.239 7.349-.328.783-.03 1.578-.06 2.35.065 1.519.245 3.038.543 4.533.901 1.644.394 3.319.746 4.873 1.379 1.878.757 3.684 1.736 5.46 2.727 1.13.632 2.195 1.408 3.218 2.213 1.788 1.409 3.57 2.805 5.029 4.607 1.836 2.261 3.54 4.588 4.814 7.208.645 1.33 1.148 2.733 1.68 4.117.449 1.176.91 2.357 1.25 3.568.227.8.24 1.66.37 2.483.204 1.265.593 2.53.599 3.8.018 2.411-.18 4.822-.287 7.233 0 .053.012.119-.018.16-.485.74-.311 1.439-.018 2.226.4 1.098 1.53 2.125 2.679 2.238.723.072 1.441.227 2.153.388.73.167 1.435.423 2.17.567.85.16 1.717.226 2.572.358.616.095 1.232.209 1.842.34.867.19 1.728.412 2.59.608.208.048.424.054.633.102.837.179 1.662.382 2.506.543.741.143 1.519.155 2.23.382 1.98.632 3.881-.191 4.455-2.196.401-1.408.628-2.882.736-4.344.245-3.33.634-6.665.185-10.013l.006-.012zm-60.584-40.79c-2.14.024-3.522-1.885-3.504-3.466.024-1.964 1.848-3.605 3.582-3.455 1.914.006 3.594 1.646 3.606 3.514.012 1.707-1.83 3.39-3.684 3.413v-.006zm48.642 50.183c-2.01-.024-3.445-1.785-3.492-3.563-.054-1.844 1.686-3.443 3.594-3.437 2.26.036 3.426 1.689 3.492 3.467.06 1.718-1.363 3.556-3.594 3.532zM50.6 34.847c-13.24-.52-23.927 9.852-23.86 22.806-.037 12.495 9.795 22.662 22.676 22.752 12.558.095 22.802-9.893 22.927-22.669C72.47 45.247 62.16 35.295 50.6 34.841v.006zM36.002 69.64c-2.14-.017-4.222-1.706-4.108-4.254.102-2.333 1.615-3.843 4.168-3.956 2.308.161 3.995 1.486 4.013 4.105.018 2.632-2.111 4.13-4.073 4.111v-.006zm1.83-18.258c-2.194-.03-4.024-1.886-4.024-4.13-.156-2.518 2.218-4.099 4.042-4.11 1.878-.013 4.12 1.55 4.12 4.122 0 2.303-2.158 4.135-4.138 4.111v.007zm14.944 25.64c-2.511-.054-4.084-2.047-4.114-4.1-.03-2.1 1.663-3.968 4.198-4.195 1.92.108 4.096 1.856 4.06 4.147-.035 2.37-1.99 4.195-4.144 4.148zm-3.17-11.296c-4.406.096-8.204-3.676-8.18-8.103.024-4.481 3.923-8.18 8.121-8.055 5.023-.084 8.11 4.099 8.091 8.115-.024 4.564-3.66 7.948-8.037 8.043h.006zm7.243-18.33c-3.505.179-5.22-1.69-5.053-3.974-.246-2.602 2.182-4.19 3.922-4.16 2.147.036 4.109 1.397 4.24 4.166.084 1.825-1.638 3.89-3.11 3.968zm12.36 11.85c-.047 2.005-1.782 4.016-4.168 4.01-2.039-.006-4.012-1.54-4.018-4.028 0-2.214 1.686-4.225 4.078-3.962 2.404-.364 4.144 2.244 4.109 3.986v-.006z" fill="#EC8020"/></svg><svg fill="none" viewBox="0 0 94 148" id="icon-inner-02" xmlns="http://www.w3.org/2000/svg"><path d="M1.4 143.275c-1.083.521-1.537 1.452-1.363 2.536.175 1.11.893 1.763 1.95 2.031a5.57 5.57 0 001.383.153c5.086.01 10.167.005 15.253.005 11.387 0 22.779.016 34.166-.026.818 0 1.77-.216 2.434-.669 1.5-1.015 1.326-3.062-.3-3.946-.65-.353-.782-.747-.782-1.4.016-14.829.01-29.663.01-44.492 0-13.892 0-27.785-.01-41.672 0-.72.105-1.215.85-1.568.882-.415 1.305-1.247 1.22-2.23-.09-1.022-.692-1.748-1.632-2.095-.55-.2-1.172-.253-1.77-.253-8.26-.016-16.525-.01-24.785-.01H3.137c-1.848 0-3.047.947-3.126 2.404-.058 1.053.428 1.832 1.33 2.268.582.285.714.621.714 1.227a94621.75 94621.75 0 00-.006 86.584c0 .542-.084.879-.654 1.153H1.4zm9.322-83.843v-1.163h8.022v79.638h-5.376c-.37 0-.74-.01-1.104.032-1.521.179-1.548.163-1.548-1.326V59.426l.006.006zm37.567-16.524c-1.268-1.705-2.725-3.273-4.067-4.925-.27-.332-.528-.774-.565-1.19-.121-1.441-.618-1.947-2.176-1.952-3.644-.01-7.288 0-10.933 0H15.1c-2.012 0-2.324.3-2.604 2.268-.047.347-.338.7-.602.963-2.292 2.273-4.294 4.747-5.567 7.746-.232.542-.39 1.116-.623 1.779h44.734a12.145 12.145 0 00-2.15-4.689zM71.406 2.647c2.8.384 4.98 1.847 6.575 4.157 1.58 2.294 1.817 4.878 1.427 7.704 3.892-.431 7.209.505 9.739 3.468 1.6 1.873 2.403 4.083 2.35 6.53-.069 3.094-1.326 5.678-3.75 7.641-2.392 1.937-5.176 2.484-8.345 2.063.555 3.72-.174 6.956-2.936 9.503-1.6 1.474-3.507 2.337-5.673 2.484-5.255.358-8.978-2.684-10.441-8.488h-2.345c.08 5.683 5.192 10.63 11.387 11.02 5.54.346 12.152-3.542 12.807-11.84 3.74-.364 6.898-1.89 9.227-4.92 1.79-2.332 2.651-4.974 2.572-7.915-.084-3.247-1.294-6.02-3.517-8.367-1.828-1.931-3.264-2.584-8.26-3.847C81.63 3.705 74.938-.395 69.044.032c-5.783.415-10.71 5.23-11.07 10.977h2.356c1.806-6.152 5.683-9.104 11.075-8.362zM38.053 30.074c-.068-.842-.623-1.3-1.478-1.342-.56-.026-1.125 0-1.78 0V19.98c-4.495.557-8.873 1.094-13.341 1.647v6.93c-1.046.432-2.483-.352-3 .847-.423.98-.338 2.174-.491 3.368h20.106c0-.916.058-1.81-.016-2.694v-.005zm-.433-4.52c1.48.647 3.048 1.105 4.648 1.647.871-1.884.813-3.684.037-5.642-1.616.548-3.137 1.026-4.616 1.595-.248.095-.502.584-.486.879.026.531.106 1.378.423 1.52h-.006zm16.864-2.184v2.01h6.105v-2.01h-6.105zm7.774 10.85c1.939.663 3.819 1.31 5.842 2.005.238-.715.444-1.331.681-2.052-1.949-.668-3.824-1.31-5.815-1.995-.232.674-.454 1.31-.708 2.042zM51.273 20.57c-.248-.705-.46-1.32-.708-2.036l-5.825 1.983.697 2.047c2.007-.684 3.892-1.33 5.841-1.994h-.005zm8.762 10.625c-1.944-.669-3.818-1.31-5.836-2.005-.238.715-.444 1.326-.687 2.052 1.96.673 3.83 1.315 5.815 1.994.238-.684.46-1.32.708-2.041zM44.75 28.253l5.815 1.994.73-2.026c-1.95-.668-3.851-1.32-5.853-2.01-.248.737-.449 1.326-.692 2.042zm6.872-4.873h-6.037v2.02h6.037v-2.02zm10.631-8.825c.243.7.454 1.316.708 2.037 1.949-.663 3.845-1.31 5.82-1.984-.238-.71-.444-1.326-.681-2.042-1.98.674-3.877 1.321-5.847 1.99zm7.6 8.81h-6.052v1.999h6.052v-2zm-10.33-5.747c.163-.063.258-.558.206-.816-.074-.373-.312-.715-.507-1.126-1.875.61-3.755 1.221-5.71 1.853.227.7.423 1.294.687 2.094 1.817-.674 3.58-1.31 5.324-2.01v.005z" fill="#EC8020"/></svg><svg fill="none" viewBox="0 0 98 125" id="icon-inner-03" xmlns="http://www.w3.org/2000/svg"><g fill="#EC8020"><path d="M59.886 19.47h12.947a5.194 5.194 0 015.188 5.188v44.55a30.63 30.63 0 018.001 2.753V24.646c0-7.274-5.916-13.178-13.177-13.178H59.898c-2.206 0-4 1.794-4 4 0 2.207 1.794 4.001 4 4.001h-.012zM43.836 110.086H13.177a5.194 5.194 0 01-5.188-5.188V24.646a5.194 5.194 0 015.188-5.189h14.014c2.207 0 4-1.794 4-4 0-2.207-1.793-4-4-4H13.177C5.916 11.467 0 17.383 0 24.645v80.252c0 7.274 5.916 13.177 13.177 13.177H48.43a30.069 30.069 0 01-4.594-8.001v.012z"/><path d="M50.139 31.3H35.871c-6.122 0-11.093-4.982-11.093-11.091v-9.105C24.778 4.982 29.748 0 35.871 0h14.268c6.122 0 11.092 4.982 11.092 11.092v9.104c0 6.122-4.982 11.093-11.092 11.093v.012zM35.871 8.002a3.11 3.11 0 00-3.104 3.103v9.105a3.11 3.11 0 003.104 3.103h14.268a3.11 3.11 0 003.103-3.103v-9.105a3.11 3.11 0 00-3.103-3.103H35.871zM72.202 73.294c-14.353 0-25.797 11.662-25.797 25.797s11.662 25.797 25.797 25.797C86.338 124.888 98 113.226 98 99.091S86.447 73.294 72.203 73.294zm0 48.357c-12.438 0-22.56-10.122-22.56-22.56 0-12.438 10.122-22.56 22.56-22.56 12.438 0 22.56 10.122 22.56 22.56 0 12.438-10.122 22.56-22.56 22.56z"/><path d="M72.203 78.894c-11.14 0-20.196 9.056-20.196 20.197s9.056 20.196 20.196 20.196c11.141 0 20.197-9.055 20.197-20.196 0-11.14-9.056-20.197-20.197-20.197zm-1.988 31.18a2.09 2.09 0 01-2.958-.024l-8.498-8.668a1.003 1.003 0 010-1.394l2.776-2.776a.995.995 0 011.407 0l5.115 5.188a.992.992 0 001.394.013l13.093-12.754a1.003 1.003 0 011.394 0l2.776 2.777a.995.995 0 010 1.406l-16.487 16.22-.012.012zM61.948 50.31H24.064a5.034 5.034 0 01-5.03-5.032 5.034 5.034 0 015.03-5.03H61.96a5.034 5.034 0 015.03 5.03 5.034 5.034 0 01-5.03 5.031h-.012zM61.948 67.863H24.064a5.034 5.034 0 01-5.03-5.03 5.034 5.034 0 015.03-5.032H61.96a5.034 5.034 0 015.03 5.031 5.034 5.034 0 01-5.03 5.031h-.012z"/></g></svg><svg fill="none" viewBox="0 0 90 121" id="icon-inner-04" xmlns="http://www.w3.org/2000/svg"><g fill="#EC8020"><path d="M65.894 89.79c-.884 0-1.768-.15-2.503-.437l-7.074-2.206-5.592 5.156c-.15.15-.437.299-.586.437l8.842 27.4c.298.884 1.619 1.182 2.205.437l6.477-8.246c.298-.436.884-.586 1.32-.436l10.015 2.95c1.033.299 1.917-.586 1.47-1.619l-8.395-25.93c-1.619 1.47-3.824 2.504-6.19 2.504l.011-.01zM10.807 114.686l10.014-2.951c.437-.149 1.033 0 1.32.448l6.478 8.245c.586.735 1.918.586 2.205-.447l8.842-27.4c-.149-.15-.437-.298-.586-.437l-5.454-5.007-7.074 2.205c-.884.299-1.619.448-2.503.448-2.354 0-4.57-1.034-6.19-2.653l-8.394 25.93c-.586 1.033.298 1.917 1.32 1.619h.022zM63.613 30.675c-4.24-.33-7.712-2.855-9.257-6.604l-.16-.384c-1.608-3.75-5.273-6.179-9.332-6.179-4.059 0-7.745 2.483-9.385 6.318l-.096.245a10.624 10.624 0 01-9.066 6.594c-4.123.298-7.553 2.94-8.863 6.733a10.195 10.195 0 002.79 10.887l.331.277c3.11 2.653 4.432 6.754 3.441 10.717l-.096.405a10.136 10.136 0 002.045 8.5c1.94 2.398 4.805 3.783 7.863 3.783 1.864 0 3.696-.522 5.294-1.502l.256-.16a10.621 10.621 0 0111.154 0l.234.149c1.62.99 3.462 1.523 5.337 1.523 3.175 0 6.21-1.512 8.128-4.058a9.914 9.914 0 001.673-8.587c-.99-3.995.32-8.107 3.44-10.76 3.207-2.62 4.443-6.87 3.175-10.844-1.278-4.006-4.772-6.765-8.895-7.042l-.01-.01zm.874 11.921l-8.81 7.49 2.791 11.164c.586 2.056-1.768 3.824-3.675 2.642l-9.844-6.02-9.843 6.02c-1.907 1.172-4.112-.586-3.676-2.642l2.792-11.165-8.81-7.489c-1.62-1.47-.735-4.112 1.32-4.261l11.463-.884 4.41-10.728a2.456 2.456 0 014.56 0l4.41 10.728 11.463.884c2.205.15 3.09 2.94 1.47 4.261h-.021z"/><path d="M88.724 46.858c1.172-1.034 1.172-2.94 0-4.113l-7.052-6.168c-.885-.735-1.172-1.907-.735-2.94l3.089-8.96c.586-1.619-.437-3.227-2.056-3.525l-9.407-1.758c-1.033-.15-1.907-1.034-2.056-2.056L68.74 7.93c-.298-1.62-1.907-2.493-3.526-2.056l-9.109 2.94c-1.033.299-2.205 0-2.94-.735L46.858.88c-1.034-1.172-2.94-1.172-4.113 0L36.428 8.08c-.735.885-1.907 1.172-2.94.735l-8.96-3.089c-1.619-.586-3.227.437-3.525 2.056l-1.758 9.407c-.15 1.033-1.034 1.907-2.056 2.056l-9.407 1.768c-1.62.298-2.493 1.907-2.056 3.526l3.09 8.96c.298 1.033 0 2.205-.736 2.94L.88 42.745c-1.172 1.034-1.172 2.94 0 4.113l7.201 6.317c.885.735 1.172 1.907.735 2.94l-3.089 8.96c-.586 1.618.437 3.227 2.056 3.525l9.407 1.758c1.033.15 1.907 1.033 2.056 2.056l1.758 9.407c.298 1.62 1.906 2.493 3.526 2.056l8.959-3.09c1.033-.298 2.205 0 2.94.735l6.317 7.202c1.034 1.172 2.94 1.172 4.113 0l6.317-7.202c.735-.884 1.907-1.171 2.94-.735l8.96 3.09c1.618.586 3.227-.437 3.525-2.056l1.758-9.407c.15-1.033 1.033-1.907 2.056-2.056l9.407-1.758c1.62-.298 2.493-1.906 2.056-3.526l-3.09-8.959c-.298-1.033 0-2.205.735-2.94l7.202-6.317zm-18.078 3.27a8.586 8.586 0 00-2.77 8.66 11.96 11.96 0 01-2.024 10.345 12.312 12.312 0 01-9.769 4.868c-2.248 0-4.464-.628-6.402-1.821l-.235-.139a8.6 8.6 0 00-9.023 0l-.245.15a12.167 12.167 0 01-6.37 1.81 12.087 12.087 0 01-9.45-4.538 12.178 12.178 0 01-2.45-10.248l.107-.437a8.595 8.595 0 00-2.78-8.671l-.352-.299a12.254 12.254 0 01-3.377-13.092 12.041 12.041 0 0110.525-8.097c3.398-.266 6.2-2.3 7.446-5.337l.107-.255c1.981-4.613 6.402-7.575 11.281-7.575 4.88 0 9.28 2.92 11.218 7.436l.16.394a8.583 8.583 0 007.33 5.327c5.134.34 9.342 3.664 10.876 8.469 1.523 4.772.032 9.897-3.814 13.04l.01.01z"/></g></svg><svg fill="none" viewBox="0 0 20 17" id="icon-pagination-left" xmlns="http://www.w3.org/2000/svg"><g clip-path="url(#kclip0_1312_1419)"><path d="M19.513.512L11.96 8.446l7.302 8.05" stroke="#231F20" stroke-width="1.86" stroke-miterlimit="10"/></g><g clip-path="url(#kclip1_1312_1419)"><path d="M8.513.512L.96 8.446l7.302 8.05" stroke="#231F20" stroke-width="1.86" stroke-miterlimit="10"/></g><defs><clipPath id="kclip0_1312_1419"><path fill="#fff" transform="rotate(90 10 10)" d="M0 0h17v9H0z"/></clipPath><clipPath id="kclip1_1312_1419"><path fill="#fff" transform="rotate(90 4.5 4.5)" d="M0 0h17v9H0z"/></clipPath></defs></svg><svg fill="none" viewBox="0 0 20 17" id="icon-pagination-right" xmlns="http://www.w3.org/2000/svg"><g clip-path="url(#lclip0_1312_1420)"><path d="M.487 16.488L8.04 8.554.738.504" stroke="#231F20" stroke-width="1.86" stroke-miterlimit="10"/></g><g clip-path="url(#lclip1_1312_1420)"><path d="M11.487 16.488l7.553-7.934-7.302-8.05" stroke="#231F20" stroke-width="1.86" stroke-miterlimit="10"/></g><defs><clipPath id="lclip0_1312_1420"><path fill="#fff" transform="rotate(-90 8.5 8.5)" d="M0 0h17v9H0z"/></clipPath><clipPath id="lclip1_1312_1420"><path fill="#fff" transform="rotate(-90 14 3)" d="M0 0h17v9H0z"/></clipPath></defs></svg><svg fill="none" viewBox="0 0 249 62" id="logo" xmlns="http://www.w3.org/2000/svg"><path d="M30.55 0C13.68 0 0 13.68 0 30.55S13.68 61.1 30.55 61.1 61.1 47.42 61.1 30.55C61.1 13.67 47.42 0 30.55 0zm0 54.46c-13.2 0-23.91-10.7-23.91-23.91S17.35 6.64 30.55 6.64s23.91 10.7 23.91 23.91-10.7 23.91-23.91 23.91zm0-37.03c-7.25 0-13.12 5.88-13.12 13.12 0 7.24 5.88 13.12 13.12 13.12 7.24 0 13.12-5.88 13.12-13.12 0-7.24-5.87-13.12-13.12-13.12zm0 22.95c-5.43 0-9.83-4.4-9.83-9.83s4.4-9.83 9.83-9.83 9.83 4.4 9.83 9.83-4.4 9.83-9.83 9.83zm0-32.05c-12.27 0-22.22 9.95-22.22 22.23 0 12.28 9.95 22.22 22.22 22.22s22.22-9.95 22.22-22.22c0-12.28-9.95-22.23-22.22-22.23zm7.25 4.78a2.463 2.463 0 013.35-.9c1.17.68 1.57 2.17.9 3.35a2.463 2.463 0 01-3.35.9 2.463 2.463 0 01-.9-3.35zm8 17.45c0 8.42-6.83 15.24-15.24 15.24s-15.24-6.82-15.24-15.24 6.82-15.25 15.24-15.25S45.8 22.13 45.8 30.56zM30.55 9.37c1.35 0 2.45 1.1 2.45 2.45s-1.1 2.45-2.45 2.45-2.45-1.1-2.45-2.45 1.1-2.45 2.45-2.45zm-10.59 2.84c1.17-.68 2.67-.28 3.35.9.68 1.17.28 2.67-.9 3.35-1.17.68-2.67.28-3.35-.9-.68-1.17-.28-2.67.9-3.35zm-7.76 7.76a2.463 2.463 0 013.35-.9c1.17.68 1.57 2.18.9 3.35a2.463 2.463 0 01-3.35.9 2.463 2.463 0 01-.9-3.35zM9.36 30.56c0-1.35 1.1-2.45 2.45-2.45s2.45 1.1 2.45 2.45-1.1 2.45-2.45 2.45-2.45-1.1-2.45-2.45zm6.19 11.49c-1.17.68-2.67.28-3.35-.9-.68-1.17-.28-2.67.9-3.35 1.17-.68 2.67-.27 3.35.9.68 1.17.28 2.67-.9 3.35zm7.75 5.96a2.463 2.463 0 01-3.35.9 2.461 2.461 0 01-.9-3.35 2.463 2.463 0 013.35-.9c1.17.68 1.57 2.17.9 3.35zm7.25 3.73c-1.35 0-2.45-1.1-2.45-2.45s1.1-2.45 2.45-2.45S33 47.94 33 49.29s-1.1 2.45-2.45 2.45zm10.59-2.84c-1.17.68-2.67.28-3.35-.9-.68-1.17-.28-2.67.9-3.35 1.17-.68 2.67-.28 3.35.9.68 1.17.28 2.67-.9 3.35zm7.76-7.76a2.455 2.455 0 01-3.35.9 2.463 2.463 0 01-.9-3.35 2.463 2.463 0 013.35-.9c1.17.68 1.57 2.18.9 3.35zm2.84-10.59c0 1.35-1.1 2.45-2.45 2.45s-2.45-1.1-2.45-2.45 1.1-2.45 2.45-2.45 2.45 1.1 2.45 2.45zm-2.84-10.6c.68 1.17.28 2.67-.9 3.35-1.17.68-2.67.27-3.35-.9-.68-1.17-.28-2.67.9-3.35 1.17-.68 2.67-.27 3.35.9zm113.84 27.27v-16.5c0-6.6-3.3-9.91-9.91-9.91h-9.91v-9.6h-6.6v36.02h6.6V27.42h9.91c2.2 0 3.3 1.1 3.3 3.3v16.51h6.6l.01-.01zm45.94-36.01h-6.6v9.6h-6.35v6.6h6.35v19.81h6.6v-19.8h4.16l2.94-6.6h-7.1v-9.61zm33.62 9.6h-21.24l-2.94 6.6h13.79l-16.03 13.21v6.6h26.41v-6.6h-16.03l16.03-13.21v-6.6h.01zm3.56-6.8c-.1-.1-.22-.2-.37-.28.3-.04.52-.15.67-.31.15-.16.22-.38.22-.63 0-.2-.05-.38-.15-.54a.808.808 0 00-.4-.33c-.16-.06-.43-.09-.79-.09h-1.44v3.4h.69v-1.42h.14c.16 0 .27.01.35.04.07.03.14.07.21.14.06.07.19.24.36.5l.5.74h.82l-.41-.66c-.16-.26-.29-.45-.39-.55l-.01-.01zm-1.06-.75h-.51v-.86h.54c.28 0 .44 0 .5.01.11.02.2.06.26.13s.09.16.09.28c0 .1-.02.19-.07.25a.38.38 0 01-.19.14c-.08.03-.29.04-.62.04v.01zm.07-2.99c-1.83 0-3.31 1.49-3.31 3.31a3.32 3.32 0 003.31 3.31 3.32 3.32 0 003.31-3.31 3.32 3.32 0 00-3.31-3.31zm0 6.1c-1.53 0-2.78-1.25-2.78-2.78 0-1.53 1.25-2.78 2.78-2.78 1.53 0 2.78 1.25 2.78 2.78 0 1.53-1.25 2.78-2.78 2.78zM91.9 25.62H77.49c-2.4 0-3.6-1.2-3.6-3.6 0-2.4 1.2-3.6 3.6-3.6h18.97l3.2-7.2H77.49c-7.2 0-10.81 3.6-10.81 10.81 0 7.21 3.6 10.81 10.81 10.81H91.9c2.4 0 3.6 1.2 3.6 3.6 0 2.4-1.2 3.6-3.6 3.6H66.37v7.2H91.9c7.2 0 10.81-3.6 10.81-10.81 0-7.21-3.6-10.81-10.81-10.81zm40.82 15.01h-16.51c-2.2 0-3.3-1.1-3.3-3.3v-6.6c0-2.2 1.1-3.3 3.3-3.3h13.7l2.81-6.31v-.29h-16.51c-6.6 0-9.91 3.3-9.91 9.91v6.6c0 6.6 3.3 9.91 9.91 9.91h16.51V40.63zm50.13-19.81h-12.13l-2.94 6.6h15.06c2.2 0 3.3 1.08 3.3 3.24v.06h-11.53c-5.52 0-8.28 2.7-8.28 8.1 0 5.4 2.76 8.4 8.28 8.4h18.13v-16.5c0-6.6-3.3-9.91-9.91-9.91l.02.01zm3.3 19.81h-11.53c-1.12 0-1.68-.56-1.68-1.68 0-1.12.56-1.62 1.68-1.62h11.53v3.3zM69.68 56.97H72v.26c0 .59-.06 1.04-.18 1.35-.12.31-.33.54-.64.67s-.76.2-1.35.2c-.45 0-.81-.04-1.08-.12-.27-.08-.49-.22-.65-.43-.16-.21-.27-.5-.34-.89-.07-.38-.1-.89-.1-1.53s.03-1.15.1-1.54c.07-.39.18-.69.34-.9.16-.21.37-.36.64-.45.27-.09.63-.13 1.08-.13.61 0 1.06.04 1.35.12.29.08.49.23.6.43.11.2.18.52.21.94h.78c-.05-.57-.14-1.01-.28-1.3-.14-.29-.42-.52-.82-.67-.41-.15-1.02-.22-1.84-.22-.6 0-1.09.06-1.47.19-.38.12-.68.33-.9.61-.22.28-.38.66-.47 1.13-.09.47-.14 1.07-.14 1.79s.04 1.32.13 1.79c.09.46.24.83.46 1.11.22.28.52.47.9.59s.88.18 1.49.18 1.07-.05 1.45-.14c.38-.09.67-.25.9-.47.22-.22.38-.52.48-.91.1-.39.15-.9.15-1.53v-.84h-3.13v.7l.01.01zm5.53 3.11h4.64v-.72h-3.83v-2.63h3.68v-.71h-3.68v-2.46h3.85v-.72h-4.66v7.24zm10.64-7.24h-3.44v7.24h.8v-2.9h2.45c.32 0 .57.04.78.12.2.08.35.21.45.39.1.18.15.43.15.75v1.64h.81v-1.83c0-.87-.38-1.33-1.14-1.38.37-.07.65-.19.83-.36.18-.17.29-.38.34-.62.05-.24.07-.55.08-.93 0-.75-.18-1.29-.52-1.62-.34-.33-.87-.5-1.59-.5zm1.13 3.14c-.11.2-.27.33-.49.4-.22.07-.53.11-.91.11h-2.37v-2.93h2.64c.31 0 .55.05.74.16.19.11.33.28.42.51.09.23.13.53.13.89s-.05.65-.16.85v.01zm7.6 3.07l-2.55-6.21h-1.34v7.25h.8V53.5l2.75 6.59h.7l2.73-6.66v6.66h.8v-7.25h-1.32l-2.57 6.21zm9.01-6.2l-2.64 7.24h.87l.58-1.49h3.65l.54 1.49h.86l-2.7-7.24h-1.17.01zm-1 5.04l1.59-4.44 1.6 4.44h-3.2.01zm12.6 1.57l-4.08-6.61h-1.28v7.24h.8v-6.54l4.08 6.54h1.27v-7.24h-.8v6.61h.01zm13.21-2.99c0-.8-.05-1.44-.14-1.91-.09-.47-.25-.84-.48-1.1-.22-.26-.53-.44-.91-.53-.38-.09-.9-.15-1.56-.15s-1.14.05-1.52.15c-.38.1-.68.28-.9.54-.22.26-.38.63-.47 1.1-.09.48-.14 1.11-.14 1.89 0 .78.05 1.43.14 1.9.09.47.25.84.47 1.1.22.26.52.44.91.54.38.1.89.15 1.53.15.35 0 .66 0 .91-.02.26-.02.49-.05.7-.1.21-.05.41-.13.58-.23.17-.1.33-.24.48-.42l.54.37.33-.55-.61-.42c.09-.28.13-1.06.13-2.32l.01.01zm-.85 1.84l-2.1-1.38-.37.57 2.25 1.46c-.11.14-.25.24-.41.31-.17.07-.37.11-.61.14-.24.03-.57.03-1 .03-.52 0-.92-.04-1.2-.11-.28-.08-.5-.22-.65-.42-.15-.2-.25-.49-.3-.86-.05-.37-.08-.9-.08-1.58s.02-1.21.08-1.59c.05-.38.15-.67.29-.87.15-.2.36-.34.64-.42.28-.07.68-.11 1.2-.11.52 0 .93.04 1.21.11.29.07.51.21.67.41.15.2.26.49.32.87s.08.91.08 1.6c0 1.1-.01 1.72-.04 1.84h.02zm8.55-.4c0 .46-.05.79-.15 1-.1.21-.29.35-.56.42-.27.07-.72.1-1.33.1-.61 0-1.05-.03-1.33-.1s-.46-.21-.56-.42c-.1-.21-.15-.54-.15-1v-5.07h-.8v5.09c0 .52.06.93.19 1.23.12.3.3.53.54.67.24.14.51.23.84.27.32.04.74.06 1.27.06.73 0 1.28-.04 1.67-.13.39-.09.68-.29.88-.61.2-.32.31-.82.31-1.5v-5.09h-.8v5.07l-.02.01zm5.84-5.07l-2.64 7.24h.87l.58-1.49h3.65l.54 1.49h.86l-2.7-7.24h-1.17.01zm-1 5.04l1.59-4.44 1.6 4.44h-3.2.01zm8.06-5.04h-.81v7.24h4.46v-.73H149v-6.51zm5.98 7.23h.82v-7.22h-.82v7.22zm3.04-6.49h2.37v6.5h.81v-6.5h2.35v-.73h-5.53v.73zm10.43 2.72l-2.19-3.46h-.9l2.66 4.21v3.02h.81v-3.02l2.74-4.21h-.92l-2.19 3.46h-.01z" fill="#000"/></svg><svg fill="none" viewBox="0 0 295 73" id="logo2" xmlns="http://www.w3.org/2000/svg"><path d="M36.318 0C16.259 0 0 16.26 0 36.318c0 20.058 16.26 36.317 36.318 36.317 20.058 0 36.317-16.259 36.317-36.317C72.635 16.259 56.376 0 36.318 0zm0 64.734C20.625 64.734 7.9 52.011 7.9 36.319S20.625 7.9 36.318 7.9c15.693 0 28.416 12.724 28.416 28.417 0 15.693-12.723 28.416-28.416 28.416zm0-44.016c-8.614 0-15.6 6.985-15.6 15.6 0 8.614 6.985 15.6 15.6 15.6 8.614 0 15.592-6.986 15.592-15.6s-6.986-15.6-15.592-15.6zm0 27.277c-6.451 0-11.677-5.234-11.677-11.677s5.226-11.685 11.677-11.685c6.45 0 11.677 5.226 11.677 11.685 0 6.458-5.226 11.677-11.677 11.677zm0-38.101C21.733 9.894 9.9 21.718 9.9 36.31s11.825 26.416 26.417 26.416c14.592 0 26.416-11.824 26.416-26.416S50.91 9.894 36.318 9.894zm8.614 5.675a2.917 2.917 0 013.977-1.07 2.915 2.915 0 011.07 3.978 2.917 2.917 0 01-3.977 1.07 2.908 2.908 0 01-1.062-3.978h-.008zm9.506 20.741c0 10.01-8.11 18.12-18.12 18.12-10.01 0-18.12-8.11-18.12-18.12 0-10.01 8.11-18.12 18.12-18.12 10.01 0 18.12 8.11 18.12 18.12zm-18.12-25.176a2.912 2.912 0 012.915 2.915 2.912 2.912 0 01-2.915 2.916 2.912 2.912 0 01-2.916-2.915 2.912 2.912 0 012.916-2.916zm-12.592 3.373a2.91 2.91 0 112.915 5.04 2.908 2.908 0 01-3.977-1.07 2.91 2.91 0 011.07-3.978l-.008.008zm-9.22 9.219a2.915 2.915 0 013.979-1.07 2.908 2.908 0 011.062 3.978 2.917 2.917 0 01-3.978 1.07 2.915 2.915 0 01-1.07-3.978h.008zm-3.372 12.592a2.917 2.917 0 012.915-2.916 2.917 2.917 0 012.916 2.916 2.912 2.912 0 01-2.915 2.915 2.912 2.912 0 01-2.916-2.915zm7.358 13.662a2.906 2.906 0 01-3.977-1.07 2.908 2.908 0 115.04-2.908 2.913 2.913 0 01-1.063 3.977zm9.22 7.086a2.915 2.915 0 01-5.048-2.915 2.908 2.908 0 013.977-1.062 2.906 2.906 0 011.063 3.977h.007zm8.613 4.435a2.912 2.912 0 01-2.915-2.915 2.912 2.912 0 012.916-2.915 2.912 2.912 0 012.915 2.915 2.912 2.912 0 01-2.916 2.915zm12.592-3.372a2.91 2.91 0 111.062-3.978 2.907 2.907 0 01-1.07 3.977h.008zm9.22-9.22a2.924 2.924 0 01-3.986 1.07 2.908 2.908 0 01-1.062-3.977 2.917 2.917 0 013.977-1.07 2.917 2.917 0 011.07 3.977zm3.372-12.591a2.917 2.917 0 01-2.915 2.915 2.917 2.917 0 01-2.916-2.915 2.912 2.912 0 012.916-2.916 2.912 2.912 0 012.915 2.916zm-3.373-12.592a2.908 2.908 0 01-1.07 3.977 2.915 2.915 0 01-2.915-5.047 2.907 2.907 0 013.977 1.07h.008zm135.308 32.41V36.512c0-7.847-3.924-11.77-11.77-11.77h-11.77V13.328h-7.847v42.816h7.847V32.596h11.77c2.613 0 3.923 1.31 3.923 3.923v19.625h7.847v-.008zm54.6-42.815h-7.846v11.413h-7.552v7.846h7.552v23.548h7.846V32.581h4.939l3.49-7.847h-8.436V13.32h.007zm39.955 11.413h-25.246l-3.489 7.846h16.391l-19.051 15.702v7.846h31.395v-7.846h-19.051l19.051-15.701v-7.847zm4.233-8.08a2.234 2.234 0 00-.434-.34c.356-.055.62-.179.798-.373.179-.194.264-.45.264-.752 0-.24-.062-.45-.178-.636a.898.898 0 00-.473-.387c-.194-.07-.512-.109-.938-.109h-1.714v4.04h.814v-1.683h.163c.186 0 .326.016.411.047.085.03.17.085.248.17.078.086.217.28.426.597l.59.877h.977l-.497-.791c-.193-.31-.348-.535-.465-.66h.008zm-1.256-.883h-.605v-1.024h.636c.333 0 .527 0 .597.016a.56.56 0 01.31.155c.07.085.109.194.109.325a.512.512 0 01-.086.303.446.446 0 01-.225.17c-.1.032-.341.047-.728.047l-.008.008zm.085-3.551a3.945 3.945 0 00-3.939 3.938 3.945 3.945 0 003.939 3.94 3.945 3.945 0 003.939-3.94 3.945 3.945 0 00-3.939-3.938zm0 7.242a3.306 3.306 0 01-3.303-3.304 3.306 3.306 0 013.303-3.303 3.306 3.306 0 013.303 3.303 3.306 3.306 0 01-3.303 3.303zM109.232 30.448H92.105c-2.854 0-4.28-1.426-4.28-4.28 0-2.853 1.426-4.28 4.28-4.28h22.539l3.807-8.56H92.097c-8.56 0-12.84 4.28-12.84 12.84 0 8.56 4.28 12.84 12.84 12.84h17.128c2.853 0 4.279 1.427 4.279 4.28 0 2.854-1.426 4.28-4.279 4.28H78.877v8.56h30.348c8.559 0 12.839-4.28 12.839-12.84 0-8.56-4.28-12.84-12.839-12.84h.007zm48.522 17.841H138.13c-2.613 0-3.924-1.31-3.924-3.923v-7.847c0-2.613 1.311-3.923 3.924-3.923h16.282l3.334-7.498v-.349h-19.624c-7.847 0-11.77 3.924-11.77 11.77v7.847c0 7.846 3.923 11.77 11.77 11.77h19.624v-7.847h.008zm59.578-23.547h-14.413l-3.489 7.846h17.902c2.613 0 3.924 1.287 3.924 3.854v.07h-13.701c-6.567 0-9.847 3.21-9.847 9.63 0 6.42 3.28 9.986 9.847 9.986h21.547V36.504c0-7.847-3.923-11.77-11.77-11.77v.008zm3.924 23.547h-13.701c-1.333 0-2-.667-2-2 0-1.334.667-1.923 2-1.923h13.701v3.923z" fill="url(#npaint0_linear_1110_122)"/><path d="M82.816 67.712h2.752v.31c0 .698-.07 1.233-.209 1.605-.14.372-.395.636-.76.799-.364.163-.9.24-1.605.24-.527 0-.961-.046-1.28-.14a1.412 1.412 0 01-.767-.511c-.186-.248-.326-.597-.403-1.055-.078-.45-.116-1.062-.116-1.822s.038-1.364.124-1.822c.077-.457.217-.814.403-1.07.186-.256.442-.434.76-.527.318-.093.752-.147 1.287-.147.729 0 1.264.046 1.613.147.349.1.581.271.713.512.132.24.21.612.248 1.109h.93c-.054-.683-.17-1.195-.333-1.551-.163-.357-.496-.62-.977-.791-.48-.178-1.21-.264-2.194-.264-.713 0-1.303.078-1.752.225-.45.147-.807.388-1.07.721-.264.334-.45.783-.559 1.334-.108.558-.162 1.264-.162 2.124 0 .861.054 1.574.162 2.125.109.55.287.992.543 1.318.256.326.613.566 1.07.706.458.147 1.047.217 1.768.217.721 0 1.28-.055 1.729-.163.45-.109.799-.295 1.062-.55.264-.264.45-.621.566-1.086.117-.465.17-1.07.17-1.815v-1h-3.721v.83l.008-.008zm6.567 3.699h5.513v-.861h-4.56v-3.125h4.374v-.837h-4.373v-2.931h4.582v-.853h-5.536v8.607zm12.654-8.6h-4.086v8.6h.953v-3.443h2.916c.372 0 .682.046.922.14.241.093.419.248.543.465.124.217.179.512.179.884v1.954h.961v-2.18c0-1.03-.45-1.58-1.357-1.643.442-.085.768-.225.985-.426.217-.202.349-.45.403-.73.054-.286.085-.65.093-1.1 0-.892-.209-1.535-.62-1.923-.411-.396-1.039-.59-1.892-.59v-.007zm1.349 3.73a.991.991 0 01-.589.481c-.264.085-.628.132-1.086.132h-2.814v-3.481h3.132c.365 0 .659.061.884.193.225.132.395.334.496.605.101.272.155.628.155 1.062 0 .435-.062.776-.193 1.008h.015zm9.033 3.645l-3.032-7.382h-1.597v8.614h.954v-7.83l3.272 7.83h.829l3.249-7.908v7.908h.954v-8.614h-1.574l-3.055 7.382zm10.708-7.374l-3.141 8.599h1.032l.69-1.768h4.342l.643 1.768h1.024l-3.203-8.6h-1.387zm-1.187 5.993l1.892-5.28 1.908 5.28h-3.8zm14.972 1.861l-4.846-7.854h-1.519v8.599h.953v-7.777l4.846 7.777h1.512v-8.6h-.953v7.855h.007zm15.701-3.55c0-.955-.054-1.707-.17-2.273-.109-.566-.303-1-.566-1.302-.264-.31-.628-.52-1.086-.636-.457-.116-1.07-.178-1.853-.178-.783 0-1.357.062-1.806.178-.45.116-.814.333-1.07.643-.264.31-.45.745-.559 1.31-.108.567-.162 1.319-.162 2.25 0 .93.054 1.697.162 2.256.109.558.295.992.559 1.302.263.31.62.528 1.077.651.458.125 1.063.179 1.815.179.418 0 .783-.008 1.085-.031.303-.016.582-.062.838-.124.255-.062.48-.155.69-.28a2.27 2.27 0 00.573-.496l.644.435.395-.66-.721-.496c.109-.333.163-1.256.163-2.752l-.008.023zm-1.008 2.193l-2.488-1.643-.435.674 2.675 1.737a1.203 1.203 0 01-.488.372c-.194.085-.434.14-.721.163-.287.023-.683.039-1.187.039-.612 0-1.093-.047-1.426-.132-.334-.093-.589-.256-.768-.496-.178-.24-.294-.582-.356-1.032-.062-.442-.093-1.07-.093-1.876 0-.806.031-1.442.093-1.884.062-.45.178-.79.348-1.031.171-.24.427-.411.76-.497.334-.085.814-.131 1.427-.131.613 0 1.101.046 1.442.131.341.086.605.249.791.489.186.24.31.582.372 1.031.07.45.101 1.078.101 1.9 0 1.31-.016 2.039-.047 2.194v-.008zm10.158-.473c0 .543-.062.939-.179 1.187-.116.248-.341.41-.674.496-.334.085-.861.124-1.59.124-.729 0-1.248-.039-1.574-.124-.325-.085-.55-.248-.667-.496-.116-.248-.178-.644-.178-1.187v-6.024h-.954v6.055c0 .613.07 1.101.225 1.466.148.364.365.628.644.798.279.171.612.28.992.326.38.047.884.07 1.504.07.869 0 1.528-.047 1.978-.148.449-.1.806-.34 1.054-.72.248-.38.372-.978.372-1.784V62.82h-.953v6.024-.008zm6.939-6.024l-3.14 8.599h1.031l.69-1.768h4.342l.644 1.768h1.023l-3.202-8.6h-1.388zm-1.186 5.993l1.892-5.28 1.907 5.28h-3.799zm9.583-5.993h-.961v8.599h5.303v-.869h-4.342v-7.73zm7.11 8.59h.977v-8.575h-.977v8.576zm3.613-7.714h2.815v7.73h.961v-7.73h2.792v-.868h-6.568v.868zm12.391 3.241l-2.606-4.11h-1.07l3.156 5.01v3.597h.962v-3.598l3.248-5.008h-1.093l-2.605 4.109h.008z" fill="#9A999B"/><defs><linearGradient id="npaint0_linear_1110_122" x1="147.504" y1="0" x2="147.504" y2="72.628" gradientUnits="userSpaceOnUse"><stop stop-color="#888887"/><stop offset=".06" stop-color="#ADADAC"/><stop offset=".21" stop-color="#fff"/><stop offset=".35" stop-color="#BCBCBC"/><stop offset=".45" stop-color="#929292"/><stop offset=".5" stop-color="#828282"/><stop offset=".54" stop-color="#7B7B7B"/><stop offset=".73" stop-color="#595959"/><stop offset=".89" stop-color="#444443"/><stop offset="1" stop-color="#3D3D3C"/></linearGradient></defs></svg><svg fill="none" viewBox="0 0 508 125" id="logo4" xmlns="http://www.w3.org/2000/svg"><path d="M62.5 0C27.987 0 0 27.987 0 62.5 0 97.013 27.987 125 62.5 125c34.513 0 62.5-27.987 62.5-62.5C125 27.966 97.013 0 62.5 0zm0 111.416c-27.005 0-48.916-21.89-48.916-48.916 0-27.025 21.911-48.916 48.916-48.916 27.005 0 48.916 21.89 48.916 48.916 0 27.025-21.89 48.916-48.916 48.916zm0-75.757c-14.832 0-26.841 12.03-26.841 26.841 0 14.812 12.03 26.841 26.841 26.841 14.812 0 26.841-12.03 26.841-26.841 0-14.812-12.009-26.841-26.841-26.841zm0 46.952c-11.109 0-20.11-9.002-20.11-20.111S51.39 42.39 62.5 42.39 82.61 51.39 82.61 62.5 73.61 82.61 62.5 82.61zm0-65.57c-25.102 0-45.458 20.357-45.458 45.48 0 25.122 20.356 45.458 45.458 45.458 25.102 0 45.458-20.356 45.458-45.459 0-25.122-20.356-45.478-45.458-45.478zm14.832 9.78a5.04 5.04 0 016.854-1.841 5.035 5.035 0 011.841 6.853 5.04 5.04 0 01-6.853 1.841 5.04 5.04 0 01-1.842-6.853zM93.7 62.52c0 17.225-13.973 31.178-31.178 31.178-17.206 0-31.179-13.953-31.179-31.178 0-17.226 13.953-31.2 31.178-31.2 17.226 0 31.179 13.953 31.179 31.2zM62.5 19.169a5.02 5.02 0 015.012 5.013 5.02 5.02 0 01-5.012 5.012 5.02 5.02 0 01-5.012-5.012 5.02 5.02 0 015.012-5.013zm-21.665 5.81a5.004 5.004 0 016.853 1.842 5.004 5.004 0 01-1.841 6.853 5.004 5.004 0 01-6.854-1.84 5.004 5.004 0 011.842-6.854zM24.959 40.855a5.04 5.04 0 016.854-1.841 5.04 5.04 0 011.84 6.853A5.04 5.04 0 0126.8 47.71a5.04 5.04 0 01-1.84-6.854zm-5.81 21.666a5.02 5.02 0 015.012-5.013 5.02 5.02 0 015.012 5.012 5.02 5.02 0 01-5.012 5.013 5.02 5.02 0 01-5.012-5.013zm12.664 23.506a5.004 5.004 0 01-6.854-1.841 5.004 5.004 0 011.841-6.854c2.394-1.39 5.463-.552 6.854 1.842a5.004 5.004 0 01-1.841 6.853zM47.668 98.22a5.04 5.04 0 01-6.854 1.841 5.034 5.034 0 01-1.841-6.853 5.04 5.04 0 016.854-1.841 5.035 5.035 0 011.84 6.853zm14.832 7.631a5.02 5.02 0 01-5.012-5.012 5.02 5.02 0 015.012-5.013 5.02 5.02 0 015.012 5.013 5.02 5.02 0 01-5.012 5.012zm21.665-5.81a5.004 5.004 0 01-6.853-1.841 5.004 5.004 0 011.841-6.854 5.004 5.004 0 016.853 1.841 5.004 5.004 0 01-1.84 6.854zm15.876-15.876c-1.391 2.394-4.46 3.233-6.854 1.842a5.04 5.04 0 01-1.84-6.854 5.04 5.04 0 016.853-1.841 5.04 5.04 0 011.841 6.853zm5.81-21.665a5.02 5.02 0 01-5.012 5.012 5.02 5.02 0 01-5.013-5.012 5.02 5.02 0 015.013-5.012 5.02 5.02 0 015.012 5.012zm-5.81-21.686a5.004 5.004 0 01-1.841 6.854c-2.394 1.39-5.463.552-6.854-1.841a5.004 5.004 0 011.841-6.854c2.394-1.391 5.463-.552 6.854 1.841zm232.897 55.79V62.848c0-13.503-6.751-20.274-20.274-20.274h-20.275v-19.64h-13.502v73.69h13.502V56.097h20.275c4.5 0 6.751 2.25 6.751 6.75v33.777h13.502l.021-.02zm93.985-73.67h-13.502v19.64H400.43v13.502h12.991v40.528h13.502V56.097h8.511l6.014-13.503h-14.525v-19.66zm68.781 19.64H452.25l-6.014 13.502h28.212l-32.795 27.026v13.502h54.03V83.102h-32.794l32.794-27.026V42.574h.021zm7.283-13.912a3.201 3.201 0 00-.757-.573c.614-.082 1.064-.307 1.371-.634.307-.327.45-.777.45-1.289 0-.409-.103-.777-.307-1.105a1.657 1.657 0 00-.818-.675c-.328-.122-.88-.184-1.617-.184h-2.946v6.956h1.412v-2.905h.286c.328 0 .553.02.716.082.144.061.287.143.43.286.123.143.389.491.737 1.023l1.022 1.514h1.678l-.839-1.35c-.327-.532-.593-.92-.798-1.125l-.02-.021zm-2.169-1.534h-1.043v-1.76h1.105c.573 0 .9 0 1.023.02.225.042.409.123.532.267.122.143.184.327.184.572 0 .205-.041.39-.144.512-.102.123-.225.245-.388.286-.164.062-.594.082-1.269.082v.02zm.144-6.117c-3.744 0-6.772 3.048-6.772 6.771 0 3.724 3.048 6.772 6.772 6.772 3.723 0 6.771-3.048 6.771-6.772 0-3.723-3.048-6.771-6.771-6.771zm0 12.48c-3.131 0-5.688-2.558-5.688-5.688s2.557-5.688 5.688-5.688c3.13 0 5.687 2.558 5.687 5.688s-2.557 5.687-5.687 5.687zM188.011 52.413h-29.48c-4.91 0-7.365-2.455-7.365-7.365s2.455-7.365 7.365-7.365h38.809l6.547-14.73h-45.356c-14.73 0-22.115 7.365-22.115 22.116 0 14.75 7.365 22.115 22.115 22.115h29.48c4.91 0 7.365 2.455 7.365 7.365s-2.455 7.365-7.365 7.365h-52.229v14.73h52.229c14.73 0 22.116-7.365 22.116-22.115 0-14.75-7.365-22.116-22.116-22.116zm83.511 30.708h-33.777c-4.5 0-6.751-2.25-6.751-6.751V62.868c0-4.5 2.251-6.751 6.751-6.751h28.028l5.749-12.91v-.592h-33.777c-13.502 0-20.274 6.75-20.274 20.274V76.39c0 13.503 6.752 20.274 20.274 20.274h33.777V83.122zm102.557-40.528h-24.816l-6.014 13.503h30.81c4.501 0 6.751 2.21 6.751 6.628v.123h-23.588c-11.293 0-16.94 5.523-16.94 16.571 0 11.047 5.647 17.185 16.94 17.185h37.091V62.848c0-13.503-6.752-20.274-20.275-20.274l.041.02zm6.752 40.528h-23.589c-2.291 0-3.437-1.146-3.437-3.437s1.146-3.314 3.437-3.314h23.589v6.75zM142.553 116.551h4.747v.532c0 1.207-.123 2.128-.369 2.762-.245.634-.675 1.104-1.309 1.37-.634.266-1.555.41-2.762.41-.92 0-1.657-.082-2.209-.246-.553-.164-1.003-.45-1.33-.88-.327-.429-.552-1.023-.696-1.82-.143-.778-.204-1.821-.204-3.131 0-1.309.061-2.352.204-3.15.144-.798.369-1.412.696-1.841.327-.43.757-.737 1.309-.921.553-.184 1.289-.266 2.21-.266 1.248 0 2.168.082 2.762.246.593.163 1.002.47 1.227.879.225.409.368 1.064.43 1.923h1.595c-.102-1.166-.286-2.066-.572-2.659-.287-.594-.86-1.064-1.678-1.371-.839-.307-2.087-.45-3.764-.45-1.228 0-2.23.123-3.008.389-.777.245-1.391.675-1.841 1.248-.45.572-.777 1.35-.961 2.311-.185.962-.287 2.189-.287 3.662 0 1.473.082 2.701.266 3.662.184.942.491 1.699.941 2.271.45.573 1.064.962 1.841 1.207.778.246 1.801.369 3.049.369s2.189-.103 2.966-.287c.778-.184 1.371-.511 1.841-.961.451-.45.778-1.064.982-1.862.205-.798.307-1.841.307-3.13v-1.719h-6.403v1.432l.02.021zm11.314 6.362h9.492v-1.473h-7.835v-5.38h7.528v-1.453h-7.528v-5.032h7.876v-1.473h-9.533v14.811zm21.767-14.811h-7.037v14.811h1.636v-5.932h5.013c.654 0 1.166.081 1.595.245.41.164.716.43.921.798.205.368.307.88.307 1.534v3.355h1.657v-3.743c0-1.78-.777-2.721-2.332-2.824.757-.143 1.33-.388 1.698-.736.368-.348.593-.778.695-1.269.103-.491.144-1.125.164-1.902 0-1.535-.368-2.639-1.064-3.314-.695-.676-1.78-1.023-3.253-1.023zm2.312 6.424a1.666 1.666 0 01-1.002.818c-.45.143-1.085.225-1.862.225h-4.849v-5.994h5.401c.635 0 1.126.102 1.514.327.389.225.675.573.859 1.043.185.471.266 1.085.266 1.821 0 .737-.102 1.33-.327 1.739v.021zm15.548 6.28l-5.216-12.704h-2.742v14.832h1.637v-13.482l5.626 13.482h1.432l5.585-13.625v13.625h1.637v-14.832h-2.701l-5.258 12.704zm18.433-12.684l-5.401 14.812h1.78l1.187-3.048h7.467l1.105 3.048h1.759l-5.524-14.812h-2.393.02zm-2.046 10.311l3.253-9.083 3.274 9.083h-6.547.02zm25.778 3.212l-8.347-13.523h-2.619v14.812h1.637v-13.38l8.347 13.38h2.598v-14.812h-1.637v13.523h.021zm27.025-6.117c0-1.637-.102-2.946-.286-3.908-.184-.961-.512-1.718-.982-2.25-.45-.532-1.084-.9-1.862-1.084-.777-.184-1.841-.307-3.191-.307-1.351 0-2.333.102-3.11.307-.777.204-1.391.573-1.841 1.105-.45.531-.778 1.288-.962 2.25-.184.982-.286 2.271-.286 3.867 0 1.595.102 2.925.286 3.887.184.961.512 1.718.962 2.25.45.532 1.064.9 1.861 1.105.778.204 1.821.307 3.131.307.716 0 1.35 0 1.861-.041a9.295 9.295 0 001.432-.205c.43-.102.839-.266 1.187-.47.348-.205.675-.491.982-.86l1.105.757.675-1.125-1.248-.859c.184-.573.266-2.169.266-4.746l.02.02zm-1.739 3.764l-4.296-2.823-.757 1.166 4.603 2.987a2.116 2.116 0 01-.839.634c-.347.144-.757.225-1.248.287-.491.061-1.166.061-2.045.061-1.064 0-1.883-.082-2.455-.225-.573-.164-1.023-.45-1.33-.859-.307-.409-.512-1.003-.614-1.76-.102-.757-.164-1.841-.164-3.232 0-1.391.041-2.475.164-3.253.102-.777.307-1.371.593-1.78.307-.409.737-.695 1.31-.859.573-.143 1.391-.225 2.455-.225s1.902.082 2.475.225c.593.143 1.044.43 1.371.839.307.409.532 1.002.655 1.78.122.777.163 1.861.163 3.273 0 2.25-.02 3.519-.082 3.764h.041zm17.492-.818c0 .941-.102 1.616-.307 2.046-.204.429-.593.716-1.145.859-.553.143-1.473.205-2.721.205s-2.148-.062-2.721-.205-.941-.43-1.146-.859c-.205-.43-.307-1.105-.307-2.046v-10.372h-1.637v10.413c0 1.064.123 1.903.389 2.516.246.614.614 1.085 1.105 1.371.491.286 1.043.471 1.718.552.655.082 1.514.123 2.599.123 1.493 0 2.618-.082 3.416-.266s1.391-.593 1.8-1.248c.41-.654.635-1.677.635-3.069v-10.413h-1.637v10.373l-.041.02zm11.948-10.372l-5.401 14.811h1.78l1.186-3.048h7.467l1.105 3.048h1.76l-5.524-14.811h-2.394.021zm-2.046 10.311l3.253-9.084 3.273 9.084h-6.547.021zm16.489-10.311h-1.657v14.811h9.125v-1.493h-7.468v-13.318zm12.234 14.791h1.678v-14.771h-1.678v14.771zm6.22-13.277h4.848v13.297h1.657v-13.297h4.808v-1.494h-11.313v1.494zm21.338 5.564l-4.481-7.078h-1.841l5.442 8.613v6.178h1.657v-6.178l5.606-8.613h-1.883l-4.48 7.078h-.02z" fill="#000"/></svg><svg fill="none" viewBox="0 0 28 50" id="slider-arrow-left" xmlns="http://www.w3.org/2000/svg"><g clip-path="url(#pclip0_1110_66)"><path d="M26.484 1.506L2.986 24.84l22.717 23.677" stroke="#929292" stroke-width="1.86" stroke-miterlimit="10"/></g><defs><clipPath id="pclip0_1110_66"><path fill="#fff" transform="rotate(90 14 14)" d="M0 0h50v28H0z"/></clipPath></defs></svg><svg fill="none" viewBox="0 0 28 50" id="slider-arrow-right" xmlns="http://www.w3.org/2000/svg"><g clip-path="url(#qclip0_1110_68)"><path d="M1.516 48.494L25.014 25.16 2.297 1.482" stroke="#929292" stroke-width="1.86" stroke-miterlimit="10"/></g><defs><clipPath id="qclip0_1110_68"><path fill="#fff" transform="rotate(-90 25 25)" d="M0 0h50v28H0z"/></clipPath></defs></svg></svg>