<svg width="98" height="125" fill="none" xmlns="http://www.w3.org/2000/svg"><g fill="#EC8020"><path d="M59.886 19.47h12.947a5.194 5.194 0 015.188 5.188v44.55a30.63 30.63 0 018.001 2.753V24.646c0-7.274-5.916-13.178-13.177-13.178H59.898c-2.206 0-4 1.794-4 4a4.004 4.004 0 004 4.001h-.012zm-16.05 90.616H13.177a5.194 5.194 0 01-5.188-5.188V24.646a5.194 5.194 0 015.188-5.189h14.014c2.207 0 4-1.794 4-4 0-2.207-1.793-4-4-4H13.177C5.916 11.467 0 17.383 0 24.645v80.252c0 7.274 5.916 13.177 13.177 13.177H48.43a30.069 30.069 0 01-4.594-8.001v.012z"/><path d="M50.139 31.3H35.871c-6.122 0-11.093-4.982-11.093-11.091v-9.105C24.778 4.982 29.748 0 35.871 0h14.268c6.122 0 11.092 4.982 11.092 11.092v9.104c0 6.122-4.982 11.093-11.092 11.093v.012zM35.871 8.002a3.11 3.11 0 00-3.104 3.103v9.105a3.11 3.11 0 003.104 3.103h14.268a3.11 3.11 0 003.103-3.103v-9.105a3.11 3.11 0 00-3.103-3.103H35.871zm36.331 65.292c-14.353 0-25.797 11.662-25.797 25.797s11.662 25.797 25.797 25.797C86.338 124.888 98 113.226 98 99.091S86.447 73.294 72.203 73.294zm0 48.357c-12.438 0-22.56-10.122-22.56-22.56 0-12.438 10.122-22.56 22.56-22.56 12.438 0 22.56 10.122 22.56 22.56 0 12.438-10.122 22.56-22.56 22.56z"/><path d="M72.203 78.894c-11.14 0-20.196 9.056-20.196 20.197s9.056 20.196 20.196 20.196c11.141 0 20.197-9.055 20.197-20.196 0-11.14-9.056-20.197-20.197-20.197zm-1.988 31.18a2.09 2.09 0 01-2.958-.024l-8.498-8.668a1.003 1.003 0 010-1.394l2.776-2.776a.995.995 0 011.407 0l5.115 5.188a.992.992 0 001.394.013l13.093-12.754a1.003 1.003 0 011.394 0l2.776 2.777a.995.995 0 010 1.406l-16.487 16.22-.012.012zM61.948 50.31H24.064a5.034 5.034 0 01-5.03-5.032 5.034 5.034 0 015.03-5.03H61.96a5.034 5.034 0 015.03 5.03 5.034 5.034 0 01-5.03 5.031h-.012zm0 17.553H24.064a5.034 5.034 0 01-5.03-5.03 5.034 5.034 0 015.03-5.032H61.96a5.034 5.034 0 015.03 5.031 5.034 5.034 0 01-5.03 5.031h-.012z"/></g></svg>3 78.8945C61.0625 78.8945 52.0068 87.9502 52.0068 99.091C52.0068 110.232 61.0625 119.287 72.2033 119.287C83.344 119.287 92.3997 110.232 92.3997 99.091C92.3997 87.9502 83.344 78.8945 72.2033 78.8945ZM70.2151 110.074C69.3908 110.886 68.0694 110.874 67.2572 110.05L58.7592 101.382C58.3834 100.994 58.3834 100.376 58.7592 99.9881L61.5353 97.2119C61.9232 96.824 62.5536 96.824 62.9415 97.2119L68.0573 102.4C68.4452 102.788 69.0635 102.788 69.4514 102.413L82.5439 89.6595C82.9319 89.2837 83.5501 89.2837 83.9381 89.6595L86.7142 92.4356C87.1021 92.8235 87.1021 93.4539 86.7142 93.8418L70.2273 110.062L70.2151 110.074Z" fill="#EC8020"/>
<path id="Vector_6" d="M61.9476 50.3094H24.0641C21.288 50.3094 19.0332 48.0546 19.0332 45.2785C19.0332 42.5024 21.288 40.2476 24.0641 40.2476H61.9597C64.7358 40.2476 66.9906 42.5024 66.9906 45.2785C66.9906 48.0546 64.7358 50.3094 61.9597 50.3094H61.9476Z" fill="#EC8020"/>
<path id="Vector_7" d="M61.9476 67.8631H24.0641C21.288 67.8631 19.0332 65.6083 19.0332 62.8322C19.0332 60.0561 21.288 57.8013 24.0641 57.8013H61.9597C64.7358 57.8013 66.9906 60.0561 66.9906 62.8322C66.9906 65.6083 64.7358 67.8631 61.9597 67.8631H61.9476Z" fill="#EC8020"/>
</g>
</svg>
