<svg width="81" height="105" viewBox="0 0 81 105" fill="none" xmlns="http://www.w3.org/2000/svg">
<g id="Group 20">
<path id="Vector" d="M49.3999 17.0551H60.0799C62.4399 17.0551 64.3599 18.9751 64.3599 21.3351V58.0851C66.6899 58.5351 68.8999 59.3151 70.9599 60.3551V21.3251C70.9599 15.3251 66.0799 10.4551 60.0899 10.4551H49.4099C47.5899 10.4551 46.1099 11.9351 46.1099 13.7551C46.1099 15.5751 47.5899 17.0551 49.4099 17.0551H49.3999Z" fill="#EC8020"/>
<path id="Vector_2" d="M36.16 91.8053H10.87C8.51 91.8053 6.59 89.8853 6.59 87.5253V21.3253C6.59 18.9653 8.51 17.0453 10.87 17.0453H22.43C24.25 17.0453 25.73 15.5653 25.73 13.7453C25.73 11.9253 24.25 10.4453 22.43 10.4453H10.87C4.88 10.4553 0 15.3353 0 21.3253V87.5253C0 93.5253 4.88 98.3953 10.87 98.3953H39.95C38.37 96.4253 37.09 94.2053 36.16 91.7953V91.8053Z" fill="#EC8020"/>
<path id="Vector_3" d="M41.3599 26.8151H29.5899C24.5399 26.8151 20.4399 22.7051 20.4399 17.6651V10.1551C20.4399 5.10512 24.5399 0.995117 29.5899 0.995117H41.3599C46.4099 0.995117 50.5099 5.10512 50.5099 10.1451V17.6551C50.5099 22.7051 46.3999 26.8051 41.3599 26.8051V26.8151ZM29.5899 7.59512C28.1799 7.59512 27.0299 8.74512 27.0299 10.1551V17.6651C27.0299 19.0751 28.1799 20.2251 29.5899 20.2251H41.3599C42.7699 20.2251 43.9199 19.0751 43.9199 17.6651V10.1551C43.9199 8.74512 42.7699 7.59512 41.3599 7.59512H29.5899Z" fill="#EC8020"/>
<path id="Vector_4" d="M59.5603 61.4551C47.7203 61.4551 38.2803 71.0751 38.2803 82.7351C38.2803 94.3951 47.9003 104.015 59.5603 104.015C71.2203 104.015 80.8403 94.3951 80.8403 82.7351C80.8403 71.0751 71.3103 61.4551 59.5603 61.4551ZM59.5603 101.345C49.3003 101.345 40.9503 92.9951 40.9503 82.7351C40.9503 72.4751 49.3003 64.1251 59.5603 64.1251C69.8203 64.1251 78.1703 72.4751 78.1703 82.7351C78.1703 92.9951 69.8203 101.345 59.5603 101.345Z" fill="#EC8020"/>
<path id="Vector_5" d="M59.5599 66.0752C50.3699 66.0752 42.8999 73.5452 42.8999 82.7352C42.8999 91.9252 50.3699 99.3952 59.5599 99.3952C68.7499 99.3952 76.2199 91.9252 76.2199 82.7352C76.2199 73.5452 68.7499 66.0752 59.5599 66.0752ZM57.9199 91.7952C57.2399 92.4652 56.1499 92.4552 55.4799 91.7752L48.4699 84.6252C48.1599 84.3052 48.1599 83.7952 48.4699 83.4752L50.7599 81.1852C51.0799 80.8652 51.5999 80.8652 51.9199 81.1852L56.1399 85.4652C56.4599 85.7852 56.9699 85.7852 57.2899 85.4752L68.0899 74.9552C68.4099 74.6452 68.9199 74.6452 69.2399 74.9552L71.5299 77.2452C71.8499 77.5652 71.8499 78.0852 71.5299 78.4052L57.9299 91.7852L57.9199 91.7952Z" fill="#EC8020"/>
<path id="Vector_6" d="M51.1002 42.4953H19.8502C17.5602 42.4953 15.7002 40.6353 15.7002 38.3453C15.7002 36.0553 17.5602 34.1953 19.8502 34.1953H51.1102C53.4002 34.1953 55.2602 36.0553 55.2602 38.3453C55.2602 40.6353 53.4002 42.4953 51.1102 42.4953H51.1002Z" fill="#EC8020"/>
<path id="Vector_7" d="M51.1002 56.9748H19.8502C17.5602 56.9748 15.7002 55.1148 15.7002 52.8248C15.7002 50.5348 17.5602 48.6748 19.8502 48.6748H51.1102C53.4002 48.6748 55.2602 50.5348 55.2602 52.8248C55.2602 55.1148 53.4002 56.9748 51.1102 56.9748H51.1002Z" fill="#EC8020"/>
</g>
</svg>
