<svg width="94" height="148" fill="none" xmlns="http://www.w3.org/2000/svg"><path d="M1.4 143.275c-1.083.521-1.537 1.452-1.363 2.536.175 1.11.893 1.763 1.95 2.031a5.57 5.57 0 001.383.153c5.086.01 10.167.005 15.253.005 11.387 0 22.779.016 34.166-.026.818 0 1.77-.216 2.434-.669 1.5-1.015 1.326-3.062-.3-3.946-.65-.353-.782-.747-.782-1.4.016-14.829.01-29.663.01-44.492 0-13.892 0-27.785-.01-41.672 0-.72.105-1.215.85-1.568.882-.415 1.305-1.247 1.22-2.23-.09-1.022-.692-1.748-1.632-2.095-.55-.2-1.172-.253-1.77-.253-8.26-.016-16.525-.01-24.785-.01H3.137c-1.848 0-3.047.947-3.126 2.404-.058 1.053.428 1.832 1.33 2.268.582.285.714.621.714 1.227a94621.75 94621.75 0 00-.006 86.584c0 .542-.084.879-.654 1.153H1.4zm9.322-83.843v-1.163h8.022v79.638h-5.376c-.37 0-.74-.01-1.104.032-1.521.179-1.548.163-1.548-1.326V59.426l.006.006zm37.567-16.524c-1.268-1.705-2.725-3.273-4.067-4.925-.27-.332-.528-.774-.565-1.19-.121-1.441-.618-1.947-2.176-1.952-3.644-.01-7.288 0-10.933 0H15.1c-2.012 0-2.324.3-2.604 2.268-.047.347-.338.7-.602.963-2.292 2.273-4.294 4.747-5.567 7.746-.232.542-.39 1.116-.623 1.779h44.734a12.145 12.145 0 00-2.15-4.689zM71.406 2.647c2.8.384 4.98 1.847 6.575 4.157 1.58 2.294 1.817 4.878 1.427 7.704 3.892-.431 7.209.505 9.739 3.468 1.6 1.873 2.403 4.083 2.35 6.53-.069 3.094-1.326 5.678-3.75 7.641-2.392 1.937-5.176 2.484-8.345 2.063.555 3.72-.174 6.956-2.936 9.503-1.6 1.474-3.507 2.337-5.673 2.484-5.255.358-8.978-2.684-10.441-8.488h-2.345c.08 5.683 5.192 10.63 11.387 11.02 5.54.346 12.152-3.542 12.807-11.84 3.74-.364 6.898-1.89 9.227-4.92 1.79-2.332 2.651-4.974 2.572-7.915-.084-3.247-1.294-6.02-3.517-8.367-1.828-1.931-3.264-2.584-8.26-3.847C81.63 3.705 74.938-.395 69.044.032c-5.783.415-10.71 5.23-11.07 10.977h2.356c1.806-6.152 5.683-9.104 11.075-8.362zM38.053 30.074c-.068-.842-.623-1.3-1.478-1.342-.56-.026-1.125 0-1.78 0V19.98c-4.495.557-8.873 1.094-13.341 1.647v6.93c-1.046.432-2.483-.352-3 .847-.423.98-.338 2.174-.491 3.368h20.106c0-.916.058-1.81-.016-2.694v-.005zm-.433-4.52c1.48.647 3.048 1.105 4.648 1.647.871-1.884.813-3.684.037-5.642-1.616.548-3.137 1.026-4.616 1.595-.248.095-.502.584-.486.879.026.531.106 1.378.423 1.52h-.006zm16.864-2.184v2.01h6.105v-2.01h-6.105zm7.774 10.85c1.939.663 3.819 1.31 5.842 2.005.238-.715.444-1.331.681-2.052-1.949-.668-3.824-1.31-5.815-1.995-.232.674-.454 1.31-.708 2.042zM51.273 20.57c-.248-.705-.46-1.32-.708-2.036l-5.825 1.983.697 2.047c2.007-.684 3.892-1.33 5.841-1.994h-.005zm8.762 10.625c-1.944-.669-3.818-1.31-5.836-2.005-.238.715-.444 1.326-.687 2.052 1.96.673 3.83 1.315 5.815 1.994.238-.684.46-1.32.708-2.041zM44.75 28.253l5.815 1.994.73-2.026a3258.2 3258.2 0 01-5.853-2.01c-.248.737-.449 1.326-.692 2.042zm6.872-4.873h-6.037v2.02h6.037v-2.02zm10.631-8.825c.243.7.454 1.316.708 2.037 1.949-.663 3.845-1.31 5.82-1.984-.238-.71-.444-1.326-.681-2.042-1.98.674-3.877 1.321-5.847 1.99zm7.6 8.81h-6.052v1.999h6.052v-2zm-10.33-5.747c.163-.063.258-.558.206-.816-.074-.373-.312-.715-.507-1.126-1.875.61-3.755 1.221-5.71 1.853.227.7.423 1.294.687 2.094 1.817-.674 3.58-1.31 5.324-2.01v.005z" fill="#EC8020"/></svg>8.1273 30.963 38.0534 30.0789V30.0737ZM37.6203 25.5534C39.0991 26.2007 40.6677 26.6585 42.268 27.2005C43.1395 25.3166 43.0814 23.5169 42.305 21.5594C40.6889 22.1066 39.1678 22.5855 37.689 23.1538C37.4408 23.2485 37.1872 23.7379 37.2031 24.0326C37.2295 24.5641 37.3087 25.4113 37.6256 25.5534H37.6203ZM54.4841 23.3696V25.3797H60.5895V23.3696H54.4841ZM62.2585 34.2203C64.1968 34.8833 66.077 35.5306 68.0998 36.2252C68.3375 35.5095 68.5435 34.8938 68.7811 34.1729C66.8323 33.5046 64.9573 32.8626 62.9662 32.1785C62.7338 32.8521 62.512 33.4888 62.2585 34.2203ZM51.273 20.5701C51.0248 19.8649 50.8135 19.2493 50.5653 18.5336C48.6005 19.2019 46.7151 19.8439 44.7398 20.5175C44.9722 21.2015 45.1834 21.8172 45.4369 22.5645C47.4439 21.8804 49.3294 21.2331 51.2783 20.5701H51.273ZM60.035 31.1945C58.0914 30.5262 56.2165 29.8842 54.1989 29.1896C53.9613 29.9053 53.7553 30.5157 53.5123 31.2419C55.4718 31.9154 57.3414 32.5574 59.3273 33.2362C59.5649 32.5522 59.7867 31.9154 60.035 31.1945ZM44.7503 28.2529C46.6834 28.916 48.5847 29.5685 50.5653 30.2473C50.8082 29.5737 51.03 28.9581 51.2941 28.2213C49.3452 27.553 47.4439 26.9005 45.4422 26.2112C45.194 26.9479 44.9933 27.5373 44.7503 28.2529ZM51.6216 23.3801H45.5848V25.4008H51.6216V23.3801ZM62.2532 14.5554C62.4962 15.2552 62.7074 15.8709 62.9609 16.5918C64.9098 15.9288 66.8058 15.2815 68.7811 14.608C68.5435 13.8976 68.3375 13.2819 68.0998 12.5662C66.1193 13.2398 64.2232 13.8871 62.2532 14.5554ZM69.8533 23.3643H63.8007V25.364H69.8533V23.3643ZM59.5227 17.618C59.6864 17.5548 59.7815 17.0602 59.7286 16.8023C59.6547 16.4287 59.417 16.0867 59.2216 15.6762C57.3467 16.2866 55.4665 16.897 53.5123 17.5285C53.7394 18.2284 53.9349 18.823 54.1989 19.6229C56.0158 18.9493 57.7798 18.3126 59.5227 17.6127V17.618Z" fill="#EC8020"/>
</svg>
