<svg width="99" height="96" fill="none" xmlns="http://www.w3.org/2000/svg"><path d="M28.31 43.905s.04.05.07.07l9.84 9.84 3.43-3.43-3.7-3.7-1.67-1.68 8.58-8.58 1.13.13c.29.03.58.05.88.05.59 0 1.17-.07 1.74-.2l-6.32-6.32c-.13-.13-.27-.24-.4-.36 1.95-7 .17-14.82-5.33-20.32-5.48-5.47-13.23-7.25-20.19-5.38l11.79 11.79-3.1 11.55-11.55 3.1-11.79-11.79c-1.88 6.96-.09 14.71 5.37 20.17 5.74 5.74 13.99 7.42 21.21 5.06h.01zm34.85 7.06a7.92 7.92 0 00-.14 2.62l.13 1.13-.81.81-6.1 6.1-1.68 1.67-5.38-5.38-3.43 3.43 31.13 31.13a9.79 9.79 0 006.95 2.88c2.52 0 5.03-.96 6.95-2.88a9.826 9.826 0 000-13.9l-27.62-27.62v.01zm24.04 38.3l-4.94 1.32-4.01-4.01 1.32-4.94 4.94-1.32 4.01 4.01-1.32 4.94zm-37.99-34.65l5.38 5.38 6.1-6.1c-.33-2.98.64-6.07 2.92-8.35 2.28-2.28 5.37-3.25 8.35-2.92l26.68-26.68L83.7.995l-26.68 26.68c.33 2.98-.64 6.07-2.92 8.35a10.182 10.182 0 01-8.35 2.92l-6.1 6.1 5.38 5.38-26.36 26.36-.96-.96-5.06 4.08-8.51 13.44 2.17 2.17 13.44-8.51 4.07-5.06-.97-.97 26.36-26.36z" fill="#EC8020"/></svg> 90.7798 78.5751L63.1598 50.9551V50.9651ZM87.1998 89.2651L82.2598 90.5851L78.2498 86.5751L79.5698 81.6351L84.5098 80.3151L88.5198 84.3251L87.1998 89.2651ZM49.2098 54.6151L54.5898 59.9951L60.6898 53.8951C60.3598 50.9151 61.3298 47.8251 63.6098 45.5451C65.8898 43.2651 68.9798 42.2951 71.9598 42.6251L98.6398 15.9451L83.6998 0.995117L57.0198 27.6751C57.3498 30.6551 56.3798 33.7451 54.0998 36.0251C51.8198 38.3051 48.7298 39.2751 45.7498 38.9451L39.6498 45.0451L45.0298 50.4251L18.6698 76.7851L17.7098 75.8251L12.6498 79.9051L4.13985 93.3451L6.30985 95.5151L19.7498 87.0051L23.8198 81.9451L22.8498 80.9751L49.2098 54.6151Z" fill="#EC8020"/>
</svg>
