<svg width="85" height="114" fill="none" xmlns="http://www.w3.org/2000/svg"><g fill="#EC8020"><path d="M61.86 84.285c-.83 0-1.66-.14-2.35-.41l-6.64-2.07-5.25 4.84c-.14.14-.41.28-.55.41l8.3 25.72c.28.83 1.52 1.11 2.07.41l6.08-7.74c.28-.41.83-.55 1.24-.41l9.4 2.77c.97.28 1.8-.55 1.38-1.52l-7.88-24.34c-1.52 1.38-3.59 2.35-5.81 2.35l.01-.01zm-51.71 23.37l9.4-2.77c.41-.14.97 0 1.24.42l6.08 7.74c.55.69 1.8.55 2.07-.42l8.3-25.72c-.14-.14-.41-.28-.55-.41l-5.12-4.7-6.64 2.07c-.83.28-1.52.42-2.35.42-2.21 0-4.29-.97-5.81-2.49l-7.88 24.34c-.55.97.28 1.8 1.24 1.52h.02zm49.57-78.86c-3.98-.31-7.24-2.68-8.69-6.2l-.15-.36a9.539 9.539 0 00-8.76-5.8c-3.81 0-7.27 2.33-8.81 5.93l-.09.23a9.973 9.973 0 01-8.51 6.19c-3.87.28-7.09 2.76-8.32 6.32a9.57 9.57 0 002.62 10.22l.31.26c2.92 2.49 4.16 6.34 3.23 10.06l-.09.38c-.6 2.8.1 5.73 1.92 7.98 1.82 2.25 4.51 3.55 7.38 3.55 1.75 0 3.47-.49 4.97-1.41l.24-.15a9.97 9.97 0 0110.47 0l.22.14c1.52.93 3.25 1.43 5.01 1.43 2.98 0 5.83-1.42 7.63-3.81a9.307 9.307 0 001.57-8.06c-.93-3.75.3-7.61 3.23-10.1 3.01-2.46 4.17-6.45 2.98-10.18-1.2-3.76-4.48-6.35-8.35-6.61l-.01-.01zm.82 11.19l-8.27 7.03 2.62 10.48c.55 1.93-1.66 3.59-3.45 2.48l-9.24-5.65-9.24 5.65c-1.79 1.1-3.86-.55-3.45-2.48l2.62-10.48-8.27-7.03c-1.52-1.38-.69-3.86 1.24-4l10.76-.83L40 25.085a2.306 2.306 0 014.28 0l4.14 10.07 10.76.83c2.07.14 2.9 2.76 1.38 4h-.02z"/><path d="M83.29 43.985c1.1-.97 1.1-2.76 0-3.86l-6.62-5.79c-.83-.69-1.1-1.79-.69-2.76l2.9-8.41c.55-1.52-.41-3.03-1.93-3.31l-8.83-1.65c-.97-.14-1.79-.97-1.93-1.93l-1.66-8.83c-.28-1.52-1.79-2.34-3.31-1.93l-8.55 2.76c-.97.28-2.07 0-2.76-.69L43.99.825c-.97-1.1-2.76-1.1-3.86 0l-5.93 6.76c-.69.83-1.79 1.1-2.76.69l-8.41-2.9c-1.52-.55-3.03.41-3.31 1.93l-1.65 8.83c-.14.97-.97 1.79-1.93 1.93l-8.83 1.66c-1.52.28-2.34 1.79-1.93 3.31l2.9 8.41c.28.97 0 2.07-.69 2.76l-6.76 5.92c-1.1.97-1.1 2.76 0 3.86l6.76 5.93c.83.69 1.1 1.79.69 2.76l-2.9 8.41c-.55 1.52.41 3.03 1.93 3.31l8.83 1.65c.97.14 1.79.97 1.93 1.93l1.65 8.83c.28 1.52 1.79 2.34 3.31 1.93l8.41-2.9c.97-.28 2.07 0 2.76.69l5.93 6.76c.97 1.1 2.76 1.1 3.86 0l5.93-6.76c.69-.83 1.79-1.1 2.76-.69l8.41 2.9c1.52.55 3.03-.41 3.31-1.93l1.65-8.83c.14-.97.97-1.79 1.93-1.93l8.83-1.65c1.52-.28 2.34-1.79 1.93-3.31l-2.9-8.41c-.28-.97 0-2.07.69-2.76l6.76-5.93zm-16.97 3.07a8.06 8.06 0 00-2.6 8.13c.9 3.37.21 6.91-1.9 9.71a11.557 11.557 0 01-9.17 4.57c-2.11 0-4.19-.59-6.01-1.71l-.22-.13a8.073 8.073 0 00-8.47 0l-.23.14c-1.81 1.11-3.87 1.7-5.98 1.7-3.45 0-6.69-1.55-8.87-4.26a11.432 11.432 0 01-2.3-9.62l.1-.41c.75-3.01-.25-6.13-2.61-8.14l-.33-.28a11.503 11.503 0 01-3.17-12.29c1.49-4.3 5.37-7.28 9.88-7.6 3.19-.25 5.82-2.16 6.99-5.01l.1-.24c1.86-4.33 6.01-7.11 10.59-7.11s8.71 2.74 10.53 6.98l.15.37a8.057 8.057 0 006.88 5c4.82.32 8.77 3.44 10.21 7.95 1.43 4.48.03 9.29-3.58 12.24l.01.01z"/></g></svg>5999 8.275 49.9099 7.585L43.9899 0.825C43.0199 -0.275 41.2299 -0.275 40.1299 0.825L34.1999 7.585C33.5099 8.415 32.4099 8.685 31.4399 8.275L23.0299 5.375C21.5099 4.825 19.9999 5.785 19.7199 7.305L18.0699 16.135C17.9299 17.105 17.0999 17.925 16.1399 18.065L7.30988 19.725C5.78988 20.005 4.96988 21.515 5.37988 23.035L8.27988 31.445C8.55988 32.415 8.27988 33.515 7.58988 34.205L0.829883 40.125C-0.270117 41.095 -0.270117 42.885 0.829883 43.985L7.58988 49.915C8.41988 50.605 8.68988 51.705 8.27988 52.675L5.37988 61.085C4.82988 62.605 5.78988 64.115 7.30988 64.395L16.1399 66.045C17.1099 66.185 17.9299 67.015 18.0699 67.975L19.7199 76.805C19.9999 78.325 21.5099 79.145 23.0299 78.735L31.4399 75.835C32.4099 75.555 33.5099 75.835 34.1999 76.525L40.1299 83.285C41.0999 84.385 42.8899 84.385 43.9899 83.285L49.9199 76.525C50.6099 75.695 51.7099 75.425 52.6799 75.835L61.0899 78.735C62.6099 79.285 64.1199 78.325 64.3999 76.805L66.0499 67.975C66.1899 67.005 67.0199 66.185 67.9799 66.045L76.8099 64.395C78.3299 64.115 79.1499 62.605 78.7399 61.085L75.8399 52.675C75.5599 51.705 75.8399 50.605 76.5299 49.915L83.2899 43.985ZM66.3199 47.055C63.9699 49.055 62.9699 52.175 63.7199 55.185C64.6199 58.555 63.9299 62.095 61.8199 64.895C59.6599 67.755 56.2299 69.465 52.6499 69.465C50.5399 69.465 48.4599 68.875 46.6399 67.755L46.4199 67.625C43.8099 66.025 40.5599 66.025 37.9499 67.625L37.7199 67.765C35.9099 68.875 33.8499 69.465 31.7399 69.465C28.2899 69.465 25.0499 67.915 22.8699 65.205C20.6799 62.495 19.8399 58.985 20.5699 55.585L20.6699 55.175C21.4199 52.165 20.4199 49.045 18.0599 47.035L17.7299 46.755C14.2899 43.635 13.0599 38.815 14.5599 34.465C16.0499 30.165 19.9299 27.185 24.4399 26.865C27.6299 26.615 30.2599 24.705 31.4299 21.855L31.5299 21.615C33.3899 17.285 37.5399 14.505 42.1199 14.505C46.6999 14.505 50.8299 17.245 52.6499 21.485L52.7999 21.855C53.9699 24.705 56.6099 26.625 59.6799 26.855C64.4999 27.175 68.4499 30.295 69.8899 34.805C71.3199 39.285 69.9199 44.095 66.3099 47.045L66.3199 47.055Z" fill="#EC8020"/>
</g>
</svg>
