<svg width="224" height="55" viewBox="0 0 224 55" fill="none" xmlns="http://www.w3.org/2000/svg">
<path d="M27.5 0C12.3142 0 0 12.3142 0 27.5C0 42.6858 12.3142 55 27.5 55C42.6858 55 55 42.6858 55 27.5C55 12.3052 42.6858 0 27.5 0ZM27.5 49.0229C15.6178 49.0229 5.97709 39.3912 5.97709 27.5C5.97709 15.6088 15.6178 5.97709 27.5 5.97709C39.3822 5.97709 49.0229 15.6088 49.0229 27.5C49.0229 39.3912 39.3912 49.0229 27.5 49.0229ZM27.5 15.6899C20.9738 15.6899 15.6899 20.9828 15.6899 27.5C15.6899 34.0172 20.9828 39.3101 27.5 39.3101C34.0172 39.3101 39.3101 34.0172 39.3101 27.5C39.3101 20.9828 34.0262 15.6899 27.5 15.6899ZM27.5 36.3486C22.6121 36.3486 18.6514 32.3879 18.6514 27.5C18.6514 22.6121 22.6121 18.6514 27.5 18.6514C32.3879 18.6514 36.3486 22.6121 36.3486 27.5C36.3486 32.3879 32.3879 36.3486 27.5 36.3486ZM27.5 7.49836C16.455 7.49836 7.49836 16.455 7.49836 27.509C7.49836 38.563 16.455 47.5106 27.5 47.5106C38.545 47.5106 47.5016 38.554 47.5016 27.509C47.5016 16.455 38.545 7.49836 27.5 7.49836ZM34.0262 11.8011C34.6383 10.748 35.9885 10.3879 37.0417 10.991C38.0949 11.6031 38.455 12.9444 37.8519 14.0065C37.2398 15.0597 35.8895 15.4198 34.8363 14.8167C33.7831 14.2046 33.4231 12.8543 34.0262 11.8011ZM41.2275 27.509C41.2275 35.0884 35.0794 41.2275 27.509 41.2275C19.9386 41.2275 13.7905 35.0884 13.7905 27.509C13.7905 19.9296 19.9296 13.7815 27.509 13.7815C35.0884 13.7815 41.2275 19.9206 41.2275 27.509ZM27.5 8.43453C28.7152 8.43453 29.7054 9.42471 29.7054 10.6399C29.7054 11.8552 28.7152 12.8453 27.5 12.8453C26.2848 12.8453 25.2946 11.8552 25.2946 10.6399C25.2946 9.42471 26.2848 8.43453 27.5 8.43453ZM17.9673 10.991C19.0205 10.3789 20.3707 10.739 20.9828 11.8011C21.5949 12.8543 21.2349 14.2046 20.1727 14.8167C19.1195 15.4288 17.7692 15.0687 17.1571 14.0065C16.545 12.9534 16.9051 11.6031 17.9673 10.991ZM10.982 17.9763C11.5941 16.9231 12.9444 16.563 13.9975 17.1661C15.0507 17.7782 15.4108 19.1285 14.8077 20.1817C14.1956 21.2349 12.8453 21.5949 11.7921 20.9918C10.739 20.3797 10.3789 19.0295 10.982 17.9763ZM8.42553 27.509C8.42553 26.2938 9.41571 25.3036 10.6309 25.3036C11.8462 25.3036 12.8363 26.2938 12.8363 27.509C12.8363 28.7242 11.8462 29.7144 10.6309 29.7144C9.41571 29.7144 8.42553 28.7242 8.42553 27.509ZM13.9975 37.8519C12.9444 38.464 11.5941 38.1039 10.982 37.0417C10.3699 35.9885 10.73 34.6383 11.7921 34.0262C12.8453 33.4141 14.1956 33.7831 14.8077 34.8363C15.4198 35.8895 15.0597 37.2398 13.9975 37.8519ZM20.9738 43.2169C20.3617 44.2701 19.0115 44.6301 17.9583 44.027C16.9051 43.4149 16.545 42.0737 17.1481 41.0115C17.7602 39.9583 19.1105 39.5982 20.1637 40.2013C21.2169 40.8134 21.5769 42.1547 20.9738 43.2169ZM27.5 46.5745C26.2848 46.5745 25.2946 45.5843 25.2946 44.3691C25.2946 43.1539 26.2848 42.1637 27.5 42.1637C28.7152 42.1637 29.7054 43.1539 29.7054 44.3691C29.7054 45.5843 28.7152 46.5745 27.5 46.5745ZM37.0327 44.018C35.9795 44.6301 34.6293 44.2701 34.0172 43.2079C33.4051 42.1547 33.7651 40.8044 34.8273 40.1923C35.8805 39.5802 37.2308 39.9403 37.8429 41.0025C38.455 42.0556 38.0949 43.4059 37.0327 44.018ZM44.018 37.0327C43.4059 38.0859 42.0556 38.455 41.0025 37.8429C39.9493 37.2308 39.5892 35.8805 40.1923 34.8273C40.8044 33.7741 42.1547 33.4141 43.2079 34.0172C44.2611 34.6293 44.6211 35.9795 44.018 37.0327ZM46.5745 27.5C46.5745 28.7152 45.5843 29.7054 44.3691 29.7054C43.1539 29.7054 42.1637 28.7152 42.1637 27.5C42.1637 26.2848 43.1539 25.2946 44.3691 25.2946C45.5843 25.2946 46.5745 26.2848 46.5745 27.5ZM44.018 17.9583C44.6301 19.0115 44.2701 20.3617 43.2079 20.9738C42.1547 21.5859 40.8044 21.2169 40.1923 20.1637C39.5802 19.1105 39.9403 17.7602 41.0025 17.1481C42.0556 16.536 43.4059 16.9051 44.018 17.9583ZM146.493 42.5057V27.653C146.493 21.7119 143.522 18.7324 137.572 18.7324H128.651V10.0908H122.71V42.5147H128.651V24.6825H137.572C139.552 24.6825 140.543 25.6727 140.543 27.653V42.5147H146.484L146.493 42.5057ZM187.846 10.0908H181.905V18.7324H176.189V24.6735H181.905V42.5057H187.846V24.6825H191.591L194.237 18.7414H187.846V10.0908ZM218.11 18.7324H198.99L196.344 24.6735H208.757L194.327 36.5646V42.5057H218.101V36.5646H203.671L218.101 24.6735V18.7324H218.11ZM221.314 12.6113C221.224 12.5213 221.116 12.4313 220.981 12.3592C221.251 12.3232 221.449 12.2242 221.584 12.0802C221.719 11.9362 221.782 11.7381 221.782 11.5131C221.782 11.3331 221.737 11.171 221.647 11.027C221.557 10.883 221.44 10.793 221.287 10.73C221.143 10.6759 220.9 10.6489 220.576 10.6489H219.28V13.7095H219.901V12.4313H220.027C220.171 12.4313 220.27 12.4403 220.342 12.4673C220.405 12.4943 220.468 12.5303 220.531 12.5933C220.585 12.6563 220.702 12.8093 220.855 13.0434L221.305 13.7095H222.043L221.674 13.1154C221.53 12.8813 221.413 12.7103 221.323 12.6203L221.314 12.6113ZM220.36 11.9362H219.901V11.162H220.387C220.639 11.162 220.783 11.162 220.837 11.171C220.936 11.189 221.017 11.225 221.071 11.2881C221.125 11.3511 221.152 11.4321 221.152 11.5401C221.152 11.6301 221.134 11.7111 221.089 11.7651C221.044 11.8191 220.99 11.8732 220.918 11.8912C220.846 11.9182 220.657 11.9272 220.36 11.9272V11.9362ZM220.423 9.24468C218.776 9.24468 217.444 10.5859 217.444 12.2242C217.444 13.8625 218.785 15.2038 220.423 15.2038C222.061 15.2038 223.403 13.8625 223.403 12.2242C223.403 10.5859 222.061 9.24468 220.423 9.24468ZM220.423 14.7357C219.046 14.7357 217.921 13.6105 217.921 12.2332C217.921 10.856 219.046 9.73077 220.423 9.73077C221.8 9.73077 222.926 10.856 222.926 12.2332C222.926 13.6105 221.8 14.7357 220.423 14.7357ZM82.725 23.0622H69.7537C67.5933 23.0622 66.5131 21.982 66.5131 19.8216C66.5131 17.6612 67.5933 16.581 69.7537 16.581H86.8298L89.7103 10.0998H69.7537C63.2725 10.0998 60.0229 13.3404 60.0229 19.8306C60.0229 26.3208 63.2635 29.5614 69.7537 29.5614H82.725C84.8854 29.5614 85.9656 30.6416 85.9656 32.802C85.9656 34.9624 84.8854 36.0426 82.725 36.0426H59.7439V42.5237H82.725C89.2062 42.5237 92.4558 39.2831 92.4558 32.793C92.4558 26.3028 89.2152 23.0622 82.725 23.0622ZM119.47 36.5737H104.608C102.628 36.5737 101.637 35.5835 101.637 33.6031V27.662C101.637 25.6817 102.628 24.6915 104.608 24.6915H116.94L119.47 19.0115V18.7504H104.608C98.6669 18.7504 95.6874 21.7209 95.6874 27.671V33.6121C95.6874 39.5532 98.6579 42.5327 104.608 42.5327H119.47V36.5917V36.5737ZM164.595 18.7414H153.676L151.029 24.6825H164.586C166.566 24.6825 167.556 25.6547 167.556 27.599V27.653H157.178C152.209 27.653 149.724 30.0835 149.724 34.9444C149.724 39.8052 152.209 42.5057 157.178 42.5057H173.498V27.653C173.498 21.7119 170.527 18.7324 164.577 18.7324L164.595 18.7414ZM167.565 36.5737H157.187C156.178 36.5737 155.674 36.0696 155.674 35.0614C155.674 34.0532 156.178 33.6031 157.187 33.6031H167.565V36.5737Z" fill="white"/>
<path d="M62.7235 51.2829H64.8118V51.5169C64.8118 52.048 64.7578 52.4531 64.6498 52.7321C64.5418 53.0112 64.3528 53.2182 64.0737 53.3352C63.7947 53.4522 63.3896 53.5153 62.8585 53.5153C62.4534 53.5153 62.1294 53.4793 61.8863 53.4072C61.6433 53.3352 61.4452 53.2092 61.3012 53.0202C61.1572 52.8311 61.0582 52.5701 60.9951 52.219C60.9321 51.877 60.9051 51.4179 60.9051 50.8418C60.9051 50.2657 60.9321 49.8066 60.9951 49.4555C61.0582 49.1045 61.1572 48.8344 61.3012 48.6454C61.4452 48.4563 61.6343 48.3213 61.8773 48.2403C62.1203 48.1593 62.4444 48.1233 62.8495 48.1233C63.3986 48.1233 63.8037 48.1593 64.0647 48.2313C64.3258 48.3033 64.5058 48.4383 64.6048 48.6184C64.7038 48.7984 64.7668 49.0865 64.7938 49.4645H65.496C65.451 48.9514 65.3699 48.5554 65.2439 48.2943C65.1179 48.0333 64.8659 47.8262 64.5058 47.6912C64.1367 47.5562 63.5876 47.4932 62.8495 47.4932C62.3094 47.4932 61.8683 47.5472 61.5262 47.6642C61.1842 47.7722 60.9141 47.9613 60.7161 48.2133C60.5181 48.4653 60.374 48.8074 60.293 49.2305C60.212 49.6536 60.167 50.1937 60.167 50.8418C60.167 51.4899 60.203 52.03 60.284 52.4531C60.365 52.8671 60.5001 53.2002 60.6981 53.4523C60.8961 53.7043 61.1662 53.8753 61.5082 53.9833C61.8503 54.0914 62.3004 54.1454 62.8495 54.1454C63.3986 54.1454 63.8127 54.1004 64.1547 54.0194C64.4968 53.9383 64.7578 53.7943 64.9649 53.5963C65.1629 53.3982 65.3069 53.1282 65.3969 52.7771C65.487 52.4261 65.532 51.967 65.532 51.3999V50.6437H62.7145V51.2739L62.7235 51.2829ZM67.7014 54.0824H71.8781V53.4342H68.4305V51.0668H71.7431V50.4277H68.4305V48.2133H71.8961V47.5652H67.7014V54.0824ZM77.2791 47.5652H74.1825V54.0824H74.9027V51.4719H77.1081C77.3961 51.4719 77.6212 51.5079 77.8102 51.5799C77.9902 51.6519 78.1253 51.7689 78.2153 51.931C78.3053 52.093 78.3503 52.318 78.3503 52.6061V54.0824H79.0794V52.4351C79.0794 51.6519 78.7374 51.2378 78.0532 51.1928C78.3863 51.1298 78.6384 51.0218 78.8004 50.8688C78.9624 50.7158 79.0614 50.5267 79.1064 50.3107C79.1514 50.0946 79.1695 49.8156 79.1785 49.4735C79.1785 48.7984 79.0164 48.3123 78.7104 48.0153C78.4043 47.7182 77.9272 47.5652 77.2791 47.5652ZM78.2963 50.3917C78.1973 50.5717 78.0532 50.6887 77.8552 50.7518C77.6572 50.8148 77.3781 50.8508 77.0361 50.8508H74.9027V48.2133H77.2791C77.5582 48.2133 77.7742 48.2583 77.9452 48.3573C78.1163 48.4563 78.2423 48.6094 78.3233 48.8164C78.4043 49.0234 78.4403 49.2935 78.4403 49.6176C78.4403 49.9416 78.3953 50.2027 78.2963 50.3827V50.3917ZM85.1375 53.1552L82.8421 47.5652H81.6359V54.0914H82.356V48.1593L84.8315 54.0914H85.4616L87.919 48.0963V54.0914H88.6392V47.5652H87.451L85.1375 53.1552ZM93.248 47.5742L90.8716 54.0914H91.6547L92.1768 52.7501H95.4624L95.9485 54.0914H96.7226L94.2922 47.5742H93.239H93.248ZM92.3478 52.111L93.7791 48.1143L95.2194 52.111H92.3388H92.3478ZM103.69 53.5243L100.017 47.5742H98.865V54.0914H99.5852V48.2043L103.258 54.0914H104.401V47.5742H103.681V53.5243H103.69ZM115.581 50.8328C115.581 50.1126 115.536 49.5365 115.455 49.1135C115.374 48.6904 115.23 48.3573 115.023 48.1233C114.825 47.8892 114.546 47.7272 114.204 47.6462C113.862 47.5652 113.394 47.5112 112.8 47.5112C112.205 47.5112 111.773 47.5562 111.431 47.6462C111.089 47.7362 110.819 47.8982 110.621 48.1323C110.423 48.3663 110.279 48.6994 110.198 49.1225C110.117 49.5545 110.072 50.1216 110.072 50.8238C110.072 51.5259 110.117 52.111 110.198 52.5341C110.279 52.9572 110.423 53.2902 110.621 53.5243C110.819 53.7583 111.089 53.9203 111.44 54.0104C111.782 54.1004 112.241 54.1454 112.818 54.1454C113.133 54.1454 113.412 54.1454 113.637 54.1274C113.871 54.1094 114.078 54.0824 114.267 54.0374C114.456 53.9923 114.636 53.9203 114.789 53.8303C114.942 53.7403 115.086 53.6143 115.221 53.4523L115.707 53.7853L116.004 53.2902L115.455 52.9121C115.536 52.6601 115.572 51.958 115.572 50.8238L115.581 50.8328ZM114.816 52.4891L112.926 51.2468L112.593 51.7599L114.618 53.0742C114.519 53.2002 114.393 53.2902 114.249 53.3532C114.096 53.4162 113.916 53.4522 113.7 53.4793C113.484 53.5063 113.187 53.5063 112.8 53.5063C112.331 53.5063 111.971 53.4703 111.719 53.4072C111.467 53.3352 111.269 53.2092 111.134 53.0292C110.999 52.8491 110.909 52.5881 110.864 52.255C110.819 51.922 110.792 51.4449 110.792 50.8328C110.792 50.2207 110.81 49.7436 110.864 49.4015C110.909 49.0595 110.999 48.7984 111.125 48.6184C111.26 48.4383 111.449 48.3123 111.701 48.2403C111.953 48.1773 112.313 48.1413 112.782 48.1413C113.25 48.1413 113.619 48.1773 113.871 48.2403C114.132 48.3033 114.33 48.4293 114.474 48.6094C114.609 48.7894 114.708 49.0504 114.762 49.3925C114.816 49.7346 114.834 50.2117 114.834 50.8328C114.834 51.823 114.825 52.3811 114.798 52.4891H114.816ZM122.512 52.129C122.512 52.5431 122.467 52.8401 122.377 53.0292C122.287 53.2182 122.116 53.3442 121.873 53.4072C121.63 53.4703 121.225 53.4973 120.676 53.4973C120.127 53.4973 119.731 53.4703 119.479 53.4072C119.227 53.3442 119.065 53.2182 118.975 53.0292C118.885 52.8401 118.84 52.5431 118.84 52.129V47.5652H118.12V52.147C118.12 52.6151 118.174 52.9842 118.291 53.2542C118.399 53.5243 118.561 53.7313 118.777 53.8573C118.993 53.9833 119.236 54.0644 119.533 54.1004C119.821 54.1364 120.199 54.1544 120.676 54.1544C121.333 54.1544 121.828 54.1184 122.179 54.0374C122.53 53.9563 122.791 53.7763 122.971 53.4883C123.151 53.2002 123.25 52.7501 123.25 52.138V47.5562H122.53V52.12L122.512 52.129ZM127.769 47.5652L125.393 54.0824H126.176L126.698 52.7411H129.984L130.47 54.0824H131.244L128.813 47.5652H127.76H127.769ZM126.869 52.102L128.3 48.1053L129.741 52.102H126.86H126.869ZM134.124 47.5652H133.395V54.0824H137.41V53.4252H134.124V47.5742V47.5652ZM139.507 54.0734H140.246V47.5742H139.507V54.0734ZM142.244 48.2313H144.377V54.0824H145.106V48.2313H147.222V47.5742H142.244V48.2313ZM151.633 50.6797L149.661 47.5652H148.851L151.246 51.3549V54.0734H151.975V51.3549L154.441 47.5652H153.613L151.642 50.6797H151.633Z" fill="white"/>
</svg>
