<svg width="157" height="130" fill="none" xmlns="http://www.w3.org/2000/svg"><path d="M113.11 36.09C113.11 16.156 97.026 0 77.178 0 57.33 0 41.246 16.155 41.246 36.09c0 19.936 16.084 36.091 35.932 36.091 19.848 0 35.932-16.155 35.932-36.09zm-64.05 0c0-15.605 12.594-28.241 28.118-28.241s28.118 12.636 28.118 28.242c0 15.592-12.594 28.242-28.118 28.242S49.06 51.683 49.06 36.09zm43.551 0c0-8.554-6.902-15.5-15.433-15.5-8.517 0-15.433 6.946-15.433 15.5 0 8.556 6.916 15.502 15.433 15.502 8.518 0 15.433-6.946 15.433-15.501zm-26.985 0c0-6.409 5.17-11.602 11.552-11.602S88.73 29.68 88.73 36.09s-5.17 11.603-11.552 11.603S65.626 42.5 65.626 36.09zm37.691 0c0-14.506-11.696-26.253-26.139-26.253-14.43 0-26.138 11.747-26.138 26.254 0 14.494 11.708 26.253 26.138 26.253 14.43 0 26.139-11.746 26.139-26.253zm-5.614 8.556a2.899 2.899 0 011.055 3.95 2.873 2.873 0 01-3.933 1.06 2.896 2.896 0 01-1.055-3.95 2.873 2.873 0 013.933-1.06zM77.178 54.09c-9.898 0-17.92-8.058-17.92-18 0-9.94 8.022-18.012 17.92-18.012 9.898 0 17.934 8.058 17.934 18.013 0 9.954-8.023 18-17.934 18zm24.914-18a2.885 2.885 0 01-2.878 2.892 2.885 2.885 0 01-2.878-2.891 2.886 2.886 0 012.878-2.891 2.885 2.885 0 012.878 2.89zm-3.334-12.518a2.896 2.896 0 01-1.055 3.95 2.87 2.87 0 01-3.933-1.059 2.896 2.896 0 011.055-3.95 2.87 2.87 0 013.933 1.06zm-9.116-9.157a2.896 2.896 0 011.055 3.95 2.87 2.87 0 01-3.934 1.06 2.899 2.899 0 01-1.054-3.95 2.87 2.87 0 013.933-1.06zm-12.464-3.348a2.885 2.885 0 012.878 2.89 2.886 2.886 0 01-2.878 2.892 2.886 2.886 0 01-2.878-2.892c0-1.595 1.29-2.89 2.878-2.89zM63.66 18.366a2.896 2.896 0 011.055-3.95 2.87 2.87 0 013.933 1.059 2.896 2.896 0 01-1.055 3.95 2.87 2.87 0 01-3.933-1.06zm-7.007 9.157a2.896 2.896 0 01-1.055-3.95 2.87 2.87 0 013.933-1.06 2.899 2.899 0 011.055 3.95 2.87 2.87 0 01-3.933 1.06zm-4.39 8.555a2.886 2.886 0 012.88-2.891 2.885 2.885 0 012.877 2.89 2.885 2.885 0 01-2.878 2.892 2.885 2.885 0 01-2.878-2.891zm3.335 12.518a2.896 2.896 0 011.055-3.95 2.87 2.87 0 013.933 1.06 2.896 2.896 0 01-1.055 3.95 2.87 2.87 0 01-3.933-1.06zm9.117 9.157a2.896 2.896 0 01-1.055-3.95 2.872 2.872 0 013.933-1.06 2.896 2.896 0 011.055 3.95 2.87 2.87 0 01-3.933 1.06zm12.463 3.349A2.885 2.885 0 0174.3 58.21a2.886 2.886 0 012.878-2.891 2.885 2.885 0 012.878 2.89 2.885 2.885 0 01-2.878 2.892zm12.45-3.349a2.87 2.87 0 01-3.932-1.06 2.896 2.896 0 011.055-3.95 2.87 2.87 0 013.933 1.06 2.896 2.896 0 01-1.055 3.95zM77.153 88.847H68.31V80.24h-5.887v32.284h5.887V94.773h8.843c1.967 0 2.943.98 2.943 2.956v14.795h5.887V97.729c0-5.913-2.943-8.882-8.843-8.882h.013zm53.553 5.913l2.618-5.913h-6.329V80.24h-5.887v8.607h-5.665v5.913h5.665v17.751h5.887V94.76h3.711zm11.982 11.838l14.3-11.838v-5.913h-18.949l-2.618 5.913h12.307l-14.3 11.838v5.913H157v-5.913h-14.313zm-110.271-3.767c0-6.463-3.217-9.68-9.638-9.68H9.924c-2.149 0-3.217-1.073-3.217-3.231 0-2.159 1.068-3.231 3.217-3.231h16.93l2.866-6.463H9.924c-6.434 0-9.637 3.231-9.637 9.68 0 6.45 3.216 9.68 9.637 9.68h12.854c2.15 0 3.217 1.073 3.217 3.231 0 2.159-1.068 3.232-3.217 3.232H0v6.462h22.778c6.434 0 9.638-3.231 9.638-9.68zm12.06 3.767c-1.967 0-2.944-.981-2.944-2.956v-5.913c0-1.975.977-2.956 2.944-2.956h12.229l2.5-5.651v-.262h-14.73c-5.886 0-8.842 2.956-8.842 8.882v5.913c0 5.912 2.943 8.882 8.843 8.882h14.73v-5.913h-14.73v-.026zm59.466-17.751H93.119l-2.618 5.913h13.441c1.966 0 2.943.968 2.943 2.903v.053H96.596c-4.923 0-7.397 2.42-7.397 7.26 0 5.023 2.461 7.535 7.397 7.535h16.176V97.716c0-5.913-2.944-8.882-8.843-8.882l.013.013zm2.943 14.795v2.956h-10.29c-1.002 0-1.497-.497-1.497-1.504 0-1.008.495-1.452 1.497-1.452h10.289zm-13.948 25.155c.156.366.364.641.65.811.287.17.626.287 1.017.327.39.039.898.065 1.537.065.885 0 1.55-.052 2.018-.157.469-.105.82-.353 1.068-.733.248-.379.378-.994.378-1.818v-6.187h-.964v6.161c0 .549-.065.955-.182 1.217-.118.248-.352.418-.678.51-.338.078-.872.131-1.614.131-.743 0-1.277-.04-1.602-.131-.339-.092-.56-.249-.678-.51-.117-.249-.182-.654-.182-1.217v-6.161h-.964v6.187c0 .628.079 1.125.222 1.491l-.026.014zm25.708 1.111v-.889h-4.415v-7.901h-.976v8.79h5.404-.013zm-15.107 0l.703-1.805h4.415l.651 1.805h1.042l-3.256-8.79h-1.406l-3.191 8.79h1.055-.013zm.938-2.668l1.927-5.403 1.941 5.403h-3.868zm32.754 2.668h.977v-3.675l3.308-5.115h-1.107l-2.644 4.199-2.657-4.199h-1.081l3.217 5.115v3.675h-.013zm-15.759-8.777v8.764h.99v-8.764h-.99zm6.538.876v7.901h.977v-7.901h2.839v-.889h-6.681v.889h2.865zm-40.464 7.836c.26-.065.495-.157.703-.275.209-.117.404-.287.586-.51l.651.445.404-.667-.742-.51c.104-.34.17-1.282.17-2.813 0-.968-.053-1.753-.17-2.328-.117-.576-.3-1.021-.573-1.335-.274-.313-.638-.523-1.107-.654-.47-.117-1.094-.183-1.889-.183-.794 0-1.38.066-1.836.183-.456.118-.82.341-1.094.654-.26.314-.456.759-.573 1.348-.117.575-.17 1.347-.17 2.302 0 .955.053 1.727.17 2.302.104.576.3 1.021.573 1.335.273.314.638.536 1.094.667.456.131 1.081.183 1.85.183.43 0 .794 0 1.106-.026.313-.013.586-.066.847-.118zm-3.412-.85c-.339-.092-.6-.262-.782-.51-.182-.249-.3-.602-.364-1.047-.066-.458-.091-1.099-.091-1.923 0-.824.025-1.478.09-1.936.066-.458.183-.811.352-1.059.183-.249.43-.419.782-.511.351-.091.82-.13 1.458-.13s1.12.039 1.472.13c.352.092.612.262.808.498.182.248.312.588.377 1.046.065.458.104 1.099.104 1.936 0 1.334-.013 2.08-.052 2.237l-2.54-1.674-.442.693 2.722 1.779c-.13.17-.3.301-.495.379a2.575 2.575 0 01-.742.17c-.3.026-.69.039-1.212.039-.625 0-1.107-.039-1.445-.143v.026zm-40.426-7.888v8.803h.964v-8.005l3.334 8.005h.847l3.308-8.084v8.084h.963v-8.803h-1.601l-3.113 7.548-3.087-7.548h-1.628.013zm23.156 0v8.79h.964v-7.94l4.936 7.94H74.3v-8.79h-.964v8.032l-4.923-8.032h-1.55zm-36.257 0H24.98v8.79h5.614v-.876h-4.637v-3.192h4.454v-.85h-4.454v-2.996h4.663v-.863l-.013-.013zm-9.286 8.149c.26-.261.456-.641.573-1.112.117-.47.169-1.085.169-1.857v-1.02h-3.79v.85h2.8v.314c0 .719-.065 1.256-.208 1.648a1.387 1.387 0 01-.768.811c-.378.157-.912.249-1.628.249-.534 0-.977-.053-1.303-.144a1.496 1.496 0 01-.781-.523c-.196-.249-.326-.615-.404-1.073-.078-.458-.117-1.086-.117-1.858 0-.771.039-1.399.117-1.87.078-.471.221-.837.404-1.086a1.39 1.39 0 01.781-.536c.326-.105.769-.157 1.316-.157.742 0 1.289.052 1.64.144.352.104.6.274.73.523.13.248.221.628.247 1.138h.951c-.052-.693-.17-1.217-.339-1.583-.169-.366-.508-.628-.99-.811-.494-.183-1.237-.275-2.226-.275-.73 0-1.329.079-1.785.223-.456.157-.82.392-1.08.732-.261.34-.457.798-.56 1.374-.118.575-.17 1.295-.17 2.171 0 .877.052 1.609.156 2.172.104.562.3 1.007.56 1.347.26.34.626.576 1.094.72.47.143 1.068.222 1.798.222.729 0 1.302-.052 1.758-.17.456-.118.82-.301 1.08-.563h-.025zm17.243-2.747c.247.092.43.249.547.484.117.223.182.524.182.903v1.988h.977v-2.224c0-1.059-.456-1.608-1.38-1.674.455-.078.781-.235 1.002-.445.222-.209.352-.457.417-.745.052-.288.091-.667.091-1.125 0-.916-.221-1.57-.625-1.962-.404-.393-1.055-.602-1.927-.602h-4.155v8.79h.964v-3.518h2.97c.377 0 .69.052.937.143v-.013zm-3.907-.981v-3.558h3.19c.365 0 .665.066.9.196.234.131.403.341.507.615.104.275.157.641.157 1.086 0 .445-.066.785-.196 1.033a1.03 1.03 0 01-.599.497c-.273.092-.638.131-1.107.131h-2.865.013zm24.64-4.434l-3.19 8.79h1.055l.703-1.805h4.415l.651 1.805h1.042l-3.256-8.79h-1.42zm2.67 6.122H58.1l1.927-5.403 1.94 5.403z" fill="url(#paint0_linear_1110_2535)"/><defs><linearGradient id="paint0_linear_1110_2535" x1="78.493" y1="0" x2="78.493" y2="130.039" gradientUnits="userSpaceOnUse"><stop stop-color="#888A8D"/><stop offset=".14" stop-color="#ACADAF"/><stop offset=".46" stop-color="#fff"/><stop offset=".57" stop-color="#BCBCBC"/><stop offset=".65" stop-color="#929292"/><stop offset=".69" stop-color="#828282"/><stop offset=".72" stop-color="#7E7E7E"/><stop offset=".75" stop-color="#737373"/><stop offset=".78" stop-color="#606060"/><stop offset=".8" stop-color="#464646"/><stop offset=".82" stop-color="#363636"/><stop offset=".83" stop-color="#393939"/><stop offset=".85" stop-color="#444"/><stop offset=".87" stop-color="#575757"/><stop offset=".88" stop-color="#717171"/><stop offset=".89" stop-color="#828282"/></linearGradient></defs></svg>