<svg width="508" height="125" viewBox="0 0 508 125" fill="none" xmlns="http://www.w3.org/2000/svg">
<path d="M62.5 0C27.9869 0 0 27.9869 0 62.5C0 97.0131 27.9869 125 62.5 125C97.0131 125 125 97.0131 125 62.5C125 27.9665 97.0131 0 62.5 0ZM62.5 111.416C35.4951 111.416 13.5843 89.5254 13.5843 62.5C13.5843 35.4746 35.4951 13.5843 62.5 13.5843C89.5049 13.5843 111.416 35.4746 111.416 62.5C111.416 89.5254 89.5254 111.416 62.5 111.416ZM62.5 35.6588C47.6678 35.6588 35.6588 47.6882 35.6588 62.5C35.6588 77.3118 47.6882 89.3412 62.5 89.3412C77.3118 89.3412 89.3412 77.3118 89.3412 62.5C89.3412 47.6882 77.3322 35.6588 62.5 35.6588ZM62.5 82.6105C51.3912 82.6105 42.3895 73.6088 42.3895 62.5C42.3895 51.3912 51.3912 42.3895 62.5 42.3895C73.6088 42.3895 82.6105 51.3912 82.6105 62.5C82.6105 73.6088 73.6088 82.6105 62.5 82.6105ZM62.5 17.0417C37.3977 17.0417 17.0417 37.3977 17.0417 62.5205C17.0417 87.6432 37.3977 107.979 62.5 107.979C87.6023 107.979 107.958 87.6228 107.958 62.5205C107.958 37.3977 87.6023 17.0417 62.5 17.0417ZM77.3322 26.8208C78.7234 24.4272 81.7921 23.6088 84.1858 24.9795C86.5794 26.3707 87.3977 29.419 86.027 31.8331C84.6358 34.2267 81.5671 35.045 79.1735 33.6743C76.7799 32.2831 75.9615 29.2144 77.3322 26.8208ZM93.6989 62.5205C93.6989 79.7463 79.7259 93.6989 62.5205 93.6989C45.3151 93.6989 31.3421 79.7463 31.3421 62.5205C31.3421 45.2946 45.2946 31.3216 62.5205 31.3216C79.7463 31.3216 93.6989 45.2741 93.6989 62.5205ZM62.5 19.1694C65.2619 19.1694 67.5123 21.4198 67.5123 24.1817C67.5123 26.9435 65.2619 29.1939 62.5 29.1939C59.7381 29.1939 57.4877 26.9435 57.4877 24.1817C57.4877 21.4198 59.7381 19.1694 62.5 19.1694ZM40.8347 24.9795C43.2283 23.5884 46.2971 24.4067 47.6882 26.8208C49.0794 29.2144 48.261 32.2831 45.847 33.6743C43.4534 35.0655 40.3846 34.2471 38.9935 31.8331C37.6023 29.4394 38.4206 26.3707 40.8347 24.9795ZM24.9591 40.8552C26.3502 38.4615 29.419 37.6432 31.8126 39.0139C34.2062 40.4051 35.0246 43.4738 33.6538 45.8674C32.2627 48.2611 29.1939 49.0794 26.8003 47.7087C24.4067 46.3175 23.5884 43.2488 24.9591 40.8552ZM19.1489 62.5205C19.1489 59.7586 21.3993 57.5082 24.1612 57.5082C26.9231 57.5082 29.1735 59.7586 29.1735 62.5205C29.1735 65.2823 26.9231 67.5327 24.1612 67.5327C21.3993 67.5327 19.1489 65.2823 19.1489 62.5205ZM31.8126 86.027C29.419 87.4182 26.3502 86.5998 24.9591 84.1858C23.5679 81.7922 24.3863 78.7234 26.8003 77.3322C29.1939 75.9411 32.2627 76.7799 33.6538 79.1735C35.045 81.5671 34.2267 84.6358 31.8126 86.027ZM47.6678 98.2201C46.2766 100.614 43.2079 101.432 40.8142 100.061C38.4206 98.6702 37.6023 95.6219 38.973 93.2079C40.3642 90.8142 43.4329 89.9959 45.8265 91.3666C48.2201 92.7578 49.0385 95.8061 47.6678 98.2201ZM62.5 105.851C59.7381 105.851 57.4877 103.601 57.4877 100.839C57.4877 98.0769 59.7381 95.8265 62.5 95.8265C65.2619 95.8265 67.5123 98.0769 67.5123 100.839C67.5123 103.601 65.2619 105.851 62.5 105.851ZM84.1653 100.041C81.7717 101.432 78.7029 100.614 77.3118 98.1997C75.9206 95.8061 76.7389 92.7373 79.153 91.3462C81.5466 89.955 84.6154 90.7733 86.0065 93.1874C87.3977 95.581 86.5794 98.6498 84.1653 100.041ZM100.041 84.1653C98.6498 86.5589 95.581 87.3977 93.1874 86.0066C90.7938 84.6154 89.9754 81.5466 91.3462 79.153C92.7373 76.7594 95.8061 75.9411 98.1997 77.3118C100.593 78.703 101.412 81.7717 100.041 84.1653ZM105.851 62.5C105.851 65.2619 103.601 67.5123 100.839 67.5123C98.0769 67.5123 95.8265 65.2619 95.8265 62.5C95.8265 59.7381 98.0769 57.4877 100.839 57.4877C103.601 57.4877 105.851 59.7381 105.851 62.5ZM100.041 40.8142C101.432 43.2079 100.614 46.2766 98.1997 47.6678C95.8061 49.0589 92.7373 48.2201 91.3462 45.8265C89.955 43.4329 90.7733 40.3642 93.1874 38.973C95.581 37.5818 98.6498 38.4206 100.041 40.8142ZM332.938 96.6039V62.8478C332.938 49.3453 326.187 42.5737 312.664 42.5737H292.389V22.9337H278.887V96.6244H292.389V56.0966H312.664C317.164 56.0966 319.415 58.347 319.415 62.8478V96.6244H332.917L332.938 96.6039ZM426.923 22.9337H413.421V42.5737H400.43V56.0761H413.421V96.6039H426.923V56.0966H435.434L441.448 42.5941H426.923V22.9337ZM495.704 42.5737H452.25L446.236 56.0761H474.448L441.653 83.1015V96.6039H495.683V83.1015H462.889L495.683 56.0761V42.5737H495.704ZM502.987 28.662C502.782 28.4574 502.537 28.2529 502.23 28.0892C502.844 28.0074 503.294 27.7823 503.601 27.455C503.908 27.1277 504.051 26.6776 504.051 26.1661C504.051 25.757 503.948 25.3887 503.744 25.0614C503.539 24.734 503.273 24.5295 502.926 24.3863C502.598 24.2635 502.046 24.2021 501.309 24.2021H498.363V31.1579H499.775V28.2529H500.061C500.389 28.2529 500.614 28.2733 500.777 28.3347C500.921 28.3961 501.064 28.4779 501.207 28.6211C501.33 28.7643 501.596 29.1121 501.944 29.644L502.966 31.1579H504.644L503.805 29.8077C503.478 29.2758 503.212 28.8871 503.007 28.6825L502.987 28.662ZM500.818 27.1277H499.775V25.3682H500.88C501.453 25.3682 501.78 25.3682 501.903 25.3887C502.128 25.4296 502.312 25.5115 502.435 25.6547C502.557 25.7979 502.619 25.982 502.619 26.2275C502.619 26.4321 502.578 26.6162 502.475 26.739C502.373 26.8617 502.25 26.9845 502.087 27.0254C501.923 27.0867 501.493 27.1072 500.818 27.1072V27.1277ZM500.962 21.0106C497.218 21.0106 494.19 24.0589 494.19 27.7823C494.19 31.5057 497.238 34.554 500.962 34.554C504.685 34.554 507.733 31.5057 507.733 27.7823C507.733 24.0589 504.685 21.0106 500.962 21.0106ZM500.962 33.4902C497.831 33.4902 495.274 30.9329 495.274 27.8028C495.274 24.6727 497.831 22.1154 500.962 22.1154C504.092 22.1154 506.649 24.6727 506.649 27.8028C506.649 30.9329 504.092 33.4902 500.962 33.4902ZM188.011 52.4141H158.531C153.621 52.4141 151.166 49.9591 151.166 45.0491C151.166 40.1391 153.621 37.6841 158.531 37.6841H197.34L203.887 22.9542H158.531C143.801 22.9542 136.416 30.3192 136.416 45.0696C136.416 59.82 143.781 67.185 158.531 67.185H188.011C192.921 67.185 195.376 69.6399 195.376 74.5499C195.376 79.4599 192.921 81.9149 188.011 81.9149H135.782V96.6449H188.011C202.741 96.6449 210.127 89.2799 210.127 74.5295C210.127 59.7791 202.762 52.4141 188.011 52.4141ZM271.522 83.1219H237.745C233.245 83.1219 230.994 80.8715 230.994 76.3707V62.8683C230.994 58.3674 233.245 56.117 237.745 56.117H265.773L271.522 43.2079V42.6146H237.745C224.243 42.6146 217.471 49.3658 217.471 62.8887V76.3912C217.471 89.8936 224.223 96.6653 237.745 96.6653H271.522V83.1629V83.1219ZM374.079 42.5941H349.263L343.249 56.0966H374.059C378.56 56.0966 380.81 58.3061 380.81 62.725V62.8478H357.222C345.929 62.8478 340.282 68.3715 340.282 79.419C340.282 90.4665 345.929 96.6039 357.222 96.6039H394.313V62.8478C394.313 49.3453 387.561 42.5737 374.038 42.5737L374.079 42.5941ZM380.831 83.1219H357.242C354.951 83.1219 353.805 81.9763 353.805 79.685C353.805 77.3936 354.951 76.3707 357.242 76.3707H380.831V83.1219Z" fill="black"/>
<path d="M142.553 116.551H147.3V117.083C147.3 118.29 147.177 119.211 146.931 119.845C146.686 120.479 146.256 120.949 145.622 121.215C144.988 121.481 144.067 121.625 142.86 121.625C141.94 121.625 141.203 121.543 140.651 121.379C140.098 121.215 139.648 120.929 139.321 120.499C138.994 120.07 138.769 119.476 138.625 118.679C138.482 117.901 138.421 116.858 138.421 115.548C138.421 114.239 138.482 113.196 138.625 112.398C138.769 111.6 138.994 110.986 139.321 110.557C139.648 110.127 140.078 109.82 140.63 109.636C141.183 109.452 141.919 109.37 142.84 109.37C144.088 109.37 145.008 109.452 145.602 109.616C146.195 109.779 146.604 110.086 146.829 110.495C147.054 110.904 147.197 111.559 147.259 112.418H148.854C148.752 111.252 148.568 110.352 148.282 109.759C147.995 109.165 147.422 108.695 146.604 108.388C145.765 108.081 144.517 107.938 142.84 107.938C141.612 107.938 140.61 108.061 139.832 108.327C139.055 108.572 138.441 109.002 137.991 109.575C137.541 110.147 137.214 110.925 137.03 111.886C136.845 112.848 136.743 114.075 136.743 115.548C136.743 117.021 136.825 118.249 137.009 119.21C137.193 120.152 137.5 120.909 137.95 121.481C138.4 122.054 139.014 122.443 139.791 122.688C140.569 122.934 141.592 123.057 142.84 123.057C144.088 123.057 145.029 122.954 145.806 122.77C146.584 122.586 147.177 122.259 147.647 121.809C148.098 121.359 148.425 120.745 148.629 119.947C148.834 119.149 148.936 118.106 148.936 116.817V115.098H142.533V116.53L142.553 116.551ZM153.867 122.913H163.359V121.44H155.524V116.06H163.052V114.607H155.524V109.575H163.4V108.102H153.867V122.913ZM175.634 108.102H168.597V122.913H170.233V116.981H175.246C175.9 116.981 176.412 117.062 176.841 117.226C177.251 117.39 177.557 117.656 177.762 118.024C177.967 118.392 178.069 118.904 178.069 119.558V122.913H179.726V119.17C179.726 117.39 178.949 116.449 177.394 116.346C178.151 116.203 178.724 115.958 179.092 115.61C179.46 115.262 179.685 114.832 179.787 114.341C179.89 113.85 179.931 113.216 179.951 112.439C179.951 110.904 179.583 109.8 178.887 109.125C178.192 108.449 177.107 108.102 175.634 108.102ZM177.946 114.526C177.721 114.935 177.394 115.201 176.944 115.344C176.494 115.487 175.859 115.569 175.082 115.569H170.233V109.575H175.634C176.269 109.575 176.76 109.677 177.148 109.902C177.537 110.127 177.823 110.475 178.007 110.945C178.192 111.416 178.273 112.03 178.273 112.766C178.273 113.503 178.171 114.096 177.946 114.505V114.526ZM193.494 120.806L188.278 108.102H185.536V122.934H187.173V109.452L192.799 122.934H194.231L199.816 109.309V122.934H201.453V108.102H198.752L193.494 120.806ZM211.927 108.122L206.526 122.934H208.306L209.493 119.886H216.96L218.065 122.934H219.824L214.3 108.122H211.907H211.927ZM209.881 118.433L213.134 109.35L216.408 118.433H209.861H209.881ZM235.659 121.645L227.312 108.122H224.693V122.934H226.33V109.554L234.677 122.934H237.275V108.122H235.638V121.645H235.659ZM262.684 115.528C262.684 113.891 262.582 112.582 262.398 111.62C262.214 110.659 261.886 109.902 261.416 109.37C260.966 108.838 260.332 108.47 259.554 108.286C258.777 108.102 257.713 107.979 256.363 107.979C255.012 107.979 254.03 108.081 253.253 108.286C252.476 108.49 251.862 108.859 251.412 109.391C250.962 109.922 250.634 110.679 250.45 111.641C250.266 112.623 250.164 113.912 250.164 115.508C250.164 117.103 250.266 118.433 250.45 119.395C250.634 120.356 250.962 121.113 251.412 121.645C251.862 122.177 252.476 122.545 253.273 122.75C254.051 122.954 255.094 123.057 256.404 123.057C257.12 123.057 257.754 123.057 258.265 123.016C258.797 122.975 259.268 122.913 259.697 122.811C260.127 122.709 260.536 122.545 260.884 122.341C261.232 122.136 261.559 121.85 261.866 121.481L262.971 122.238L263.646 121.113L262.398 120.254C262.582 119.681 262.664 118.085 262.664 115.508L262.684 115.528ZM260.945 119.292L256.649 116.469L255.892 117.635L260.495 120.622C260.27 120.909 259.984 121.113 259.656 121.256C259.309 121.4 258.899 121.481 258.408 121.543C257.917 121.604 257.242 121.604 256.363 121.604C255.299 121.604 254.48 121.522 253.908 121.379C253.335 121.215 252.885 120.929 252.578 120.52C252.271 120.111 252.066 119.517 251.964 118.76C251.862 118.003 251.8 116.919 251.8 115.528C251.8 114.137 251.841 113.053 251.964 112.275C252.066 111.498 252.271 110.904 252.557 110.495C252.864 110.086 253.294 109.8 253.867 109.636C254.44 109.493 255.258 109.411 256.322 109.411C257.386 109.411 258.224 109.493 258.797 109.636C259.39 109.779 259.841 110.066 260.168 110.475C260.475 110.884 260.7 111.477 260.823 112.255C260.945 113.032 260.986 114.116 260.986 115.528C260.986 117.778 260.966 119.047 260.904 119.292H260.945ZM278.437 118.474C278.437 119.415 278.335 120.09 278.13 120.52C277.926 120.949 277.537 121.236 276.985 121.379C276.432 121.522 275.512 121.584 274.264 121.584C273.016 121.584 272.116 121.522 271.543 121.379C270.97 121.236 270.602 120.949 270.397 120.52C270.192 120.09 270.09 119.415 270.09 118.474V108.102H268.453V118.515C268.453 119.579 268.576 120.418 268.842 121.031C269.088 121.645 269.456 122.116 269.947 122.402C270.438 122.688 270.99 122.873 271.665 122.954C272.32 123.036 273.179 123.077 274.264 123.077C275.757 123.077 276.882 122.995 277.68 122.811C278.478 122.627 279.071 122.218 279.48 121.563C279.89 120.909 280.115 119.886 280.115 118.494V108.081H278.478V118.454L278.437 118.474ZM290.385 108.102L284.984 122.913H286.764L287.95 119.865H295.417L296.522 122.913H298.282L292.758 108.102H290.364H290.385ZM288.339 118.413L291.592 109.329L294.865 118.413H288.318H288.339ZM304.828 108.102H303.171V122.913H312.296V121.42H304.828V108.122V108.102ZM317.062 122.893H318.74V108.122H317.062V122.893ZM323.282 109.616H328.13V122.913H329.787V109.616H334.595V108.122H323.282V109.616ZM344.62 115.18L340.139 108.102H338.298L343.74 116.715V122.893H345.397V116.715L351.003 108.102H349.12L344.64 115.18H344.62Z" fill="black"/>
</svg>
