<svg width="295" height="73" fill="none" xmlns="http://www.w3.org/2000/svg"><path d="M36.318 0C16.259 0 0 16.26 0 36.318c0 20.058 16.26 36.317 36.318 36.317 20.058 0 36.317-16.259 36.317-36.317C72.635 16.259 56.376 0 36.318 0zm0 64.734C20.625 64.734 7.9 52.011 7.9 36.319S20.625 7.9 36.318 7.9s28.416 12.724 28.416 28.417c0 15.693-12.723 28.416-28.416 28.416zm0-44.016c-8.614 0-15.6 6.985-15.6 15.6 0 8.614 6.985 15.6 15.6 15.6 8.614 0 15.592-6.986 15.592-15.6s-6.986-15.6-15.592-15.6zm0 27.277c-6.451 0-11.677-5.234-11.677-11.677s5.226-11.685 11.677-11.685c6.45 0 11.677 5.226 11.677 11.685 0 6.458-5.226 11.677-11.677 11.677zm0-38.101C21.733 9.894 9.9 21.718 9.9 36.31s11.825 26.416 26.417 26.416c14.592 0 26.416-11.824 26.416-26.416S50.91 9.894 36.318 9.894zm8.614 5.675a2.917 2.917 0 013.977-1.07 2.915 2.915 0 011.07 3.978 2.917 2.917 0 01-3.977 1.07 2.908 2.908 0 01-1.062-3.978h-.008zm9.506 20.741c0 10.01-8.11 18.12-18.12 18.12-10.01 0-18.12-8.11-18.12-18.12 0-10.01 8.11-18.12 18.12-18.12 10.01 0 18.12 8.11 18.12 18.12zm-18.12-25.176a2.912 2.912 0 012.915 2.915 2.912 2.912 0 01-2.915 2.916 2.912 2.912 0 01-2.916-2.915 2.912 2.912 0 012.916-2.916zm-12.592 3.373a2.91 2.91 0 112.915 5.04 2.908 2.908 0 01-3.977-1.07 2.91 2.91 0 011.07-3.978l-.008.008zm-9.22 9.219a2.915 2.915 0 013.979-1.07 2.908 2.908 0 011.062 3.978 2.917 2.917 0 01-3.978 1.07 2.915 2.915 0 01-1.07-3.978h.008zm-3.372 12.592a2.917 2.917 0 012.915-2.916 2.917 2.917 0 012.916 2.916 2.912 2.912 0 01-2.915 2.915 2.912 2.912 0 01-2.916-2.915zm7.358 13.662a2.906 2.906 0 01-3.977-1.07 2.908 2.908 0 115.04-2.908 2.913 2.913 0 01-1.063 3.977zm9.22 7.086a2.915 2.915 0 01-5.048-2.915 2.908 2.908 0 013.977-1.062 2.906 2.906 0 011.063 3.977h.007zm8.613 4.435a2.912 2.912 0 01-2.915-2.915 2.912 2.912 0 012.916-2.915 2.912 2.912 0 012.915 2.915 2.912 2.912 0 01-2.916 2.915zm12.592-3.372a2.91 2.91 0 111.062-3.978 2.907 2.907 0 01-1.07 3.977h.008zm9.22-9.22a2.924 2.924 0 01-3.986 1.07 2.908 2.908 0 01-1.062-3.977 2.917 2.917 0 013.977-1.07 2.917 2.917 0 011.07 3.977zm3.372-12.591a2.917 2.917 0 01-2.915 2.915 2.917 2.917 0 01-2.916-2.915 2.912 2.912 0 012.916-2.916 2.912 2.912 0 012.915 2.916zm-3.373-12.592a2.908 2.908 0 01-1.07 3.977 2.915 2.915 0 01-2.915-5.047 2.907 2.907 0 013.977 1.07h.008zm135.308 32.41V36.512c0-7.847-3.924-11.77-11.77-11.77h-11.77V13.328h-7.847v42.816h7.847V32.596h11.77c2.613 0 3.923 1.31 3.923 3.923v19.625h7.847v-.008zm54.6-42.815h-7.846v11.413h-7.552v7.846h7.552v23.548h7.846V32.581h4.939l3.49-7.847h-8.436V13.32h.007zm39.955 11.413h-25.246l-3.489 7.846h16.391l-19.051 15.702v7.846h31.395v-7.846h-19.051l19.051-15.701v-7.847zm4.233-8.08a2.234 2.234 0 00-.434-.34c.356-.055.62-.179.798-.373.179-.194.264-.45.264-.752 0-.24-.062-.45-.178-.636a.898.898 0 00-.473-.387c-.194-.07-.512-.109-.938-.109h-1.714v4.04h.814v-1.683h.163c.186 0 .326.016.411.047.085.03.17.085.248.17.078.086.217.28.426.597l.59.877h.977l-.497-.791c-.193-.31-.348-.535-.465-.66h.008zm-1.256-.883h-.605v-1.024h.636c.333 0 .527 0 .597.016a.56.56 0 01.31.155c.07.085.109.194.109.325a.512.512 0 01-.086.303.446.446 0 01-.225.17c-.1.032-.341.047-.728.047l-.008.008zm.085-3.551a3.945 3.945 0 00-3.939 3.938 3.945 3.945 0 003.939 3.94 3.945 3.945 0 003.939-3.94 3.945 3.945 0 00-3.939-3.938zm0 7.242a3.306 3.306 0 01-3.303-3.304 3.306 3.306 0 013.303-3.303 3.306 3.306 0 013.303 3.303 3.306 3.306 0 01-3.303 3.303zM109.232 30.448H92.105c-2.854 0-4.28-1.426-4.28-4.28 0-2.853 1.426-4.28 4.28-4.28h22.539l3.807-8.56H92.097c-8.56 0-12.84 4.28-12.84 12.84 0 8.56 4.28 12.84 12.84 12.84h17.128c2.853 0 4.279 1.427 4.279 4.28 0 2.854-1.426 4.28-4.279 4.28H78.877v8.56h30.348c8.559 0 12.839-4.28 12.839-12.84 0-8.56-4.28-12.84-12.839-12.84h.007zm48.522 17.841H138.13c-2.613 0-3.924-1.31-3.924-3.923v-7.847c0-2.613 1.311-3.923 3.924-3.923h16.282l3.334-7.498v-.349h-19.624c-7.847 0-11.77 3.924-11.77 11.77v7.847c0 7.846 3.923 11.77 11.77 11.77h19.624v-7.847h.008zm59.578-23.547h-14.413l-3.489 7.846h17.902c2.613 0 3.924 1.287 3.924 3.854v.07h-13.701c-6.567 0-9.847 3.21-9.847 9.63 0 6.42 3.28 9.986 9.847 9.986h21.547V36.504c0-7.847-3.923-11.77-11.77-11.77v.008zm3.924 23.547h-13.701c-1.333 0-2-.667-2-2 0-1.334.667-1.923 2-1.923h13.701v3.923z" fill="url(#paint0_linear_1110_122)"/><path d="M82.816 67.712h2.752v.31c0 .698-.07 1.233-.209 1.605-.14.372-.395.636-.76.799-.364.163-.9.24-1.605.24-.527 0-.961-.046-1.28-.14a1.412 1.412 0 01-.767-.511c-.186-.248-.326-.597-.403-1.055-.078-.45-.116-1.062-.116-1.822s.038-1.364.124-1.822c.077-.457.217-.814.403-1.07.186-.256.442-.434.76-.527.318-.093.752-.147 1.287-.147.729 0 1.264.046 1.613.147.349.1.581.271.713.512.132.24.21.612.248 1.109h.93c-.054-.683-.17-1.195-.333-1.551-.163-.357-.496-.62-.977-.791-.48-.178-1.21-.264-2.194-.264-.713 0-1.303.078-1.752.225-.45.147-.807.388-1.07.721-.264.334-.45.783-.559 1.334-.108.558-.162 1.264-.162 2.124 0 .861.054 1.574.162 2.125.109.55.287.992.543 1.318.256.326.613.566 1.07.706.458.147 1.047.217 1.768.217.721 0 1.28-.055 1.729-.163.45-.109.799-.295 1.062-.55.264-.264.45-.621.566-1.086.117-.465.17-1.07.17-1.815v-1h-3.721v.83l.008-.008zm6.567 3.699h5.513v-.861h-4.56v-3.125h4.374v-.837h-4.373v-2.931h4.582v-.853h-5.536v8.607zm12.654-8.6h-4.086v8.6h.953v-3.443h2.916c.372 0 .682.046.922.14.241.093.419.248.543.465.124.217.179.512.179.884v1.954h.961v-2.18c0-1.03-.45-1.58-1.357-1.643.442-.085.768-.225.985-.426.217-.202.349-.45.403-.73.054-.286.085-.65.093-1.1 0-.892-.209-1.535-.62-1.923-.411-.396-1.039-.59-1.892-.59v-.007zm1.349 3.73a.991.991 0 01-.589.481c-.264.085-.628.132-1.086.132h-2.814v-3.481h3.132c.365 0 .659.061.884.193.225.132.395.334.496.605.101.272.155.628.155 1.062 0 .435-.062.776-.193 1.008h.015zm9.033 3.645l-3.032-7.382h-1.597v8.614h.954v-7.83l3.272 7.83h.829l3.249-7.908v7.908h.954v-8.614h-1.574l-3.055 7.382zm10.708-7.374l-3.141 8.599h1.032l.69-1.768h4.342l.643 1.768h1.024l-3.203-8.6h-1.387zm-1.187 5.993l1.892-5.28 1.908 5.28h-3.8zm14.972 1.861l-4.846-7.854h-1.519v8.599h.953v-7.777l4.846 7.777h1.512v-8.6h-.953v7.855h.007zm15.701-3.55c0-.955-.054-1.707-.17-2.273-.109-.566-.303-1-.566-1.302-.264-.31-.628-.52-1.086-.636-.457-.116-1.07-.178-1.853-.178-.783 0-1.357.062-1.806.178-.45.116-.814.333-1.07.643-.264.31-.45.745-.559 1.31-.108.567-.162 1.319-.162 2.25 0 .93.054 1.697.162 2.256.109.558.295.992.559 1.302.263.31.62.528 1.077.651.458.125 1.063.179 1.815.179.418 0 .783-.008 1.085-.031a4.57 4.57 0 00.838-.124c.255-.062.48-.155.69-.28a2.27 2.27 0 00.573-.496l.644.435.395-.66-.721-.496c.109-.333.163-1.256.163-2.752l-.008.023zm-1.008 2.193l-2.488-1.643-.435.674 2.675 1.737a1.203 1.203 0 01-.488.372 2.25 2.25 0 01-.721.163c-.287.023-.683.039-1.187.039-.612 0-1.093-.047-1.426-.132-.334-.093-.589-.256-.768-.496-.178-.24-.294-.582-.356-1.032-.062-.442-.093-1.07-.093-1.876 0-.806.031-1.442.093-1.884.062-.45.178-.79.348-1.031.171-.24.427-.411.76-.497.334-.085.814-.131 1.427-.131.613 0 1.101.046 1.442.131.341.086.605.249.791.489.186.24.31.582.372 1.031.07.45.101 1.078.101 1.9 0 1.31-.016 2.039-.047 2.194v-.008zm10.158-.473c0 .543-.062.939-.179 1.187-.116.248-.341.41-.674.496-.334.085-.861.124-1.59.124-.729 0-1.248-.039-1.574-.124-.325-.085-.55-.248-.667-.496-.116-.248-.178-.644-.178-1.187v-6.024h-.954v6.055c0 .613.07 1.101.225 1.466.148.364.365.628.644.798.279.171.612.28.992.326.38.047.884.07 1.504.07.869 0 1.528-.047 1.978-.148.449-.1.806-.34 1.054-.72.248-.38.372-.978.372-1.784V62.82h-.953v6.024-.008zm6.939-6.024l-3.14 8.599h1.031l.69-1.768h4.342l.644 1.768h1.023l-3.202-8.6h-1.388zm-1.186 5.993l1.892-5.28 1.907 5.28h-3.799zm9.583-5.993h-.961v8.599h5.303v-.869h-4.342v-7.73zm7.11 8.59h.977v-8.575h-.977v8.576zm3.613-7.714h2.815v7.73h.961v-7.73h2.792v-.868h-6.568v.868zm12.391 3.241l-2.606-4.11h-1.07l3.156 5.01v3.597h.962v-3.598l3.248-5.008h-1.093l-2.605 4.109h.008z" fill="#9A999B"/><defs><linearGradient id="paint0_linear_1110_122" x1="147.504" y1="0" x2="147.504" y2="72.628" gradientUnits="userSpaceOnUse"><stop stop-color="#888887"/><stop offset=".06" stop-color="#ADADAC"/><stop offset=".21" stop-color="#fff"/><stop offset=".35" stop-color="#BCBCBC"/><stop offset=".45" stop-color="#929292"/><stop offset=".5" stop-color="#828282"/><stop offset=".54" stop-color="#7B7B7B"/><stop offset=".73" stop-color="#595959"/><stop offset=".89" stop-color="#444443"/><stop offset="1" stop-color="#3D3D3C"/></linearGradient></defs></svg>106H94.8958V70.5499H90.3368V67.4252H94.7098V66.5878H90.3368V63.657H94.9191V62.8041H89.3831V71.4028V71.4106ZM102.037 62.8119H97.9508V71.4106H98.9044V67.968H101.82C102.192 67.968 102.502 68.0145 102.742 68.1075C102.983 68.2006 103.161 68.3557 103.285 68.5728C103.409 68.7899 103.464 69.0845 103.464 69.4567V71.4106H104.425V69.2318C104.425 68.2006 103.975 67.6501 103.068 67.588C103.51 67.5028 103.836 67.3632 104.053 67.1616C104.27 66.96 104.402 66.7119 104.456 66.4328C104.51 66.1459 104.541 65.7815 104.549 65.3318C104.549 64.4401 104.34 63.7966 103.929 63.4089C103.518 63.0134 102.89 62.8196 102.037 62.8196V62.8119ZM103.386 66.5413C103.262 66.7739 103.06 66.9368 102.797 67.022C102.533 67.1073 102.169 67.1538 101.711 67.1538H98.8967V63.6725H102.029C102.394 63.6725 102.688 63.7345 102.913 63.8663C103.138 63.9981 103.308 64.1997 103.409 64.4711C103.51 64.7425 103.564 65.0992 103.564 65.5334C103.564 65.9676 103.502 66.3087 103.371 66.5413H103.386ZM112.419 70.1855L109.387 62.8041H107.79V71.4183H108.744V63.5872L112.016 71.4183H112.845L116.094 63.5097V71.4183H117.048V62.8041H115.474L112.419 70.1855ZM123.127 62.8119L119.986 71.4106H121.018L121.708 69.6427H126.05L126.693 71.4106H127.717L124.514 62.8119H123.127ZM121.94 68.8054L123.832 63.5252L125.74 68.8054H121.94ZM136.912 70.6662L132.066 62.8119H130.547V71.4106H131.5V63.6337L136.346 71.4106H137.858V62.8119H136.905V70.6662H136.912ZM152.613 67.1151C152.613 66.1614 152.559 65.4093 152.443 64.8433C152.334 64.2773 152.14 63.8431 151.877 63.5407C151.613 63.2305 151.249 63.0212 150.791 62.9049C150.334 62.7886 149.721 62.7266 148.938 62.7266C148.155 62.7266 147.581 62.7886 147.132 62.9049C146.682 63.0212 146.318 63.2383 146.062 63.5484C145.798 63.8586 145.612 64.2928 145.503 64.8588C145.395 65.4248 145.341 66.1769 145.341 67.1073C145.341 68.0378 145.395 68.8054 145.503 69.3636C145.612 69.9219 145.798 70.3561 146.062 70.6662C146.325 70.9764 146.682 71.1935 147.139 71.3175C147.597 71.4416 148.202 71.4958 148.954 71.4958C149.372 71.4958 149.737 71.4881 150.039 71.4648C150.342 71.4493 150.621 71.4028 150.877 71.3408C151.132 71.2787 151.357 71.1857 151.567 71.0616C151.776 70.9376 151.962 70.7748 152.14 70.5654L152.784 70.9996L153.179 70.3406L152.458 69.8443C152.567 69.5109 152.621 68.5883 152.621 67.0918L152.613 67.1151ZM151.605 69.3093L149.117 67.6656L148.682 68.3401L151.357 70.0769C151.226 70.2398 151.063 70.3716 150.869 70.4491C150.675 70.5344 150.435 70.5887 150.148 70.6119C149.861 70.6352 149.465 70.6507 148.961 70.6507C148.349 70.6507 147.868 70.6042 147.535 70.5189C147.201 70.4259 146.946 70.263 146.767 70.0227C146.589 69.7823 146.473 69.4412 146.411 68.9914C146.349 68.5495 146.318 67.9215 146.318 67.1151C146.318 66.3087 146.349 65.6729 146.411 65.231C146.473 64.7813 146.589 64.4401 146.759 64.1997C146.93 63.9594 147.186 63.7888 147.519 63.7035C147.853 63.6182 148.333 63.5717 148.946 63.5717C149.559 63.5717 150.047 63.6182 150.388 63.7035C150.729 63.7888 150.993 63.9516 151.179 64.192C151.365 64.4323 151.489 64.7735 151.551 65.2232C151.621 65.6729 151.652 66.301 151.652 67.1228C151.652 68.4332 151.636 69.162 151.605 69.3171V69.3093ZM161.763 68.8364C161.763 69.3791 161.701 69.7746 161.584 70.0227C161.468 70.2708 161.243 70.4336 160.91 70.5189C160.576 70.6042 160.049 70.643 159.32 70.643C158.591 70.643 158.072 70.6042 157.746 70.5189C157.421 70.4336 157.196 70.2708 157.079 70.0227C156.963 69.7746 156.901 69.3791 156.901 68.8364V62.8119H155.947V68.8674C155.947 69.4799 156.017 69.9684 156.172 70.3328C156.32 70.6972 156.537 70.9608 156.816 71.1314C157.095 71.302 157.428 71.4106 157.808 71.4571C158.188 71.5036 158.692 71.5269 159.312 71.5269C160.181 71.5269 160.84 71.4803 161.29 71.3795C161.739 71.2787 162.096 71.0384 162.344 70.6585C162.592 70.2785 162.716 69.6815 162.716 68.8751V62.8196H161.763V68.8441V68.8364ZM168.702 62.8119L165.562 71.4106H166.593L167.283 69.6427H171.625L172.269 71.4106H173.292L170.09 62.8119H168.702ZM167.516 68.8054L169.408 63.5252L171.315 68.8054H167.516ZM177.099 62.8119H176.138V71.4106H181.441V70.5422H177.099V62.8119ZM184.209 71.4028H185.186V62.8274H184.209V71.4028ZM187.822 63.688H190.637V71.4183H191.598V63.688H194.39V62.8196H187.822V63.688ZM200.213 66.929L197.607 62.8196H196.537L199.693 67.8284V71.4261H200.655V67.8284L203.903 62.8196H202.81L200.205 66.929H200.213Z" fill="#9A999B"/>
<defs>
<linearGradient id="paint0_linear_1110_122" x1="147.504" y1="0" x2="147.504" y2="72.6277" gradientUnits="userSpaceOnUse">
<stop stop-color="#888887"/>
<stop offset="0.06" stop-color="#ADADAC"/>
<stop offset="0.21" stop-color="white"/>
<stop offset="0.35" stop-color="#BCBCBC"/>
<stop offset="0.45" stop-color="#929292"/>
<stop offset="0.5" stop-color="#828282"/>
<stop offset="0.54" stop-color="#7B7B7B"/>
<stop offset="0.73" stop-color="#595959"/>
<stop offset="0.89" stop-color="#444443"/>
<stop offset="1" stop-color="#3D3D3C"/>
</linearGradient>
</defs>
</svg>
