<svg width="242" height="62" fill="none" xmlns="http://www.w3.org/2000/svg"><path d="M30.515 0C13.665 0 0 13.703 0 30.608c0 16.906 13.664 30.609 30.515 30.609 16.852 0 30.516-13.706 30.516-30.609C61.03 13.703 47.37 0 30.516 0zm0 54.562c-13.187 0-23.88-10.724-23.88-23.954S17.328 6.655 30.515 6.655c13.188 0 23.88 10.72 23.88 23.953 0 13.233-10.69 23.954-23.88 23.954zm0-37.1c-7.238 0-13.107 5.889-13.107 13.146 0 7.258 5.869 13.147 13.107 13.147 7.239 0 13.105-5.886 13.105-13.147 0-7.26-5.866-13.146-13.104-13.146zm0 22.991c-5.42 0-9.815-4.408-9.815-9.845s4.395-9.845 9.816-9.845c5.42 0 9.812 4.406 9.812 9.845 0 5.44-4.392 9.845-9.813 9.845zm0-32.11c-12.257 0-22.197 9.968-22.197 22.265 0 12.298 9.94 22.265 22.197 22.265 12.258 0 22.197-9.967 22.197-22.265 0-12.297-9.937-22.264-22.197-22.264zm7.236 4.786a2.444 2.444 0 013.344-.9 2.457 2.457 0 01.896 3.354 2.446 2.446 0 01-3.344.9 2.46 2.46 0 01-.896-3.354zm7.987 17.48c0 8.434-6.816 15.271-15.225 15.271-8.41 0-15.226-6.837-15.226-15.272 0-8.434 6.817-15.271 15.226-15.271s15.225 6.837 15.225 15.271zM30.515 9.384a2.45 2.45 0 012.448 2.455 2.45 2.45 0 01-2.448 2.455 2.45 2.45 0 01-2.447-2.455 2.45 2.45 0 012.447-2.455zM19.934 12.23a2.443 2.443 0 013.343.896 2.459 2.459 0 01-.896 3.354 2.444 2.444 0 01-3.343-.9 2.46 2.46 0 01.896-3.353v.003zM12.187 20a2.444 2.444 0 013.347-.9 2.46 2.46 0 01.893 3.354 2.444 2.444 0 01-3.343.9A2.46 2.46 0 0112.188 20zM9.352 30.614a2.45 2.45 0 012.447-2.455 2.452 2.452 0 012.447 2.455 2.453 2.453 0 01-2.447 2.454 2.455 2.455 0 01-2.45-2.454h.003zm6.179 11.512a2.443 2.443 0 01-3.344-.898 2.46 2.46 0 01.897-3.354 2.444 2.444 0 013.343.899 2.46 2.46 0 01-.893 3.353h-.003zm7.743 5.973a2.445 2.445 0 01-3.343.896 2.462 2.462 0 01-.899-3.354 2.447 2.447 0 013.346-.899 2.459 2.459 0 01.896 3.354v.003zm7.239 3.74a2.45 2.45 0 01-2.448-2.455 2.45 2.45 0 012.448-2.455 2.45 2.45 0 012.447 2.455 2.45 2.45 0 01-2.447 2.455zm10.58-2.842a2.445 2.445 0 01-3.344-.896 2.459 2.459 0 01.896-3.353 2.443 2.443 0 013.343.896 2.459 2.459 0 01-.896 3.353zm7.748-7.77a2.446 2.446 0 01-3.346.902 2.461 2.461 0 01-.896-3.354 2.444 2.444 0 013.343-.898 2.463 2.463 0 01.899 3.353v-.002zm2.833-10.61a2.45 2.45 0 01-2.447 2.454 2.453 2.453 0 01-2.448-2.455 2.45 2.45 0 012.448-2.455 2.452 2.452 0 012.447 2.455zm-2.836-10.615a2.46 2.46 0 01-.896 3.356 2.447 2.447 0 01-3.343-.901 2.46 2.46 0 01.896-3.354 2.444 2.444 0 013.343.9zM162.535 47.32V30.78c0-6.616-3.297-9.922-9.893-9.922h-9.893V11.23h-6.596v36.084h6.596V27.468h9.893c2.199 0 3.297 1.101 3.297 3.307v16.539h6.596v.005zm45.886-36.09h-6.596v9.623h-6.345v6.616h6.345v19.846h6.596V27.468h4.154l2.934-6.616h-7.088V11.23zm33.576 9.623h-21.21l-2.934 6.616h13.772l-16.007 13.23v6.616H242v-6.616h-16.007L242 27.468v-6.616h-.003zM91.79 25.662H77.4c-2.397 0-3.596-1.202-3.596-3.608 0-2.405 1.199-3.608 3.597-3.608h18.942l3.2-7.216H77.402c-7.194 0-10.792 3.608-10.792 10.824 0 7.217 3.598 10.825 10.792 10.825H91.79c2.398 0 3.597 1.203 3.597 3.608 0 2.405-1.2 3.608-3.597 3.608H66.293v7.216H91.79c7.194 0 10.791-3.608 10.791-10.824 0-7.216-3.597-10.825-10.791-10.825zm40.771 15.036h-16.489c-2.199 0-3.297-1.102-3.297-3.307v-6.616c0-2.206 1.098-3.307 3.297-3.307h13.684l2.805-6.323v-.293h-16.489c-6.597 0-9.893 3.306-9.893 9.923v6.616c0 6.616 3.296 9.923 9.893 9.923h16.489v-6.616zm50.063-19.846h-12.112l-2.935 6.616h15.047c2.199 0 3.297 1.083 3.297 3.247v.06h-11.512c-5.516 0-8.274 2.706-8.274 8.117 0 5.411 2.758 8.42 8.274 8.42h18.108v-16.54c0-6.616-3.297-9.923-9.893-9.923v.003zm3.297 19.846h-11.512c-1.119 0-1.678-.561-1.678-1.684 0-1.122.559-1.623 1.678-1.623h11.512v3.307z" fill="url(#paint0_linear_1110_182)"/><path d="M69.59 57.073h2.315v.263c0 .59-.06 1.039-.176 1.353a1.136 1.136 0 01-.637.67c-.308.135-.756.2-1.35.2-.445 0-.805-.039-1.076-.12a1.207 1.207 0 01-.645-.433c-.158-.21-.272-.504-.34-.886-.067-.382-.1-.894-.1-1.533 0-.639.033-1.15.1-1.537.068-.385.18-.686.337-.902.158-.213.37-.364.64-.447.27-.083.632-.124 1.082-.124.612 0 1.062.041 1.355.124.29.084.492.226.6.429.11.205.18.517.21.938h.782c-.046-.574-.14-1.008-.282-1.304-.142-.296-.414-.52-.82-.668-.405-.148-1.021-.223-1.842-.223-.6 0-1.09.062-1.471.187a1.822 1.822 0 00-.896.61c-.22.283-.376.657-.466 1.128-.093.47-.138 1.067-.138 1.792 0 .725.044 1.327.135 1.792.09.465.244.834.459 1.11.215.275.515.475.898.594.383.123.88.182 1.49.182.608 0 1.074-.044 1.45-.137.375-.091.673-.247.893-.468.22-.22.378-.525.474-.917.096-.39.145-.901.145-1.527v-.845H69.59v.699zm5.519 3.117h4.63v-.724h-3.83v-2.632h3.675v-.706H75.91V53.66h3.849v-.717H75.11v7.25-.003zm10.631-7.25h-3.434v7.25h.8v-2.904h2.45c.316 0 .575.04.775.117a.85.85 0 01.453.395c.1.184.152.434.152.748v1.644h.811v-1.839c0-.87-.378-1.33-1.137-1.384.373-.07.648-.19.826-.364.18-.172.293-.38.34-.616.046-.239.072-.548.077-.927-.005-.75-.178-1.294-.52-1.624-.342-.33-.873-.496-1.593-.496zm1.134 3.14a.844.844 0 01-.492.406c-.222.075-.525.112-.911.112h-2.362v-2.933h2.634c.305 0 .551.055.743.164a.94.94 0 01.417.511c.088.232.132.53.132.897 0 .366-.054.652-.16.846v-.002zm7.589 3.074l-2.546-6.224h-1.342v7.258h.8V53.59l2.75 6.598h.695l2.73-6.669v6.669h.8V52.93h-1.321l-2.566 6.224zm8.994-6.214l-2.637 7.25h.871l.58-1.49h3.646l.541 1.49h.858l-2.694-7.25h-1.165zm-.995 5.053l1.593-4.453 1.603 4.453h-3.196zm12.579 1.569l-4.071-6.622h-1.274v7.25h.8v-6.55l4.074 6.551h1.271v-7.25h-.8v6.622zm13.19-2.993c0-.803-.047-1.439-.14-1.914-.093-.476-.251-.842-.474-1.102-.223-.257-.526-.436-.909-.535-.383-.099-.901-.148-1.554-.148s-1.139.05-1.52.15c-.381.102-.681.281-.901.544-.221.26-.376.628-.469 1.106-.093.478-.14 1.11-.14 1.897 0 .787.047 1.428.137 1.898.091.47.246.837.469 1.1.223.262.523.444.909.545.383.101.893.153 1.525.153.353 0 .658-.008.912-.023.254-.016.489-.05.702-.102.212-.052.404-.13.577-.23.174-.102.334-.242.482-.419l.539.369.329-.553-.609-.416c.091-.283.135-1.057.135-2.322v.002zm-.847 1.847l-2.095-1.382-.368.57 2.248 1.462a1.02 1.02 0 01-.409.314c-.166.07-.368.114-.609.138-.241.023-.572.033-1 .033-.518 0-.916-.039-1.196-.114a1.135 1.135 0 01-.645-.418c-.148-.205-.249-.494-.3-.865-.052-.374-.078-.902-.078-1.582s.026-1.213.075-1.593c.049-.376.148-.667.293-.872.145-.206.357-.343.639-.419.283-.075.682-.111 1.199-.111.518 0 .925.036 1.213.111.29.073.51.213.665.413.153.203.259.491.316.868.057.377.085.91.085 1.6 0 1.104-.012 1.72-.038 1.847h.005zm8.538-.397c0 .457-.049.792-.15 1-.101.208-.287.348-.564.418-.278.07-.72.104-1.334.104-.614 0-1.049-.034-1.324-.104-.274-.07-.461-.21-.562-.418-.101-.208-.15-.54-.15-1v-5.081h-.8v5.101c0 .517.062.928.186 1.234.125.304.303.528.539.67.236.143.513.234.834.273.321.04.743.06 1.266.06.728 0 1.282-.042 1.663-.127a1.36 1.36 0 00.883-.608c.207-.32.311-.82.311-1.502v-5.101h-.8v5.08h.002zm5.83-5.081l-2.636 7.25h.87l.58-1.491h3.646l.542 1.49h.857l-2.694-7.25h-1.165zm-.995 5.052l1.593-4.452 1.603 4.452h-3.196zm8.055-5.052h-.811v7.25h4.46v-.735h-3.649v-6.515zm5.974 7.24h.821v-7.23h-.821v7.23zm3.038-6.505h2.365v6.515h.81v-6.515h2.344v-.735h-5.519v.735zm10.414 2.73l-2.191-3.465h-.899l2.652 4.22v3.03h.811v-3.03l2.732-4.22h-.92l-2.188 3.465h.003z" fill="#9A9B9E"/><defs><linearGradient id="paint0_linear_1110_182" x1="120.997" y1="0" x2="120.997" y2="61.217" gradientUnits="userSpaceOnUse"><stop stop-color="#888A8D"/><stop offset=".06" stop-color="#ACADAF"/><stop offset=".21" stop-color="#fff"/><stop offset=".35" stop-color="#BCBCBC"/><stop offset=".45" stop-color="#929292"/><stop offset=".5" stop-color="#828282"/><stop offset=".51" stop-color="gray"/><stop offset=".72" stop-color="#5E5E5F"/><stop offset=".89" stop-color="#48484A"/><stop offset="1" stop-color="#414143"/></linearGradient></defs></svg>